<svg viewBox="0 0 1317.75 524.19" xmlns="http://www.w3.org/2000/svg"><path d="m1277.4 275a26.71 26.71 0 0 0 -2.07 3.47c-.27.69-.37 1.4-.59 2.06-.52 1.55-.91 3.25-2.14 4.41s-2.59 1.71-3.73 2.77c-2.93 2.73-6.07 4.92-8.91 7.66-.64.61-1.07 1.54-1.8 2a8.56 8.56 0 0 1 -1.62.7c3.07-3.75 8.18-10 9.92-12.47 2-2.75 9.2-12.16 12.41-16.34 0 .45 0 .89-.07 1.34a11.17 11.17 0 0 1 -1.4 4.39m39.9-21c-.14-.71.12-1.9-.25-2.53-.61-1-1.91-.86-2.85-1.36-.6-.31-.59-.79-1-1.13s-1.11-.39-1.66-.68-.86-.52-.94-1c-.16-1 .79-1.89.62-2.93a2.47 2.47 0 0 0 -.56-1.21c-.34-.35-1.11-.24-1.35-.54s.38-.93.34-1.45-.77-.55-.74-1c1.21.25.26-1.07-.06-1.39a5.75 5.75 0 0 1 -1.38-1.89c-.5-1.19-1.32-2.19-1.92-3.33a17.8 17.8 0 0 0 -.82-1.75 12 12 0 0 0 -1.16-1.23 15.93 15.93 0 0 1 -.95-1.43c-.26-.36-.68-.62-.92-1s-.11-.91-.31-1.4a14.12 14.12 0 0 0 -.78-1.19 14.31 14.31 0 0 1 -1-1.83 10.31 10.31 0 0 0 -1.19-2.62 7.74 7.74 0 0 0 -.86-1.19 14.49 14.49 0 0 0 -1.44-.85 11.11 11.11 0 0 0 -2.44-1.46c-.64-.25-1.1-.67-1.7-1a5.26 5.26 0 0 1 -1.57-.8c.14-.07.14-.17.32-.22-.52-1.1-2.45-1.73-3.56-1.62a2.45 2.45 0 0 1 1.12-.35c-.43-.95-6.2.37-6.07 1.29-.47.21-1.19 0-1.64.29a2.33 2.33 0 0 0  .36.07 7.73 7.73 0 0 0 -3.85.73 2.68 2.68 0 0 0  .79.22 8.11 8.11 0 0 1 -.8.29c-1.11.44-2.77.75-3.68 1.53-.41.35-.57.71-1.08 1s-1.42.51-2 .86a34.89 34.89 0 0 0 -3.2 2.18 8.7 8.7 0 0 0 -1.22 1.12c-.4.43-1.52 1.38-1.49 2l .85-.46a9.45 9.45 0 0 0 -.78 1.46c.12-.11.28-.17.39-.3-.3.79-1.17 1.43-1.61 2.17a5.28 5.28 0 0 0 -.7 2.61 22.33 22.33 0 0 1  1.76-2c-.61.87-.32 2-.72 3a5.55 5.55 0 0 0 -.5 1.9 7.48 7.48 0 0 1  .07 1.61c.16-.2.32-.38.48-.56a3.65 3.65 0 0 0 -.07 1.75c.16.51.56.89.75 1.36.39 1 .19 2.3 1 3.05 0-.23 0-.48 0-.72.48.5.39 1.22.88 1.73.33.34 1.8 1.81 2.21 1.17 0 .09.14.19.17.26l.09-.17c.07 0 .1.08.18.1s0-.1.09-.18a1.26 1.26 0 0 1  .29.15c0-.1 0-.18 0-.28 1.45-.05 1-1.1 1.1-2.23 1.23 1.27.65 8.32 3.76 6.3.07.62-.32.87 0 1.39.21.29.88.3 1.19.54.79.61.34 1.87 1.92 1.71 1.15-.12 1.83-.44 2.45.86.53 1.11.57 2.56 2 2.56a4.36 4.36 0 0 0 2.88-1.54c-1.27 2-1.09 4.5-2.1 6.44-.91 1.73-1.87 3.42-2.65 5.22l-17 21.39s.2.61-1.63 1.43a3.36 3.36 0 0 0 -2 2.45l-7.81 11.58a14.23 14.23 0 0 1 -3.41 1.54l-16.33-22a5.07 5.07 0 0 0  .27-3.4l-.43-.8 1.11-1.58s.82.14 1.16-.41a1.24 1.24 0 0 0 -.14-1.23s-.82-.41-1.29.14a1.1 1.1 0 0 0 -.07 1.23l-1.13 1.18-1-1.81.67-1a4.6 4.6 0 0 0 1-.75.8.8 0 0 0  0-.82s-.27-.61-.89-.07a1.34 1.34 0 0 0 -.41 1.29l-.66.71-.64-1.2.69-.81a1.3 1.3 0 0 0  .75-.41.8.8 0 0 0  0-.82.75.75 0 0 0 -.88 0 .94.94 0 0 0 -.21 1l-.66.5-1.17-2.2-1.5-1.09a4.31 4.31 0 0 1 -2.31 2.18 7.29 7.29 0 0 0 -2.86 1.9l2 4.45a1.39 1.39 0 0 0 -.71.21.66.66 0 0 0  .86 1 .68.68 0 0 0  .25-.32l.73 1.61-.3.34a1 1 0 0 0 -1.09.2c-.48.48-.14.82 0 1a .9.9 0 0 0 1.16.07.88.88 0 0 0  .2-.82l.26-.29.79 1.73-.71.67s-.54-.48-1 0 .14 1.09.14 1.09.61.41 1 .07a.51.51 0 0 0  .07-.68l.76-.59.33.73.82.41 5.85 10.07a2.17 2.17 0 0 1  .39.65c-.47.57-1.12.82-1.37 1.5s.21 1.46 0 2.21-.89 1-.71 2a6.64 6.64 0 0 0 1.16 2.15c.76 1.14 1.66 2.09 2.51 3.18a18.87 18.87 0 0 0 8.3 6.4c1.54.65 1.29 1.23 1.8 2.69.38 1.08 1.09 2.21 2.42 1.78a8.75 8.75 0 0 1 1.9 2.67c.26.94-.32 1.37-.5 2.35-.14.76.06 1.28-.14 2a3.12 3.12 0 0 1 -2.58 2.72c-1.93.36-4.12-.06-4.8 2.28a3.75 3.75 0 0 0 2.76 4.52c1.75.56 4.08.7 5.68 1.53 1.4.72 2.31 2.49 3.58 3.37-1.2 1.66-1.24 4.32-1.75 6.26a69.37 69.37 0 0 1 -2.11 6.66c-1.51 4-2.16 8.42-3.68 12.51-.75 2-.7 4.11-1.32 6.14a47.8 47.8 0 0 0 -2 7.94 20.65 20.65 0 0 0  1.04 8.33c1.11 3.92-.15 7.33-.16 11.19 0 3.2 1.36 6 1.19 9.44-.16 3.18-.35 6.78-.83 10-.5 3.4-1.22 6.39-1.22 10a27.66 27.66 0 0 0 1 6.83c.16.62 1 4.58 1.68 4.77.27.08.51.22.75.29-1.1 1.28-2.1 1.64-2.42 3.42a10.74 10.74 0 0 1 -1.34 4.5c0 .12.23.22.29.35a8.63 8.63 0 0 1 -2.43 1.87c-1.13.47-2.52.48-3.71 1-2.37 1-3.84 2.28-3.18 4.93 2.39-1.07 5.84-.81 8.53-.81h8.78 9.18c2 0 6.45.17 8.08-1.44a12.77 12.77 0 0 0 -.24-2 6.44 6.44 0 0 1  .27-2.38 8.2 8.2 0 0 0  .36-4.34c-.14-1.44-.62-2.82-.4-4.29a13.13 13.13 0 0 0 -.31-4.08c-.19-1.38-.25-2.74-.31-4.08-.09-1.86.1-3.47.18-5.31a40.06 40.06 0 0 1  .23-5.4c.63-3.34-.7-7.11-1-10.41-.19-1.94.36-3.26.72-5.1.33-1.66-.31-3.29-.31-5v-5.31c0-1.43-.82-3.62-.3-4.86-.13 1.13.43 1.46.73 2.29s.19 1.6.48 2.38c.56 1.46.83 3.37 1.6 4.79a16.72 16.72 0 0 1 1.54 2.35c.29.83.34 1.71.65 2.55.52 1.41 1 3.33 1.92 4.49.44.55 1.08.9 1.43 1.53a13.32 13.32 0 0 1  .64 2.12c.5 1.45 1.75 2.85 1.91 4.31.37 3.39-.58 6.82-.41 10.1a49.79 49.79 0 0 0  .2 5.2c.45 3 0 6.09.61 9 .28 1.36-.23 2.19-.31 3.46-.09 1.47.33 2.17-.63 3.48s-1.85 1.37-3.24 1.65-3.25.32-4.26 1.13a3.2 3.2 0 0 0 -.63 3.85c.76 1 2.93.52 4.18.51 1.57 0 3.2.21 4.8.2s3.18-.17 4.79-.1 3.26.33 4.8.31a30.22 30.22 0 0 1 5.2-.11 10.89 10.89 0 0 0  4.61-.18c1.17-.3 3.83-.15 4.65-1.17s-.12-3.51-.18-4.57c-.13-2.07.1-4.17.05-6.25-.06-2.68-.43-5.35-.46-8 0-1.79.21-3.53.31-5.31a35.12 35.12 0 0 0 -.51-5.51c-.38-3.68.19-7.28-.92-10.9a19.26 19.26 0 0 1 -.71-5.84 18.43 18.43 0 0 0 -1.14-5.1c-.54-1.79-.63-3.48-1-5.31-.51-2.52-1.71-5-1.84-7.55-.05-1 0-2.05-.12-3.06-.16-1.66.15-3.75-.77-5.21-.44-.69-.89-.94-.82-1.83a15.94 15.94 0 0 1  .69-2.35 6.44 6.44 0 0 0 -.1-4.6 6.81 6.81 0 0 1 -.92-2c-.08-.83.16-1.69.1-2.55-.2-3.25-.72-6.68-.92-10a18.94 18.94 0 0 1 0-4.9c.16-.78.5-1.47.73-2.25a8.74 8.74 0 0 0  .55-2.43c-.05-.73-.89-1.41-.66-2.16.17-.59 1.3-1.28 1.62-1.84a24.37 24.37 0 0 0 1.51-4.51 24.9 24.9 0 0 1  1.73-4.39 9 9 0 0 0  1.25-4.57c0-1.64.54-3.43.33-4.92a27.77 27.77 0 0 0 -1.41-4.27 10.57 10.57 0 0 0  3.45.44 3.65 3.65 0 0 0  2.65-2.27 34.72 34.72 0 0 0  2.91-9.59 16.7 16.7 0 0 1  1.37-4.87c.35-.69.73-1.4 1.07-2.09a15 15 0 0 0 1-4.06 17.39 17.39 0 0 1  .72-2 16.16 16.16 0 0 0  1-3.67c.22-2.62.63-5 .91-7.65.17-1.59 1.42-3.12 2.22-4.49a9.59 9.59 0 0 0 1.15-5.2 38.61 38.61 0 0 1  .2-5.31 18 18 0 0 0  .31-2.65 24.34 24.34 0 0 0 -.71-5.62c-.23-.81-.66-1.28-.61-1.93a7.73 7.73 0 0 1  .43-2.22c.45-.85 1.32-.45 1.71-1s-.14-1.76-.28-2.45" fill="#fff"/><path d="m244.1 142.9l1.44.82.93.41 11.17 9.66-12.92 6.41h-.82-.42l-.14-17.31zm-7 14.59l4-12.35.1 14.89h-.41zm-5.52-3.72l8.38-10.27-4.16 13.11zm54.5-110.77a2 2 0 0 0 -.88-.91c-.1-.62-.93 0-.93 0-.51-.06-.94.43-1.2.81-13.27-.31-24 1.39-24 3.84s9.55 4.55 21.93 5.14l-40.2 36.83-.28-.27-4.94 4.22-2.78 1.65-4.64 4.53a2.54 2.54 0 0 0  .72 2.88 2 2 0 0 0  2.47.31s2.68-2.58 3.91-4a27.63 27.63 0 0 0 1.85-2.37c2 2.16 3.6 1.54 3.6 1.54l-.21 3.5h.31l.27 39.68-1.51.4-21.73 27.91-1.65 6.21h-.1l-1.35 4.1 3 .1.21-3.76-.27-.07 1.51-6.31 11-13.42 5 3.17-2.19 6.74-.59 8.26h-.13l-.62 4.5 2.78.1-.52-4.39h-.16l.68-8.22 2-6.14 3.67 2.33h4.63l13.92-7.2 16 13.79 2.22 6.26h-.05l.41 2.06a3.7 3.7 0 0 0 2.68 0l-1.34-2.68 0 0-2.53-6.61-28.74-24.72-.31-1-.93-1.24-1.55-.2h-1.1l-.25-29.9 1.46-.08v-1.37l1.75-.18s1.54.62 1.44-.41-1.44 0-1.44 0l-1.75.17v-.37l-1.63-.21-.06-7.47h.3l.1-3.5s1.65.41 1.65-1.85a2.72 2.72 0 0 0 -1.65-2.78l-.82-2.06-.62-.59 41.18-37.84h.41c13.59.39 24.67-1.32 24.74-3.82s-9.68-4.58-22.18-5.15" fill="#fff"/><path d="m435 72.84l-.36-.23.06-2.28h-.8l.1-2.33.62-.07-.14-2.54a3.25 3.25 0 0 0 -1-.33v-.78a2.68 2.68 0 0 0 1.27.59l-.1 3.06h.35zm-.19 30.16l-.68-1.31.94-.55v1.86zm-4.31 16.82h-1l-.62.27.69-1.79-1-.07-.69 2.06-.62.34.34.55-.89 2h1.29l.75-1.92.34.07.14.89 1.28-.05-.31 18.25h-1.79l-.69-.34-1.58 1.44.55.51-4.3 3.97c0-.63 0-1.26 0-1.88a3.45 3.45 0 0 0 -.34-1.64 6.09 6.09 0 0 1 -.22-1.36c-.09-1-.12-2-.27-3s-.25-1.91-.32-2.91c-.31-3.07-.32-6.21-.4-9.34 0-.78 0-1.57-.08-2.35.33-8.54-4.52-16.06-11.31-21a8.57 8.57 0 0 1 -1.16-1.42 4.11 4.11 0 0 0 -1.29-1.32 20.25 20.25 0 0 1 -1.79-1 19.35 19.35 0 0 1 -3-2.22c5.79-4.86 4.32-8.56 3.31-10l12.24 2.76.23 1.22s-.2 1.1 0 1.3a2 2 0 0 0  .89.27l.07-1.44.66-.94 4 .9a3.23 3.23 0 0 0 2.08 1.72l.14 2.72a4.62 4.62 0 0 0 -.69.27l.34 2a2.87 2.87 0 0 1  .46-.15v.36l.41 4.12-.82-1c-1-2.06-1.92-1.1-1.92-1.1-.21.55 1 1.58 1 1.58a3.34 3.34 0 0 0 1 1.79h-.75l.14 3.3 1.85.07.41 1.31a1.69 1.69 0 0 0 2.13-.21l-.14-1.1.55.14v2.68h.88zm8.19 35l-1.54.36s-.14-.34-.82-.34h-.14l-2.77-10.68v-.31l5.93 10.29zm-5.44 5.5v-2.48l1.91-.3.17.65zm-10.58 9.35l-.12-10.55 5.82 3.41 1.72.07v4.22h-.48s-1.65 2.27-6.93 2.89m-2.76-.52l.1-.13a3.69 3.69 0 0 0  .57-1.41l-.1 1.79zm-22.92-5.35l.81-.48c.44.74.9 1.54 1.36 2.39l-.62.55zm-13 5.79h-3a37.3 37.3 0 0 0 9.58-13.49l4.48 7.06zm-41.13 7.16l-.87-1.19q1.15.44 2.33.81zm50.59-21.52a1.89 1.89 0 0 0 -.12-1.77 2.09 2.09 0 0 0 -1.46-1.18 36.71 36.71 0 0 0  1.35-7.49 1.22 1.22 0 0 0  .9-.74c.2-.46-.31-1.85.78-1.56.16 1 .08 2 1.34 2 .23-1.41-.84-2.71-1.25-4-.35-1.11-.82-2.1-1.86-2.29a36.58 36.58 0 0 0 -2.71-10.58c2.29 0 4.6.06 6.9.06a22.33 22.33 0 0 1 1.66 3.19 19 19 0 0 0  1 2.58 11.75 11.75 0 0 1  1.62 3.32 32.92 32.92 0 0 1  .31 3.91 13.16 13.16 0 0 1 -.42 2.88c-.26 1.79.22 3.67.21 5.47a24.41 24.41 0 0 0  .74 4.84c.34 1.69-.78 3.29-1 4.94-.12.85.14 1.79.08 2.57-.07 1-.59 1.4.15 2.09l-1.51 1.35a53.34 53.34 0 0 0 -6.69-9.63m-.88.9a40.85 40.85 0 0 1 4.4 5.87l-.82.48-3.89-6.2a2.09 2.09 0 0 0  .27-.14m9.6 15.9l-2.65-4.22.51-.46c.71 1.42 1.43 3 2.14 4.68m2.25 1c-.57-1.57-1.71-3.27-3.42-6.6l2.13-1.95a3.11 3.11 0 0 0  .33.31c.63.49 1.35.93 2 1.36 1.2.76 2.37 1.59 3.63 2.32.95.55 1.85 1.45 2.86 1.95zm11.84-9.41a31.51 31.51 0 0 0 4-2.65l.71-.61-.38 6.55a1.09 1.09 0 0 0 -.19-.56 6 6 0 0 0 -1-.68 6.86 6.86 0 0 1 -.86-.86 3.07 3.07 0 0 0 -2.33-1.18m17.08-13l1.13 4.24a7.63 7.63 0 0 0 -1.17.28zm-9.86 6.41s0-.07 0-.11l3.28.63.14 1h1.14l.07 2-4.85-2.57a3.06 3.06 0 0 0  .29-.9m9.95-14h0v .1zm-4.87.75l1.24-.75h.25l-.38 13.56-5.3-.65s0-1.51-.48-2a1.48 1.48 0 0 0 -1.12-.22 18.2 18.2 0 0 1 -.32-3.39c0-.56 0-1.12 0-1.67l5.81-5.19zm5.21-62.85h.22l1-1.41.07 20.51-1.72.88zm44.78-.23s-2.54-1-3.76-.14l-33.34-21.73a2.81 2.81 0 0 0 0-1.27l-4.94-3.5a2.61 2.61 0 0 0 -1.49.6l-5-3.27.13-.14-1.82-1.32a2.21 2.21 0 0 0  .07-.42c.3-.18.65-.48.58-.88 22.24-5.2 21.26-6.69 21.26-6.69-1.74-1.29-11.6.23-18.29 1.45a11.53 11.53 0 0 0 -6.46-.46c-.14-.69-.6-2.63-1-2.58s-.14 2 0 2.75l-.41.07c-2.9.51-5.56 2.86-6.39 3.65-15.83 4.43-16.2 6.1-16.2 6.1s1.23 1.59 21.85-2.93a2.6 2.6 0 0 0 2.53 1.9 2.64 2.64 0 0 0  1.3-.34l1.72 1.16.25-.27 5.29 3.46a3.23 3.23 0 0 0 0 .66l.39 3a2.68 2.68 0 0 0 -1.29.59v-1.84h-.82l-.09 3.31-1.76.19.07.48 1.65-.07c0 .09 0 .17 0 .25l-.07 2.58a2.3 2.3 0 0 0 -.91.47l.14 2.33h.41v2.4h-.89v1.8a13 13 0 0 0 -2.43.69c-14.12-.67-17.28 1.29-17.28 1.29-3.06 2.12 12.9 4.28 19 5 .41.83.88 1.71.88 1.71h.06l-.39 21.36-1.14.58h-.86l-.67-5.66c.7.07 1.22.17 1.22.17l.07-.55.41-.14v-.48l-.62-.14-.07-.76a4.68 4.68 0 0 0 -1.06-.32l.08-3.05a3.23 3.23 0 1 0 -4.58-4.42l-3.31-.68c0-.3 0-.51-.13-.53s-.32.16-.47.41l-1.34-.27c0-.32 0-.61-.11-.61s-.25.22-.4.51l-13.19-2.71-.18-6.57a5.41 5.41 0 0 0 1.68-3.87c-.07-1.31-1-1.24-1-1.24v-2l .41-.27-.78-.78c1.34-5.87-1.87-8.6-4.62-9.84 0 0 0-.06 0-.09a.53.53 0 0 0 -.45-.58.46.46 0 0 0 -.4.33c-.38-.14-.73-.25-1.05-.33a4.78 4.78 0 0 0 0-.62 8.64 8.64 0 0 0 -.27-2.61 4.61 4.61 0 0 0 -.6-1.39c-.35-.44-.64-.47-.84-.95-.38-.9-.36-1.9-.84-2.81-1-2-.95-4.11-1.58-6.17-.55-1.79-.86-4-1.93-5.64-.52-.79-1.22-1.4-1.68-2.2a3.94 3.94 0 0 0 -2.35-1.62 17.21 17.21 0 0 0 -2.46-1c-.29-.74.62-1.94.06-2.53s-1.34-.28-2-.13c2.62-16.6 1.77-17.09 1.77-17.09s.63-1.07-.19-1.16-.43 1.09-.43 1.09c-1.27 2.25-2.87 17.63-2.87 17.63h-.06c-.37 0-.59-.44-1-.54a1.12 1.12 0 0 0 -1.33 1.5 9.7 9.7 0 0 1 -2.72-.56c-.36-.15-2.07-.9-1.58-1.38.32.3.7.09 1 .41.2-.48.5.07.84.06.51 0 .35-.37.69-.45s.48.29.61.27c.38-.07.28-.46.29-.83 1 0 1.3-.09 1.09-1.15a2.21 2.21 0 0 0  .61.84 7.53 7.53 0 0 1 -.35-3.06c.09.16.12.11.21.19.09-.59-.06-1.16.06-1.72a8.22 8.22 0 0 0  .43-1.7 12.15 12.15 0 0 0 -.41-2.34c-.13-.71.17-1.13.16-1.81.72-.14.25-1.21.18-1.68a2.56 2.56 0 0 1  .14-1.9 2.25 2.25 0 0 1  .21.37 23.44 23.44 0 0 1 -.33-4.64c0 .1.15.32.2.45.14-1.53-1.21-2.89-1.57-4.36a3.19 3.19 0 0 1  .41.17c-.6-1.27-2-2.19-3.11-3-.54-.39-.73-1-1.24-1.37a5.89 5.89 0 0 0 -2.16-.62 1.94 1.94 0 0 0  .73-.28 10.08 10.08 0 0 0 -3.28-.3c.18-.39 1.08-.75.39-1.07s-1.45.42-1.79.82a5 5 0 0 1 -.66-1.4 1.7 1.7 0 0 0 -.62.85 1.56 1.56 0 0 0 -.74-.59c-.07.59.43 1 .53 1.57-.92-.43-2.05-1.88-3.15-1.7a5.54 5.54 0 0 1 1.16 1.28 8 8 0 0 1 -2-.19 6.38 6.38 0 0 0 -2.2.41 8.59 8.59 0 0 0 -2.2.9 11.33 11.33 0 0 0 -2.63 2.11c-.3.34-.69.56-1 .91s-.49.89-.83 1.29-.82.7-1.18 1.1a5.94 5.94 0 0 0 -1.14 2.82c0 .39.12 1 .11 1.37s-.23 1 .13 1.31a1.28 1.28 0 0 0 -.56 1.37c.07.68.21.63.59 1.17a1.09 1.09 0 0 0  .89 1.92s0 .08 0 .13a1.36 1.36 0 0 0 1-.24 1.07 1.07 0 0 0  .18.53 2.53 2.53 0 0 1  .76 2.4 10.94 10.94 0 0 0 -.05 1.72c0 .53-.27 1-.27 1.51a11.31 11.31 0 0 0  .82 2.75 17.83 17.83 0 0 0  .91 2.81 6.24 6.24 0 0 1  .62 1.36c.07.62-.48.5-1.05.63a8.72 8.72 0 0 1 -3.09.47 13 13 0 0 0 -3.23-.19 14.05 14.05 0 0 0 -2.61.85c-.81.29-1.66.49-2.47.78a4.61 4.61 0 0 0 -1.49 1.12c-1.45 1.24-3 2.33-4.33 3.71a10.64 10.64 0 0 1 -5 3c .17-.36.14-.58.47-.75s.65 0 1-.15c0-.06 0-.12 0-.18.56-.08 1.48-.59 1.28-1.31h-.06a2.5 2.5 0 0 1  .34 0 .76.76 0 0 0  0-.94c.45.17.55-.23.94-.37a4.89 4.89 0 0 0 1.17-.54 3.46 3.46 0 0 0  .93-.93 3.65 3.65 0 0 0  .48-1.31c.12-.63.09-.59-.31-1.16a21.79 21.79 0 0 1 -1.1-2.1c9-17 8.4-18.69 8.4-18.69s1.31-.94.3-1.41-1 1.2-1 1.2c-1.07.86-7.09 13-9.1 17.13a3.44 3.44 0 0 0 -.85-.58c-1.21-.57-1.63-.05-2.75.41a6.8 6.8 0 0 0 -1.59.55 5.66 5.66 0 0 0 -.9 1.17 9.63 9.63 0 0 0 -1.51 2.43c-.15.46-.12 1-.29 1.43a3.87 3.87 0 0 1 -1 1.83c-.56.46-1.25.72-1.79 1.21s-.72.84-1.11 1.24a12.23 12.23 0 0 0 -1.81 2.12c-.5.83-.89 1.8-1.3 2.67-.55 1.17-1 2.38-1.46 3.57a10.8 10.8 0 0 0 -.35 3.36c-.1 2 1.86 3.64 3.64 4.12 2 .53 4-.47 5.89-.83s3.62-1.63 5.51-2.21 3.62-2.09 5.42-3.05 3.63-1.54 4.93-3a6.68 6.68 0 0 1  .15 1.49 6 6 0 0 0  .42 1.37c.31.92.38 1.85.74 2.77 1 2.63 1.18 5.55 1.46 8.33v.51c-3.22-1.91-10.07-4.87-21.37-4.73-16.58.2-21.12 4.12-22.87 6h-.72v1.09l.14.27.07 2.47a.91.91 0 0 0 -.89.69 11.78 11.78 0 0 0  .76 3.71c.2.34.55 0 .55 0a1.94 1.94 0 0 0  .69.76l-.48 12.91s-2.2.82-2.06 4.53a2.68 2.68 0 0 0  .68 1.24v1.85l-.1 1-.21 1.3s-13.8-1.58-22.39-.07l-.41.14-.21.89a.92.92 0 0 0 0 1.17l-.23 2.49-.76.27s-.41 4.39 1.72 5.91l-2.47 28.47s-2.27.76-3 5c0 0 .21.75 2.54 1.79l-.34 2.54 6.66.76-2.13 18.2-6.87 3.78-1.35 7.72-1.37.48.62.34-.69 2.47a4 4 0 0 0 2.88.34l.21-2.54.62-.27-.89-.62.82-7.14 6.94-3.91 2.33-18.68 6.46.69-.82 15.93 1 4.19-.41 7.14-1.24.41.62.41-.34 2.82a4.25 4.25 0 0 0 2.68.14l-.21-2.81.89-.48-1.17-.34v-7.28l-1-4.19 1.07-15.89s11.61 1.17 23.14 1.79h1a36.73 36.73 0 0 0 1.2 6.27l-2.28.56.21 1-2 .76s-1.51-.62-1.17.62 1.44 0 1.44 0l1.65-.75.55.34-13.74 20.15s-1.17-.55-1.58-.27-.34 1 .69 1.86a2.41 2.41 0 0 0 2.47.2 10.26 10.26 0 0 1 -.82-1.37l13.12-19 2.36-1.21a37.16 37.16 0 0 0 7.68 12.4c-.74 2.42-.76 4.57 2.71 5.13-.88 1.5-3.07.55-4.46 1.33-2.46 1.39-1.25 2.61-1.46 5.06 2.34 1.15 7.29-1.45 9.64-2 1.76-.44 3.91-.76 5.86-1.44a.79.79 0 0 0  .53.48 1.72 1.72 0 0 1  1.1 1l-2.27.76.34.48 2.34-.69c.55.41 1.24-.14 1.24-.14l2.28-.43a38.43 38.43 0 0 0 20.23-.19l.5.63-2.2.14.07.48 2.06-.14a1.6 1.6 0 0 0 1.51 0l2.88-.14-.14-.48h-2.4l.09-1.25c3.53-1.25 6.82-1.85 9.77-4l5.66-.37 12.06-7 1.71 2.69-.86.77-2.91 7a1.14 1.14 0 0 1 -.11-.17l-1.69 2.46c2.06 1.58 3.3.82 3.3.82l.2-2.33h-.19l3.2-7 3.78 4.79-1.57-.12.07 1.79 2.2.19c-.27.34-.61.82-.48.91a6.57 6.57 0 0 0 1.17.34l1.37 1.58.41-.2.89.41-.27-.69.27-.55-.95-1.6c3.29.26 7.51 1.7 9.74 1.66a87.38 87.38 0 0 0 9.89-1l-1-2.13v-1.92s5.63-1.51 6.52-3.57c.12-.28.23-.51.33-.7l.57.08-.41 5.49-1.58.14-.41 2.81 1.79.14s1.44.75 2.27.07l2.4.27v-2.7l-1.72-.27.14-11.47 2-2 2.34 8.78.34 8.24a3.26 3.26 0 0 0 1.44 0l-.21-8.45-2.46-9.5.34-.18 3-2.88v0l7.27 12.6.68 5.37-.27.2.07 2a3.44 3.44 0 0 0 2 .62v.62a9.06 9.06 0 0 0 3-.48l-.89-2.54-.2.09-1.38-6.49-2.32-3.81 3.35 4.43 2.16 5.26h-.1l.27 2.68a4.61 4.61 0 0 0 2.61-.07l-.76-2.82a1.06 1.06 0 0 1 -.23.17l-1.91-5.89-15.67-20.81-4-6.6.09-.73h-1.23l.2-31.37h1l .7.63.06 18.32 2.34-.07-.09-21.56h1.74l-.21-3.09-1.55-.08-.1-23.69c16.3.14 16.81-1.08 16.62-1.71-.39-1.29-2.76-3-16.65-4.31v-5.51h.26l-.36-2.93-.14-.48-.39-.14a2.68 2.68 0 0 0 1.15-2.2 2.56 2.56 0 0 0  0-.34l2.84-1.72.09-.08 33.52 21.96-.12.48 2.06 2.41 6 3.85a1.44 1.44 0 0 0 2-.34 22.66 22.66 0 0 0  1.44-3.09s-5.7-4.05-7.07-4.53" fill="#fff"/><path d="m78.53 251.06c.22-1.47.24-3.25 1.15-4.38a45.52 45.52 0 0 0 3.72 3.21c.66.47 1.34.76 1.95 1.25a17 17 0 0 1 4 5.57 5.19 5.19 0 0 0  1.21 1.56l-12.56 13.36c-.12-1.59.08-3.16 0-4.77-.07-1.94.55-3.82.28-5.83a21 21 0 0 1 -.27-5c .14-1.63.22-3.25.47-4.92m54.71 145.62c-2-.6-4.05-1.44-5.95-2-1.08-.34-1.49 0-2.17-.85a5.22 5.22 0 0 1 -.88-2.33c-.45-2.22-1.64-3.81-2.72-5.82-1.16-2.17-1.18-4.85-2.35-7a23.76 23.76 0 0 1 -2.67-5.91c-.46-2-1.37-3.85-2-5.82s-.72-3.91-1.49-5.74-1.58-3.26-2.19-5a23.6 23.6 0 0 1 -1.55-6.46 26.28 26.28 0 0 0 -1.29-7.15c-1-3.17-3-5.89-4.08-9.06-1.24-3.81-1.79-7.83-3.46-11.45-1.2-2.6-1.67-5-3.62-7.35-1.36-1.61-3.26-3-3.45-5.23a8.43 8.43 0 0 0 -1.2-3.67 10.57 10.57 0 0 1 -1.45-3.91 9.91 9.91 0 0 0 -.76-3.27c-.49-1.27-.42-2.77-1.13-3.95a10 10 0 0 0 -2-2.53c-.77-.62-2-.67-2.64-1.3 1.59-.83-.8-4.56-1.51-5.74a30.59 30.59 0 0 1 -2.45-5.28l15.11-17.14a6.47 6.47 0 0 0  .88.36c2.8.86 7.34-.11 9.87-1.73s4.73-3.57 7.58-4.8c1.71-.74 1.88-2.6 2.16-4.41.13-.87 0-1.7 0-2.58.18-2 .16-4.36-1.75-5.55a4.27 4.27 0 0 0 -1.83-.52l2.44-2.77h0c2.18-1.41 6.23-.2 6.23-.2a10.26 10.26 0 0 1  .64-3.56l.43.34a1.27 1.27 0 0 0  .46 1.08.95.95 0 1 0  1.21-1.36 1.21 1.21 0 0 0 -1.26-.29l-.59-.47a23.6 23.6 0 0 1 1.68-3.35l.44.34a1.23 1.23 0 0 0  .43 1.14 1 1 0 1 0  1.31-1.48 1.18 1.18 0 0 0 -1.33-.23l-.48-.38a40.59 40.59 0 0 1 2.45-3.46l.57.42a1.91 1.91 0 0 0  .52.7c.49.44 1.07.6 1.3.35s0-.81-.5-1.25a1.56 1.56 0 0 0 -1-.46l-.41-.31c.88-1.09 1.51-1.76 1.51-1.76-2.45-.76-6.25-4.82-6.25-4.82a13.66 13.66 0 0 1 -1.47 1.92l-.41-.3a1.2 1.2 0 1 0 -.42.56l.34.26a28.06 28.06 0 0 1 -3.14 2.73l-.89-.7a1.47 1.47 0 0 0 -.52-.92c-.5-.44-1.12-.55-1.4-.23s-.1.92.39 1.36a1.31 1.31 0 0 0 1.15.38l.68.54c-1.07.78-2.14 1.48-3.14 2.09l-.72-.58a1.25 1.25 0 0 0 -.45-1.12 1 1 0 1 0 -1.26 1.41 1.19 1.19 0 0 0  1.29.26l.5.4c-2.18 1.3-3.83 2.08-3.83 2.08a10.32 10.32 0 0 1 1.54 5.34l.06.12-3.3 3.5c-1.25-.64-2.23-.83-1.76.56.06.07.15.09.21.17a1 1 0 0 0 -.65 1.62l-5.5 5.79c-1.7-.17-2.28-1.27-3.47-2.7a4.69 4.69 0 0 1 -1.09-4.57 2.23 2.23 0 0 0  0-2.17 31.65 31.65 0 0 0 -2.88-4.68c-1-1.69-1.73-3.57-2.74-5.27a19.67 19.67 0 0 0 -2.42-3.24c-1.48-1.66-2.19-3.84-3.63-5.5a10 10 0 0 0 -5.07-3.01 20.81 20.81 0 0 0 -5-.86c-.86 0-7.86 0-6.42-2.47a3.82 3.82 0 0 0 3.68.4c.84-.45 2.13-1.91 1.83-3-2-.7-1.73-2.46-1.25-4.08a3.67 3.67 0 0 0  .16-1.24c0-.19-.39-.32-.37-.55s.3-.34.35-.51a3.2 3.2 0 0 0  .18-2.09c.61-.57 1.64-.94 1.79-1.87s-.78-1.79-.52-2.78 1.35-1.47 1.41-2.58c0-.82-.6-1.44-.74-2.2a9.58 9.58 0 0 1  .1-2.16 14.14 14.14 0 0 0 -1-5.42c-1.08-2.89-5.32-4.58-8-5.54a8.37 8.37 0 0 0 -3.1-.46 17 17 0 0 0 -6 .86 16.36 16.36 0 0 0 -4.47 2.38c-1.25.9-2 2.43-3 3.62-.61.71-.59 1.4-1.32 2a5.7 5.7 0 0 1 -2.25 1c-1 .09-1.72-.53-2.62 0s-.57 1-.13 1.89a3.34 3.34 0 0 0 -1.61 2c-.42 1.12-1.18 1.65-1.78 2.65.33.15.72.31 1.08.44-.59.6-.73 1.18-.13 1.84-1.22 1-.52 2.3-1 3.61-.43 1.13-2 1.56-3.09 1.91.55 1 2.66 2.21 3.59 3.09-1.11.38-3.33 1.39-3.62 2.61.84.07 1.6-.64 2.42-.78.11.58-.36 1.1-.77 1.5a4.87 4.87 0 0 1 2.49.42 3 3 0 0 1 -.78.44 2.42 2.42 0 0 1  1 .64 2.55 2.55 0 0 1 -1.2.5 17.35 17.35 0 0 0  1.6.73c-.56 1-2.61.86-3.59.63.15 1.86 2.07 1.15 2.94 2-1.59.48-3.16 1.24-4.76 1.76a8.89 8.89 0 0 0 -4.46 2.68 26.42 26.42 0 0 0 -3 4.52c-.73 1.51-.62 3.48-1.21 5.1a49 49 0 0 0 -3.19 14.09c0 .78.38 1.58.35 2.4s-.17 1.78-.17 2.68a54.06 54.06 0 0 1 -.46 5.45 55.45 55.45 0 0 0 -.4 5.58c0 2.81-.87 6 .53 8.63a12 12 0 0 0 2.09 2.68 30.62 30.62 0 0 1  2.21 2.48c.65.88.88 2 1.45 3s1.5 1.85 2.17 2.84 1.57 2.88 2.76 3.28a12.49 12.49 0 0 0 -.37 3.44c-.06 1.23-.61 2.33-.66 3.55s.06 2.46-.08 3.75a36.89 36.89 0 0 1 -1.1 6.53c-.67 2.22-1.36 4.25-2 6.51a16 16 0 0 0 -.79 3.63 26.26 26.26 0 0 1 -.32 3.95c-.93 4.7-.9 9.45-2.37 14.1a10.49 10.49 0 0 0 -.68 3c0 .68.56 1.3.63 1.88a7 7 0 0 1 -.71 2.81 31 31 0 0 0 -.86 3.17 15.79 15.79 0 0 1 -2.76 5.08 13.35 13.35 0 0 0 -2.18 5c-.39 1.9 1.8 3.57 1 5.32s-3.44 2.45-4.21 4.53c-.61 1.66-.8 3.5-1.45 5.08-.73 1.77-1.82 3.32-1.73 5.26.11 2.42-.94 3.74-1.59 5.87a42.85 42.85 0 0 0 -1.28 5.45c-.62 3.87-1.56 8-3.6 11.32-.47.76-.73 1.49-1.16 2.27-.23.43-.48.44-.59 1s .23.86.16 1.32c-.33 2.27-5.82 4.87-3.45 7.35 1.27 1.32 2.59.17 1.53 2.34a17.49 17.49 0 0 0 -1.38 5.32c-.08.55-.65 2.08-.19 2.59s2.22.31 2.82.39c2 .29 3.84.57 6 .89.94.14 1.92.06 2.79.18s1.66.72 2.51.47c-.2-1.11.36-3.63 1.34-4.15 1.16-.62 2.46-.37 3.56-1.14a19.34 19.34 0 0 0 2.65-2.48 25.18 25.18 0 0 0  4.3-6.38 64.3 64.3 0 0 0  4.69-11.54c.48-1.91 1.1-3.85 1.57-5.76.59-2.35.6-4.84 1.07-7.22.89-4.51 1-9.7 3.91-13.42a61.19 61.19 0 0 0 3.74-5c .88-1.4 1.25-3.1 2.18-4.46 1.26-1.85 1.87-3.89 3-5.81.82-1.38 1.82-2.78 2.6-4.19s1.53-2.94 2.34-4.47 1.15-3.35 1.9-5 1.86-3.29 2.68-5a22 22 0 0 1 2.52-4.47 2.69 2.69 0 0 1  4.21.16c.61.86.17 1.35 1.11 2.05a5.09 5.09 0 0 1 1.66 1.63 52.94 52.94 0 0 0  8.27 9.75 41.33 41.33 0 0 1  5.61 6.43 18.36 18.36 0 0 0  1.86 2.9 26 26 0 0 1  2.71 2.54c1.11 1.51 1.44 3.64 2.45 5.24s2.34 3.09 3.25 4.74a18.8 18.8 0 0 1 2 5.81c.34 2.24 1.36 3.14 2.51 5 1 1.66 1 3.83 1.41 5.68a34.32 34.32 0 0 0 1.71 5.89c.85 1.93 2 3.8 2.75 5.72.33.81.51 1.58.85 2.36a22.64 22.64 0 0 0 2.89 4.64 11.08 11.08 0 0 0  2.25 2.42 3 3 0 0 1  1.61 2.59c.05 1.24-.84 2-1.26 3.1-.7 1.9.64 3.33 2.21 3.94a19.58 19.58 0 0 0 2.49.64c1.5.38.92.63 1.5 1.75s3.18.11 4.49 0a50.82 50.82 0 0 0 5.15-.9c3.21-.61 5.7-2.94 8.65-4.2 2.1-.89 5.2-1.89 5.87-4.38.76-2.81-1.3-4.57-3.75-5.32" fill="#fff"/><path d="m1060.74 134.54c-.09-.49-.17-1-.23-1.7a11.4 11.4 0 0 0 -1.19-3c-1.17-2.71-2.51-5.39-3.68-8.12l-.33-1.22h16.69zm1.82 54.06a17.23 17.23 0 0 1  .57 2.48c.45 1.25 1.17 1.08 1.73 2.09.4.72 0 1.74.33 2.51.19.42 1.33 1.26 1.7 1.69s.46 1.14 1.23 1.5c-.16.53-.38 1.12-.61 1.75l-28.06-35.38 8-10.1a24.51 24.51 0 0 0 2.1 3.4c4.28 4.81 6.61 11.26 8.91 17.14 1.23 3.14 1.55 6.34 2.37 9.53a18 18 0 0 0 1.72 3.39m-35.47-38.93h17.57c.48 1 1 2.11 1.57 3.16l-8.31 10.48zm-7.51-9.47l.81-1a13.11 13.11 0 0 0 1.67-2.88c1.12-2.84 1.36-4.56 4-6.41 2.14.12 4.11-2.52 6.26-2.08s3.59 2.81 4.77 4.32a26.12 26.12 0 0 1 3.39 4.91c.44 1.26.92 2.75 1.36 4.21q.16.6.35 1.19c.27 1 .51 1.9.68 2.71a11.48 11.48 0 0 0  .59 1.68h-18.53zm28.34-67.2l1.5 1 .58-.7.19.27a3 3 0 0 0  .26.53 11.47 11.47 0 0 1  1.14 2.05 12.37 12.37 0 0 0  2.52 4.37c.28.31.58.66.86 1 1.32 1.77.76 3.89.34 5.86-1 4.72-.23 9.58-1.22 14.29-.12.58-.45 1.51-.72 2.38l-.76 1.22h-.75v-1.22a38.9 38.9 0 0 1 -.55-5.71 2.1 2.1 0 0 1 -.75-1.31c-1.41-7.38-3.86-14.7-2.91-22.29 0 0 0-.09 0-.13a2 2 0 0 1  .22-1.64m-36 20.88a8.27 8.27 0 0 1 -.58 3.66l-.35-.41-8-11.56-1.63-2c-.57-1.39 0-1.6.8-3.1a24 24 0 0 0 1.39-2.95l.19-.35c1.56-3.2 2.27-4.43 2.54-4.85a7.4 7.4 0 0 0 1.53 1.2 15 15 0 0 1  1-2.31l.47-.5c.32 2.2 1.25 4.19 1.44 6.35a13.91 13.91 0 0 0 1.12 5.3c1.71 3.93-.27 7.83.1 11.51m51.33 11.42v-1.22q0-.68 0-1.36c.91-4.71 2-9.51 2.33-14.31s.53-9-1.66-13.24a49 49 0 0 1 -2-4.7c-.4-1-1.52-2.87-1.55-4-.05-1.94 1.36-2.66.5-4.8-1.3-3.25-4-5.66-5.59-8.78-2-4-3.25-9-7.4-11.4a28 28 0 0 0 -5.93-2.25 13.65 13.65 0 0 1 -1.67-.65 1.61 1.61 0 0 0  .17-.55 7.15 7.15 0 0 1  .9-.08 2.45 2.45 0 0 1  1.23-1c .19-.73.55-1.35.77-2 1.61 1.12.91-.42 1.48-1.05-.11.12 1.41-1.72 1.29-1.37.34-1-.25-1.38-.08-2.23s.9-1.09 1-1.93c.21-1.77-.43-2.73.49-4.57a22.08 22.08 0 0 0 1.24-2.16c0-1.06-1.21-1.64-1.24-2.65s.89-1.34.93-2c .07-1.26-.56-1.08-.93-2.16-.81-2.39-.38-2.33-2.69-4.08a26.37 26.37 0 0 1 -3.62-3.61 10.91 10.91 0 0 0 -1.78-1.81c-.63-.53-1.12-.36-1.51-1.22-.55.1-1.32-.19-1.88-.08-.61-1.86-1.82-.73-3-1.38s-.66-2.44-2.64-1.49c-.59-1.28-1.59-1-2.57-.4h.07a2.48 2.48 0 0 1 -.54 0 4 4 0 0 1 -.65-.72 9.72 9.72 0 0 0 -3.68.59c-1 .3-1.75-.14-2.7 1.19a9 9 0 0 0 -6.26.61c-.64.43 0 1.4-.37 1.78s-1.26.24-1.55.5c-.13.11-1 1.26-1.11 1.32-.34.17-1.15-.14-1.27 0a16 16 0 0 0 -3.52 4.49c-.08.22.77 1.07.68 1.57s-1.2.71-1.35 1.23a9.58 9.58 0 0 0 -.1 3.07 2.4 2.4 0 0 0 -1.5 3.12c.44 0 .81.32 1.24.35a6.35 6.35 0 0 0 -.45 2.77c.45 0 .87.32 1.26.36-2.24 1.87-.62 3.07.09 4.81.38.94-.18 1.43.21 2.66s.13 1.93 1.82 1.6c-.14 3 1.56 1.88 2.22 3.83a2.57 2.57 0 0 1  .43-.29 2.42 2.42 0 0 0  1.85 1.08c.12.21-.07.45.07.65s.6 0 .9.08c.66.61.65.85 1.72.29a1.46 1.46 0 0 0 0 .75c-3 1.75-5.74 4.07-9.59 4.36.07 1.58-2.42 1.4-3.49 2.32a26.92 26.92 0 0 0 -4.23 5.7c-2.42 3.93-3.43 8.71-5.72 12.68l.16.13c-.45.42-.84 1.48 1.32 3.93-2.19 4.68-5 11-5.26 13.44-.5 4.15 15.7 20.76 15.7 20.76s-1.12-.18-1.26 2.32l-.28 1.22h-57.55l-1 1.48 1.5 8.85 6.52 2.46h46.87l3.88 4.89-.54 1.31a16.48 16.48 0 0 0 -1.28 4.55c-.45 4.36-2.37 8.07-3.6 12.33a62.35 62.35 0 0 1 -6.22 14.85 10 10 0 0 0 -1.24 5.29 27.29 27.29 0 0 1 -1.76 7.52c-1.48 4.42-2.94 8.77-4.54 13.17-.3.82-1.1 1.63-1.33 2.38s.15 1.91-.05 2.47c-.3.81-1.38.93-1.49 1.93s.82 1.39 1.21 2.3c2.31 5.4-10.42 19.9 1.23 21 3.24.32 8.3.87 9.48-2.65 1.05-3.14-1.31-7.72-2.21-10.61.76-.36.81-1 1.23-1.5s1.52-1.27 1.71-1.69c.34-.76-.07-1.79.33-2.51.56-1 1.28-.85 1.73-2.09a17.31 17.31 0 0 1  .57-2.48 18 18 0 0 0  1.73-3.39c.82-3.19 1.14-6.39 2.37-9.53 2.3-5.88 4.63-12.33 8.91-17.14 1.35-1.51 2.68-2.08 3.13-4.19.86-4.11 1.49-6.82 4.18-10.3.25-.33.52-.65.8-1l .81-1 3.81 4.8h-1.34a1.39 1.39 0 1 0 0 2.78h3.49l12.35 15.57-35.35 44.68h-3.8a2.1 2.1 0 0 0 -2.12 2.08v3.57a2.1 2.1 0 0 0 2.12 2.08h3.64a2.1 2.1 0 0 0 2.12-2.08v-3.57a2.07 2.07 0 0 0 -.07-.54l35-44.17 28.63 36.09c-.72 2.15-1.24 4.41-.63 6.21.9 2.69 4.07 3 7 2.86v3.11a2.1 2.1 0 0 0 2.12 2.08h3.64a2.1 2.1 0 0 0 2.12-2.08v-3.57a2.06 2.06 0 0 0 -1-1.78c2.94-4.43-4.95-14.67-3.09-19 .39-.91 1.33-1.19 1.21-2.3s-1.19-1.12-1.49-1.93c-.21-.56.2-1.63-.06-2.47s-1-1.56-1.33-2.38c-1.6-4.39-3.07-8.74-4.54-13.17a27.29 27.29 0 0 1 -1.76-7.52 10 10 0 0 0 -1.23-5.29c-2.82-4.81-2.75-9-4.32-14.5a33.24 33.24 0 0 0 -1.54-4.17l13.38-16.85h9.76l4-1.79c.27-.74.55-1.5.88-2.27a9 9 0 0 0  .48-1.93 13.87 13.87 0 0 1  .46-2 10.55 10.55 0 0 1  1.54-2.76 10.13 10.13 0 0 0  1-1.64c.24-.54.71-1.59 1.37-2.83z" fill="#fff"/><path d="m420.12 524.19h-360.94v-127.24h2v125.24h358.94z" fill="#fff"/><path d="m60.13 398a7.27 7.27 0 1 0 -7.27-7.27 7.27 7.27 0 0 0  7.27 7.27"/><path d="m60.13 398.47a7.77 7.77 0 1 1 7.77-7.77 7.78 7.78 0 0 1 -7.77 7.77zm0-14.54a6.77 6.77 0 1 0 6.77 6.77 6.78 6.78 0 0 0 -6.77-6.77z" fill="#fff"/><circle cx="60.13" cy="390.7" r="7.27"/><path d="m60.13 398.47a7.77 7.77 0 1 1 7.77-7.77 7.78 7.78 0 0 1 -7.77 7.77zm0-14.54a6.77 6.77 0 1 0 6.77 6.77 6.78 6.78 0 0 0 -6.77-6.77z" fill="#fff"/><path d="m837.67 505.31h-2v-360.93h127.25v2h-125.25z" fill="#fff"/><path d="m957.07 145.41a5.85 5.85 0 1 0 5.84-5.84 5.84 5.84 0 0 0 -5.84 5.84"/><path d="m962.92 151.75a6.34 6.34 0 1 1 6.35-6.34 6.35 6.35 0 0 1 -6.35 6.34zm0-11.69a5.34 5.34 0 1 0 5.35 5.34 5.35 5.35 0 0 0 -5.35-5.34z" fill="#fff"/><circle cx="962.92" cy="145.41" r="5.84"/><path d="m962.92 151.75a6.34 6.34 0 1 1 6.35-6.34 6.35 6.35 0 0 1 -6.35 6.34zm0-11.69a5.34 5.34 0 1 0 5.35 5.34 5.35 5.35 0 0 0 -5.35-5.34z" fill="#fff"/><path d="m613.49 481.62h-2v-358.94h-125.24v-2h127.24z" fill="#fff"/><path d="m492.1 121.71a5.85 5.85 0 1 1 -5.84-5.84 5.84 5.84 0 0 1  5.84 5.84"/><path d="m486.25 128.06a6.34 6.34 0 1 1 6.34-6.34 6.35 6.35 0 0 1 -6.34 6.34zm0-11.69a5.34 5.34 0 1 0 5.34 5.34 5.35 5.35 0 0 0 -5.34-5.34z" fill="#fff"/><circle cx="486.25" cy="121.71" r="5.84"/><path d="m486.25 128.06a6.34 6.34 0 1 1 6.34-6.34 6.35 6.35 0 0 1 -6.34 6.34zm0-11.69a5.34 5.34 0 1 0 5.34 5.34 5.35 5.35 0 0 0 -5.34-5.34z" fill="#fff"/><path d="m1197.21 524.19h-360.94v-2h358.94v-125.24h2z" fill="#fff"/><path d="m1196.18 402.8a5.85 5.85 0 1 1 5.82-5.8 5.84 5.84 0 0 1 -5.84 5.84"/><path d="m1196.18 403.3a6.35 6.35 0 1 1 6.34-6.34 6.35 6.35 0 0 1 -6.34 6.34zm0-11.69a5.35 5.35 0 1 0 5.34 5.35 5.35 5.35 0 0 0 -5.34-5.35z" fill="#fff"/><circle cx="1196.18" cy="396.95" r="5.84"/><path d="m1196.18 403.3a6.35 6.35 0 1 1 6.34-6.34 6.35 6.35 0 0 1 -6.34 6.34zm0-11.69a5.35 5.35 0 1 0 5.34 5.35 5.35 5.35 0 0 0 -5.34-5.35z" fill="#fff"/></svg>