<svg xmlns="http://www.w3.org/2000/svg" viewBox="0 0 255.58 315.66"><defs><style>.cls-1{fill:#fff;}</style></defs><title>bottom band</title><g id="Layer_2" data-name="Layer 2"><g id="Background"><path class="cls-1" d="M217.33,162.25a22.84,22.84,0,0,0-1.77,3c-.23.59-.31,1.19-.51,1.76a8.65,8.65,0,0,1-1.83,3.77c-1,.92-2.22,1.46-3.19,2.37-2.5,2.33-5.18,4.21-7.62,6.55-.54.52-.91,1.31-1.54,1.71a7.32,7.32,0,0,1-1.39.6c2.63-3.2,7-8.57,8.48-10.66,1.68-2.35,7.86-10.4,10.61-14,0,.38,0,.76-.06,1.14a9.55,9.55,0,0,1-1.2,3.75m34.11-18c-.12-.61.1-1.63-.22-2.16-.52-.89-1.63-.74-2.44-1.16-.51-.27-.51-.67-.85-1s-.95-.33-1.42-.58-.73-.44-.8-.88c-.14-.89.67-1.61.53-2.5a2.11,2.11,0,0,0-.48-1c-.29-.3-.95-.2-1.15-.46s.33-.79.29-1.24-.66-.47-.63-.86c1,.22.22-.92-.05-1.19a4.91,4.91,0,0,1-1.18-1.61c-.43-1-1.13-1.87-1.64-2.85a15.22,15.22,0,0,0-.7-1.5,10.22,10.22,0,0,0-1-1,13.62,13.62,0,0,1-.81-1.22c-.22-.31-.58-.53-.79-.84s-.09-.78-.26-1.19a12.07,12.07,0,0,0-.67-1,12.23,12.23,0,0,1-.82-1.57,8.82,8.82,0,0,0-1-2.24,6.62,6.62,0,0,0-.74-1,12.39,12.39,0,0,0-1.23-.73,9.5,9.5,0,0,0-2.09-1.25c-.55-.21-.94-.57-1.46-.82a4.5,4.5,0,0,1-1.34-.68c.12-.06.12-.15.28-.18a3.45,3.45,0,0,0-3-1.38,2.09,2.09,0,0,1,1-.3c-.37-.81-5.3.31-5.19,1.1-.4.18-1,0-1.41.25a2,2,0,0,0,.31.06,6.61,6.61,0,0,0-3.3.62,2.29,2.29,0,0,0,.68.18,6.93,6.93,0,0,1-.68.25,11.71,11.71,0,0,0-3.14,1.31c-.35.3-.48.61-.93.83s-1.21.44-1.75.74a29.83,29.83,0,0,0-2.73,1.87,7.44,7.44,0,0,0-1,1c-.34.36-1.3,1.18-1.27,1.67l.72-.4a8.08,8.08,0,0,0-.67,1.25c.11-.09.24-.15.34-.25-.25.68-1,1.22-1.38,1.86a4.51,4.51,0,0,0-.6,2.24,19.09,19.09,0,0,1,1.51-1.7c-.52.75-.27,1.69-.62,2.54a4.75,4.75,0,0,0-.43,1.63,6.4,6.4,0,0,1,.06,1.38l.41-.48a3.12,3.12,0,0,0-.06,1.49c.14.43.48.76.64,1.16.33.83.17,2,.86,2.61,0-.2,0-.41,0-.61.41.43.33,1,.75,1.48s1.54,1.55,1.89,1c0,.07.12.16.14.22l.07-.15c.06,0,.09.07.16.09s0-.09.08-.15a1.08,1.08,0,0,1,.25.13c0-.08,0-.16,0-.24,1.24,0,.85-.94.94-1.9,1.05,1.08.55,7.12,3.21,5.39.06.53-.28.74,0,1.19.18.25.75.26,1,.46.68.52.29,1.6,1.64,1.46,1-.1,1.56-.38,2.09.74.45,1,.49,2.19,1.73,2.19a3.73,3.73,0,0,0,2.47-1.32c-1.09,1.72-.93,3.85-1.8,5.5-.78,1.48-1.6,2.93-2.27,4.46L205,171.14s.17.52-1.4,1.22a2.87,2.87,0,0,0-1.74,2.09l-6.68,9.9a12.17,12.17,0,0,1-2.92,1.32l-14-18.84a4.33,4.33,0,0,0,.23-2.91l-.37-.69.95-1.35s.7.12,1-.35a1.06,1.06,0,0,0-.12-1s-.7-.35-1.11.12a.94.94,0,0,0-.06,1l-1,1-.83-1.55.57-.86a3.93,3.93,0,0,0,.82-.64.68.68,0,0,0,0-.7s-.23-.52-.76-.06a1.15,1.15,0,0,0-.35,1.11l-.57.61-.55-1,.59-.69a1.11,1.11,0,0,0,.64-.35.69.69,0,0,0,0-.7.64.64,0,0,0-.76,0,.8.8,0,0,0-.18.82l-.57.42-1-1.88-1.28-.93a3.69,3.69,0,0,1-2,1.86,6.23,6.23,0,0,0-2.44,1.63l1.73,3.8a1.19,1.19,0,0,0-.6.18.56.56,0,0,0,.74.85.58.58,0,0,0,.21-.27l.63,1.38-.25.29a.87.87,0,0,0-.93.17c-.41.41-.12.7,0,.87a.77.77,0,0,0,1,.06.75.75,0,0,0,.17-.7l.22-.25.68,1.48-.61.57s-.46-.41-.82,0,.12.93.12.93.53.35.82.06a.43.43,0,0,0,.06-.58l.65-.5.28.62.7.35,5,8.61a1.85,1.85,0,0,1,.33.55c-.4.49-1,.7-1.18,1.28s.18,1.25,0,1.89-.76.87-.61,1.75a5.68,5.68,0,0,0,1,1.84c.65,1,1.42,1.79,2.15,2.72a16.14,16.14,0,0,0,7.09,5.47c1.31.56,1.1,1,1.54,2.3.33.92.94,1.89,2.07,1.53a7.48,7.48,0,0,1,1.62,2.28c.22.8-.27,1.17-.43,2-.12.65,0,1.09-.12,1.75a2.67,2.67,0,0,1-2.21,2.33c-1.65.3-3.53,0-4.1,1.95a3.2,3.2,0,0,0,2.36,3.86c1.49.48,3.48.6,4.86,1.3,1.19.62,2,2.13,3.06,2.88-1,1.42-1.06,3.69-1.49,5.35a59.3,59.3,0,0,1-1.8,5.7c-1.29,3.44-1.85,7.2-3.14,10.7-.64,1.71-.6,3.51-1.12,5.25a40.86,40.86,0,0,0-1.72,6.79,17.65,17.65,0,0,0,.73,7.15c1,3.35-.13,6.27-.14,9.57,0,2.73,1.16,5.17,1,8.07-.14,2.72-.3,5.8-.71,8.54a55.11,55.11,0,0,0-1,8.55,23.64,23.64,0,0,0,.86,5.84c.14.53.87,3.92,1.44,4.08.23.07.44.19.64.25-.94,1.09-1.79,1.4-2.07,2.92a9.18,9.18,0,0,1-1.15,3.84c0,.11.2.19.25.3a7.38,7.38,0,0,1-2.08,1.6c-1,.4-2.16.41-3.17.84-2,.85-3.29,2-2.71,4.21,2-.92,5-.69,7.29-.69h15.35c1.68,0,5.51.14,6.9-1.23a10.91,10.91,0,0,0-.2-1.67,5.5,5.5,0,0,1,.23-2,7,7,0,0,0,.31-3.71,14.68,14.68,0,0,1-.34-3.67,11.23,11.23,0,0,0-.26-3.49c-.16-1.18-.21-2.34-.26-3.49-.07-1.59.08-3,.16-4.54a34.25,34.25,0,0,1,.2-4.62c.54-2.86-.6-6.08-.87-8.9a13.63,13.63,0,0,1,.61-4.36c.28-1.42-.26-2.82-.26-4.28V263.7c0-1.22-.7-3.09-.26-4.16-.11,1,.37,1.25.63,2s.16,1.37.41,2a35,35,0,0,0,1.37,4.09,14.29,14.29,0,0,1,1.32,2c.25.71.29,1.46.56,2.18a14.06,14.06,0,0,0,1.64,3.84c.38.47.92.77,1.22,1.31a11.39,11.39,0,0,1,.54,1.81c.42,1.24,1.5,2.43,1.64,3.68.32,2.9-.49,5.83-.35,8.64a42.56,42.56,0,0,0,.17,4.45c.39,2.53,0,5.21.52,7.68.24,1.17-.2,1.87-.26,3-.08,1.26.28,1.85-.54,3a3.66,3.66,0,0,1-2.77,1.41c-1.07.22-2.78.27-3.64,1a2.73,2.73,0,0,0-.54,3.29c.65.89,2.51.44,3.57.44,1.34,0,2.74.18,4.1.17s2.71-.14,4.1-.09,2.79.28,4.1.27a25.83,25.83,0,0,1,4.45-.09,9.31,9.31,0,0,0,3.94-.15c1-.25,3.28-.13,4-1s-.1-3-.16-3.91c-.11-1.77.09-3.56,0-5.34-.05-2.29-.37-4.57-.4-6.87,0-1.53.18-3,.26-4.54a30,30,0,0,0-.44-4.71c-.32-3.14.16-6.22-.79-9.31a16.47,16.47,0,0,1-.61-5,15.76,15.76,0,0,0-1-4.36c-.46-1.53-.53-3-.85-4.54-.44-2.16-1.46-4.25-1.57-6.45,0-.88,0-1.75-.11-2.62-.14-1.41.13-3.21-.66-4.45-.37-.59-.76-.81-.7-1.57a13.63,13.63,0,0,1,.59-2,5.51,5.51,0,0,0-.09-3.93,5.82,5.82,0,0,1-.79-1.74c-.07-.71.13-1.44.09-2.18-.17-2.78-.61-5.71-.79-8.55a16.19,16.19,0,0,1,0-4.19c.13-.67.43-1.25.63-1.92a7.47,7.47,0,0,0,.47-2.07c0-.62-.76-1.2-.57-1.85s1.11-1.09,1.38-1.58a20.83,20.83,0,0,0,1.29-3.85,21.29,21.29,0,0,1,1.48-3.75,7.71,7.71,0,0,0,1.07-3.91c0-1.4.46-2.93.28-4.21a23.74,23.74,0,0,0-1.21-3.65,9,9,0,0,0,3,.37,3.12,3.12,0,0,0,2.27-1.94,29.68,29.68,0,0,0,2.49-8.2,14.27,14.27,0,0,1,1.18-4.17c.3-.59.62-1.19.91-1.79a12.79,12.79,0,0,0,.89-3.47,14.87,14.87,0,0,1,.61-1.74,13.81,13.81,0,0,0,.87-3.14c.19-2.24.54-4.25.78-6.54.14-1.36,1.22-2.67,1.9-3.84a8.2,8.2,0,0,0,1-4.45,33,33,0,0,1,.17-4.54,15.41,15.41,0,0,0,.26-2.27,20.81,20.81,0,0,0-.61-4.8c-.19-.69-.56-1.09-.52-1.65a6.61,6.61,0,0,1,.37-1.9c.39-.72,1.13-.38,1.46-.89s-.12-1.51-.24-2.1"/><path class="cls-1" d="M67.13,173.86c.19-1.26.2-2.78,1-3.75a38.92,38.92,0,0,0,3.18,2.75c.57.4,1.14.65,1.66,1.07a14.57,14.57,0,0,1,3.46,4.76,4.44,4.44,0,0,0,1,1.33L66.71,191.44c-.11-1.36.06-2.7,0-4.08-.06-1.66.47-3.27.24-5a18,18,0,0,1-.23-4.31c.12-1.39.19-2.78.4-4.2M113.9,298.35c-1.68-.51-3.46-1.23-5.08-1.74-.92-.29-1.27,0-1.85-.73a4.47,4.47,0,0,1-.75-2c-.38-1.9-1.4-3.26-2.32-5s-1-4.15-2-6a20.31,20.31,0,0,1-2.28-5.06c-.39-1.74-1.17-3.29-1.69-5s-.62-3.34-1.27-4.91-1.35-2.79-1.87-4.28a20.18,20.18,0,0,1-1.33-5.52,22.47,22.47,0,0,0-1.1-6.11c-.87-2.71-2.61-5-3.49-7.75-1.06-3.26-1.53-6.69-3-9.79-1-2.23-1.43-4.31-3.09-6.29-1.16-1.38-2.78-2.57-2.95-4.47a7.2,7.2,0,0,0-1-3.14,9,9,0,0,1-1.24-3.34,8.47,8.47,0,0,0-.65-2.79c-.42-1.08-.36-2.37-1-3.38a8.52,8.52,0,0,0-1.71-2.17c-.66-.53-1.74-.57-2.25-1.11,1.36-.71-.69-3.9-1.29-4.91a26.15,26.15,0,0,1-2.1-4.51l12.92-14.65a5.53,5.53,0,0,0,.75.31c2.4.74,6.27-.1,8.44-1.48s4-3.05,6.48-4.1c1.46-.63,1.61-2.22,1.84-3.77.11-.75,0-1.46,0-2.2.15-1.67.14-3.73-1.5-4.74a3.65,3.65,0,0,0-1.57-.44L98.09,165h0c1.87-1.21,5.33-.17,5.33-.17a8.77,8.77,0,0,1,.55-3l.37.29a1.09,1.09,0,0,0,.4.93.81.81,0,1,0,1-1.16,1,1,0,0,0-1.08-.25l-.5-.4a20.18,20.18,0,0,1,1.44-2.86l.37.29a1.05,1.05,0,0,0,.37,1,.86.86,0,1,0,1.12-1.26,1,1,0,0,0-1.14-.2l-.41-.32a34.7,34.7,0,0,1,2.09-3l.48.36a1.63,1.63,0,0,0,.44.6c.42.38.92.51,1.11.3s0-.69-.42-1.07a1.33,1.33,0,0,0-.88-.4l-.35-.27c.76-.93,1.29-1.5,1.29-1.5-2.09-.65-5.35-4.12-5.35-4.12a11.68,11.68,0,0,1-1.25,1.64l-.35-.26a1,1,0,1,0-.36.48l.29.22a24,24,0,0,1-2.68,2.33l-.76-.59a1.26,1.26,0,0,0-.45-.79c-.42-.38-1-.47-1.2-.2s-.09.79.34,1.16a1.12,1.12,0,0,0,1,.33l.59.46c-.91.66-1.83,1.26-2.68,1.79l-.62-.49a1.07,1.07,0,0,0-.38-1,.83.83,0,1,0-1.08,1.21,1,1,0,0,0,1.1.23l.43.34C94.41,156.73,93,157.4,93,157.4A8.83,8.83,0,0,1,94.32,162l.05.11-2.89,3.07c-1.07-.54-1.91-.71-1.51.48,0,.06.13.08.18.14a.82.82,0,0,0-.56,1.39l-4.7,5c-1.46-.15-2-1.08-3-2.31a4,4,0,0,1-.93-3.91,1.91,1.91,0,0,0,0-1.85,27.05,27.05,0,0,0-2.46-4c-.89-1.45-1.48-3-2.34-4.51a16.81,16.81,0,0,0-2.07-2.77c-1.27-1.42-1.88-3.28-3.1-4.7a8.53,8.53,0,0,0-4.34-2.61,17.79,17.79,0,0,0-4.21-.73c-.74,0-6.72,0-5.49-2.12a3.27,3.27,0,0,0,3.15.34c.71-.38,1.82-1.63,1.56-2.54-1.74-.6-1.48-2.1-1.07-3.49a3.14,3.14,0,0,0,.13-1.06c0-.16-.34-.27-.31-.47s.26-.29.3-.44a2.74,2.74,0,0,0,.16-1.78c.52-.49,1.4-.81,1.53-1.6s-.66-1.53-.45-2.38S63.11,128,63.17,127c0-.7-.51-1.23-.63-1.88a8.19,8.19,0,0,1,.09-1.85,12.08,12.08,0,0,0-.89-4.63c-.93-2.47-4.55-3.92-6.83-4.73a7.15,7.15,0,0,0-2.65-.4,14.49,14.49,0,0,0-5.13.74,14,14,0,0,0-3.82,2,17.69,17.69,0,0,0-2.6,3.1c-.52.61-.5,1.19-1.13,1.67a4.87,4.87,0,0,1-1.93.82c-.86.08-1.47-.45-2.24,0s-.49.84-.11,1.61a2.85,2.85,0,0,0-1.37,1.7,13.51,13.51,0,0,1-1.52,2.26c.28.13.61.27.92.38-.51.51-.63,1-.11,1.57-1,.83-.44,2-.87,3.09-.37,1-1.71,1.34-2.64,1.63.47.86,2.27,1.89,3.07,2.64-1,.32-2.85,1.19-3.1,2.23.72.06,1.37-.55,2.07-.67.09.5-.31.94-.66,1.28a4.16,4.16,0,0,1,2.13.36,2.56,2.56,0,0,1-.66.38,2.07,2.07,0,0,1,.83.54,2.18,2.18,0,0,1-1,.43,14.83,14.83,0,0,0,1.37.63c-.48.88-2.23.74-3.07.54.13,1.59,1.77,1,2.51,1.69-1.36.41-2.7,1.06-4.07,1.5A7.6,7.6,0,0,0,25.28,148a22.59,22.59,0,0,0-2.56,3.87c-.62,1.29-.53,3-1,4.36a41.88,41.88,0,0,0-2.73,12c0,.67.33,1.35.3,2s-.15,1.52-.15,2.29a46.21,46.21,0,0,1-.39,4.66,47.4,47.4,0,0,0-.34,4.77c0,2.4-.74,5.15.45,7.37a10.3,10.3,0,0,0,1.83,2.38,26.17,26.17,0,0,1,1.89,2.12c.55.75.75,1.73,1.24,2.53s1.28,1.58,1.86,2.43,1.34,2.47,2.36,2.8a10.68,10.68,0,0,0-.32,2.94c-.05,1.05-.52,2-.56,3s0,2.1-.07,3.2a31.54,31.54,0,0,1-.94,5.58c-.57,1.9-1.17,3.63-1.73,5.57a13.68,13.68,0,0,0-.68,3.11,22.45,22.45,0,0,1-.27,3.37c-.79,4-.77,8.08-2,12.06a9,9,0,0,0-.58,2.52c0,.59.48,1.12.54,1.61a6,6,0,0,1-.61,2.4,26.51,26.51,0,0,0-.73,2.71,13.5,13.5,0,0,1-2.34,4.37,11.42,11.42,0,0,0-1.86,4.24c-.33,1.62,1.54,3,.83,4.55s-2.94,2.09-3.6,3.87c-.52,1.41-.68,3-1.24,4.34-.63,1.51-1.55,2.84-1.48,4.49.1,2.07-.8,3.2-1.36,5a36.63,36.63,0,0,0-1.1,4.66A26.68,26.68,0,0,1,4.81,295c-.4.65-.62,1.28-1,1.94-.2.36-.41.38-.51.85s.2.74.14,1.13c-.29,1.94-5,4.17-3,6.29,1.08,1.13,2.21.15,1.31,2a15,15,0,0,0-1.18,4.54c-.07.47-.55,1.78-.16,2.21s1.9.26,2.41.33c1.75.24,3.28.49,5.09.76.8.12,1.64,0,2.38.15s1.41.61,2.14.4c-.17-.95.31-3.1,1.14-3.55,1-.53,2.1-.31,3-1A16.53,16.53,0,0,0,19,309a21.52,21.52,0,0,0,3.68-5.45,55,55,0,0,0,4-9.87c.41-1.63.94-3.3,1.34-4.92.5-2,.52-4.14.92-6.17.76-3.85.88-8.29,3.35-11.47a52.31,52.31,0,0,0,3.2-4.24c.75-1.2,1.07-2.65,1.87-3.82,1.07-1.58,1.6-3.32,2.58-5,.71-1.18,1.55-2.37,2.22-3.58s1.31-2.51,2-3.82,1-2.87,1.62-4.28,1.59-2.82,2.29-4.26a18.84,18.84,0,0,1,2.16-3.82,2.3,2.3,0,0,1,3.6.14c.52.73.14,1.16.95,1.75a4.35,4.35,0,0,1,1.42,1.39,45.26,45.26,0,0,0,7.16,8.35,35.33,35.33,0,0,1,4.8,5.49,15.69,15.69,0,0,0,1.59,2.48A22.25,22.25,0,0,1,72,260.08c1,1.29,1.23,3.11,2.09,4.48s2,2.64,2.78,4.05a16.07,16.07,0,0,1,1.67,5c.29,1.92,1.17,2.68,2.15,4.26.88,1.42.82,3.27,1.21,4.86a29.34,29.34,0,0,0,1.46,5c.73,1.65,1.68,3.25,2.35,4.89.28.69.44,1.35.73,2a19.35,19.35,0,0,0,2.49,4,9.47,9.47,0,0,0,1.92,2.07,2.55,2.55,0,0,1,1.38,2.22c0,1.06-.72,1.68-1.08,2.65-.6,1.62.55,2.84,1.89,3.37a16.74,16.74,0,0,0,2.13.54c1.28.33.79.54,1.28,1.5s2.72.09,3.84,0a43.44,43.44,0,0,0,4.41-.77c2.74-.52,4.87-2.52,7.39-3.59,1.79-.76,4.45-1.61,5-3.74.65-2.4-1.11-3.91-3.2-4.55"/><polygon class="cls-1" points="114.08 92.73 22.86 92.73 22.86 90.73 112.08 90.73 112.08 0 114.08 0 114.08 92.73"/><path d="M27,91.7a4.18,4.18,0,1,0-4.18,4.18A4.18,4.18,0,0,0,27,91.7"/><path class="cls-1" d="M22.86,96.38a4.68,4.68,0,1,1,4.68-4.68A4.68,4.68,0,0,1,22.86,96.38Zm0-8.35a3.68,3.68,0,1,0,3.68,3.68A3.68,3.68,0,0,0,22.86,88Z"/><circle cx="22.86" cy="91.7" r="4.18"/><path class="cls-1" d="M22.86,96.38a4.68,4.68,0,1,1,4.68-4.68A4.68,4.68,0,0,1,22.86,96.38Zm0-8.35a3.68,3.68,0,1,0,3.68,3.68A3.68,3.68,0,0,0,22.86,88Z"/><polygon class="cls-1" points="250.91 92.73 159.68 92.73 159.68 0 161.68 0 161.68 90.73 250.91 90.73 250.91 92.73"/><path d="M246.73,91.7a4.18,4.18,0,1,1,4.18,4.18,4.18,4.18,0,0,1-4.18-4.18"/><path class="cls-1" d="M250.91,96.38a4.68,4.68,0,1,1,4.68-4.68A4.68,4.68,0,0,1,250.91,96.38Zm0-8.35a3.68,3.68,0,1,0,3.68,3.68A3.68,3.68,0,0,0,250.91,88Z"/><circle cx="250.91" cy="91.7" r="4.18"/><path class="cls-1" d="M250.91,96.38a4.68,4.68,0,1,1,4.68-4.68A4.68,4.68,0,0,1,250.91,96.38Zm0-8.35a3.68,3.68,0,1,0,3.68,3.68A3.68,3.68,0,0,0,250.91,88Z"/></g></g></svg>