<svg height="0" overflow="hidden" width="0" xmlns="http://www.w3.org/2000/svg"><defs><symbol id="icon-atom" viewBox="0 0 36 32"><path d="m34.531 16.327c-.288.505-.716.902-1.232 1.144l-.017.007c-2.029 1.052-4.393 1.788-6.894 2.073l-.094.009c-.49-1.159-1.045-2.343-1.633-3.527.604-1.192 1.151-2.376 1.633-3.535.816.131 1.567.278 2.278.441.248 1.248 1.334 2.175 2.637 2.175.688 0 1.315-.259 1.79-.684l-.003.002c.596.318 1.894 1.02 1.535 1.894zm-8.164 13.975c-.906.547-2.449-.718-3.118-1.216-1.524-1.249-2.864-2.626-4.038-4.138l-.043-.058c.767-1.02 1.527-2.09 2.237-3.184 1.331-.073 2.629-.188 3.878-.343 1.894 4.939 2.106 8.367 1.094 8.98zm-9.534-8.555q1.273 0 2.539 0-.637.931-1.265 1.788c-.424-.571-.816-1.167-1.273-1.788zm-1.209 4.808c-.357-.188-.78-.298-1.228-.298-1.479 0-2.678 1.199-2.678 2.678 0 .318.055.622.157.905l-.006-.019c-.596.351-1.788.971-2.294.171-.207-.416-.328-.907-.328-1.426 0-.119.006-.236.019-.352l-.001.014c.19-2.53.793-4.872 1.743-7.026l-.054.136c1.249.155 2.555.269 3.878.343.718 1.094 1.469 2.163 2.245 3.184-.49.612-.98 1.175-1.453 1.698zm-13.991-10.547c0-1.167 3.069-2.694 8.294-3.535.482 1.159 1.029 2.335 1.633 3.535-.604 1.184-1.151 2.367-1.633 3.527-5.224-.833-8.294-2.392-8.294-3.527zm7.673-11.551c-.065-.718-.22-2.269.563-2.718-.082.049-.473.278 0 0v0c .767-.433 1.992.425 2.58.816-.096.265-.152.571-.152.89 0 1.483 1.202 2.686 2.686 2.686.385 0 .752-.081 1.083-.227l-.017.007c.343.392.686.816 1.037 1.233-.816 1.02-1.535 2.09-2.237 3.184-1.339.065-2.637.188-3.894.343-.78-1.813-1.354-3.918-1.622-6.117l-.011-.112zm8.825 4.008c.424.563.816 1.159 1.265 1.788-.816 0-1.698 0-2.539 0 .433-.629.816-1.233 1.273-1.788zm5.608 5.764c-.416-.743-.816-1.486-1.282-2.212q1.143.09 2.196.212c-.286.653-.596 1.314-.914 1.992zm-.661 4.693v-.057l.629-1.11q.49 1.029.906 1.992c-.702.082-1.429.155-2.188.212.212-.343.424-.686.62-1.037zm-9.69-2.914c.743-1.388 1.51-2.767 2.359-4.082q2.359-.082 4.718 0c .816 1.331 1.633 2.694 2.351 4.082q-1.102 2.09-2.351 4.082-2.359.09-4.718 0c-.816-1.322-1.633-2.694-2.359-4.082zm-1.796-3.763c.694-.082 1.42-.155 2.18-.212-.449.718-.865 1.461-1.273 2.204q-.49-1.012-.906-1.992zm.906 5.526c.408.743.816 1.478 1.273 2.204-.759-.057-1.478-.131-2.18-.212q.416-.963.906-1.992zm13.437-16.138c1.127 0 1.004 1.845 1.004 2.563-.235 2.391-.813 4.587-1.688 6.626l.055-.145c-1.249-.155-2.555-.278-3.886-.343-.718-1.086-1.469-2.163-2.237-3.184 2.8-3.535 5.363-5.518 6.751-5.518zm10.269 14.367c0-1.184-.898-2.196-2.449-3.029.036-.165.057-.354.057-.548 0-1.47-1.191-2.661-2.661-2.661-1.052 0-1.961.61-2.393 1.495l-.007.016c-.604-.139-1.233-.253-1.886-.359.81-1.908 1.388-4.119 1.624-6.432l.008-.098c.09-1.306 0-2.996-1.11-3.878-1.396-1.094-3.265-.188-4.506.669-1.841 1.349-3.427 2.894-4.776 4.632l-.04.054c-.286-.351-.571-.694-.857-1.012.223-.382.354-.841.354-1.331 0-1.479-1.199-2.678-2.678-2.678-.548 0-1.058.165-1.483.448l.01-.006c-1.127-.816-2.718-1.682-4.082-1.094-.806.393-1.385 1.145-1.532 2.041l-.002.016c-.091.495-.143 1.065-.143 1.647 0 .756.088 1.492.254 2.197l-.013-.065c.374 1.88.864 3.521 1.489 5.093l-.068-.195c-2.472.33-4.714 1.009-6.782 1.993l.137-.059c-1.224.612-2.669 1.624-2.669 3.151s1.453 2.531 2.661 3.151c1.929.925 4.167 1.604 6.52 1.922l.117.013c-.947 2.506-1.951 5.437-1.633 8.163.056.921.486 1.732 1.138 2.29l.004.004c1.233.914 2.865.278 4.024-.433.419.282.934.451 1.489.451 1.483 0 2.686-1.202 2.686-2.686 0-.409-.092-.797-.255-1.145l.007.016c.449-.498.906-1.02 1.347-1.567 1.39 1.788 2.976 3.33 4.75 4.631l.066.046c1.249.816 3.135 1.771 4.522.661 1.127-.947 1.2-2.661 1.127-3.992-.259-2.385-.835-4.567-1.69-6.604l.058.155c5.306-.873 9.298-2.58 9.298-5.086z"/><path d="m18.106 18.669c1.474 0 2.669-1.195 2.669-2.669s-1.195-2.669-2.669-2.669c-1.474 0-2.669 1.195-2.669 2.669v0c .014 1.469 1.201 2.656 2.668 2.669z"/></symbol><symbol id="icon-phones" viewBox="0 0 42 32"><path d="m31.564 14.098h-2.127c-.738 0-1.337.598-1.337 1.337v0 15.228c0 .738.598 1.337 1.337 1.337v0h2.12c.738 0 1.337-.598 1.337-1.337v0-15.228c0-.738-.598-1.337-1.337-1.337v0zm5.428 1.477c-.247-8.642-7.312-15.553-15.99-15.553-8.65 0-15.696 6.866-15.987 15.445l-.001.027c-2.941 1.3-4.956 4.191-4.956 7.554 0 4.228 3.186 7.712 7.288 8.181l.038.004c.022.002.048.003.074.003.445 0 .805-.36.805-.805 0-.001 0-.002 0-.004v0-14.77c-.002-.443-.362-.801-.805-.801-.026 0-.052.001-.077.004h.003c-.162 0-.325.052-.487.074.575-7.36 6.689-13.114 14.146-13.114s13.571 5.754 14.143 13.065l.003.049c-.222-.044-.436-.081-.665-.103-.022-.002-.048-.003-.074-.003-.445 0-.805.36-.805.805 0 .001 0 .002 0 .004v0 14.77c0 .001 0 .002 0 .003 0 .445.36.805.805.805.026 0 .052-.001.077-.004h-.003c4.126-.483 7.297-3.958 7.297-8.174 0-3.31-1.954-6.163-4.772-7.468l-.051-.021zm-23.241-.14v15.228c0 .738-.598 1.337-1.337 1.337v0h-2.127c-.738 0-1.337-.598-1.337-1.337v0-15.228c0-.738.598-1.337 1.337-1.337h2.12c.738 0 1.337.598 1.337 1.337v0z"/></symbol><symbol id="icon-sound" viewBox="0 0 47 32"><path d="m1.527.83h-1.527v-.274h.456v.274zm0 28.374h-1.527v-28.374h1.527zm-1.527.017h1.527v.572l.133.075v.083h.83v1.659h-.738l-.091.224-.116-.05-.216-.116-.108-.066-.124-.075-.1-.075-.091-.083-.075-.091-.083-.091-.083-.1-.075-.1-.091-.108-.066-.108-.066-.075-.058-.116-.058-.158-.05-.124-.041-.124v-.962zm2.489 1.087h43.765v1.659h-43.765zm43.756 1.659v-1.659h.216v.506h-.224z"/><path d="m4.688 26.101h5.144c.019-.001.04-.002.062-.002.509 0 .928.389.975.886v.004.39c-.047.501-.466.89-.975.89-.022 0-.044-.001-.065-.002h.003-5.144c-.019.001-.04.002-.062.002-.509 0-.928-.389-.975-.886v-.004-.39c.047-.501.466-.89.975-.89.022 0 .044.001.065.002z"/><path d="m4.688 25.719v.722h-.307v.207h-1.062v-.772l.041-.05.041-.041.05-.041h.971zm-.672 1.66h-.697v-.39h.73zm-.697 0h .722v.207h.307v.722h-.631l-.041-.1h-.05l-.041-.05v-.78zm1.402.531h5.144v.722h-5.177zm5.144.722v-.722h.307v-.531h.722v.772l-.041.05-.041.041-.05.041h-.971zm.672-1.66h.73v.407h-.73zm.721 0h-.722v-.207h-.307v-1.045h.971l.05.041.041.041.041.05v.772zm-1.402-.531h-5.169v-.722h5.144z"/><path d="m13.358 26.101h5.144c.019-.001.04-.002.062-.002.509 0 .928.389.975.886v.004.39c-.047.501-.466.89-.975.89-.022 0-.044-.001-.065-.002h.003-5.144c-.021.002-.046.003-.07.003-.509 0-.928-.389-.975-.886v-.004-.39c.047-.501.466-.89.975-.89.022 0 .044.001.065.002h-.003z"/><path d="m13.358 25.719v.722h-.307v.207h-.73v-.772l.041-.05.041-.041.05-.041h.971zm-.673 1.66h-.73v-.39h.73zm-.73 0h .73v.207h.307v.722h-.971l.315-.1h-.05l-.041-.05v-.78zm1.403.531h5.144v.722h-5.144zm5.143.722v-.722h.307v-.531h1.103v.772l-.041.05-.041.041-.05.041h-1.278zm.672-1.66h.738v.407h-.722zm.731 0h-.73v-.207h-.672v-1.045h.971l.05.041.041.041.041.05v.772zm-1.403-.531h-5.144v-.722h5.144z"/><path d="m22.019 26.101h5.144c.021-.002.046-.003.07-.003.509 0 .928.389.975.886v.004.39c-.047.501-.466.89-.975.89-.022 0-.044-.001-.065-.002h.003-5.144c-.021.002-.046.003-.07.003-.509 0-.928-.389-.975-.886v-.004-.39c.047-.501.466-.89.975-.89.022 0 .044.001.065.002z"/><path d="m22.019 25.719v.722h-.307v.207h-.722v-.39l-.249.29v-.324l.041-.05.041-.041.05-.041h.971zm-.672 1.66h-.722v-.39h.722zm-.722 0h .722v.207h.307v.722h-.971l.315-.1h-.041l-.041-.05v-.78zm1.402.531h5.144v.722h-5.144zm5.144.722v-.722h.307v-.531h.73v.83l-.05.041h-.971zm.672-1.66h.722v.407h-.722zm.73 0h-.73v-.207h-.307v-1.045h.971l.05.041.041.041.041.05v.772zm-1.402-.531h-5.144v-.722h5.144z"/><path d="m30.697 26.101h5.144c.019-.001.04-.002.062-.002.509 0 .928.389.975.886v.004.39c-.047.501-.466.89-.975.89-.022 0-.044-.001-.065-.002h.003-5.144c-.024.002-.051.003-.079.003-.51 0-.928-.389-.975-.887v-.004-.39c.047-.501.465-.891.975-.891.028 0 .055.001.082.003h-.004z"/><path d="m30.697 25.719v.722h-.307v.207h-.722v-.772l.041-.05.041-.041.05-.041h.896zm-.672 1.66h-.722v-.39h.722zm-.721 0h .722v.207h.672v.722h-.971l-.058-.1h-.05l-.041-.05v-.78zm1.402.531h5.144v.722h-5.152zm5.144.722v-.722h.307v-.531h.722v.772l-.041.05-.041.041-.05.041h-.971zm.672-1.66h.722v.407h-.738zm.721 0h-.738v-.207h-.307v-1.045h.971l.05.041.041.041.041.05v.772zm-1.402-.531h-5.144v-.722h5.144z"/><path d="m39.351 26.101h5.144c.019-.001.04-.002.062-.002.509 0 .928.389.975.886v.004.39c-.047.501-.466.89-.975.89-.022 0-.044-.001-.065-.002h.003-5.144c-.019.001-.04.002-.062.002-.509 0-.928-.389-.975-.886v-.004-.39c.047-.501.466-.89.975-.89.022 0 .044.001.065.002z"/><path d="m39.351 25.719v.722h-.307v.207h-.722v-.772l.041-.05.041-.041.05-.041h.971zm-.672 1.66h-.722v-.39h.722zm-.722 0h .722v.207h.307v.722h-.606l-.05-.1h-.041l-.041-.05v-.78zm1.402.531h5.144v.722h-5.144zm5.144.722v-.722h.299v-.531h.73v.772l-.041.05-.041.041-.05.041h-.971zm.672-1.66h.73v.407h-.73zm.73 0h-.73v-.207h-.307v-1.045h.631l.05.041.041.041.041.05v.772zm-1.402-.531h-5.144v-.722h5.144z"/><path d="m4.688 22.492h5.144c.021-.002.045-.003.07-.003.508 0 .925.39.967.887v.004.39c-.047.501-.466.89-.975.89-.022 0-.044-.001-.065-.002h.003-5.144c-.019.001-.04.002-.062.002-.509 0-.928-.389-.975-.886v-.004-.39c.043-.5.46-.89.967-.89.025 0 .049.001.073.003h-.003z"/><path d="m4.688 22.127v.722h-.307v.207h-1.062v-.772l.041-.05.041-.041.05-.041h.971zm-.672 1.659h-.697v-.39h.73zm-.722 0h .722v.207h.307v.722h-.108l-.066.174h-.44l-.05-.041-.041-.041-.041-.05v-.382l-.257-.315v-.265zm1.402.531h5.144v.722h-5.152zm5.144.722v-.722h.307v-.207h.722v.772l-.041.05-.041.041-.05.041h-.971zm.672-1.659h.73v.39h-.73zm.722 0h-.722v-.207h-.307v-.722h.871l-.29-.05h.05l.05.041.041.041.041.05v.772zm-1.403-.531h-5.144v-.722h5.144z"/><path d="m13.358 22.492h5.144c.021-.002.045-.003.07-.003.508 0 .924.39.967.887v.004.39c-.047.501-.466.89-.975.89-.022 0-.044-.001-.065-.002h.003-5.144c-.019.001-.04.002-.062.002-.509 0-.928-.389-.975-.886v-.004-.39c.043-.5.46-.89.967-.89.025 0 .049.001.073.003h-.003z"/><path d="m13.358 22.127v.722h-.307v.207h-.73v-.772l.041-.05.041-.041.05-.041-.008.249h.871zm-.673 1.659h-.73v-.39h.73zm-.73 0h .73v.207h.307v.722h-.971l-.05-.041-.041-.041-.041-.05v-.772zm1.403.531h5.144v.722h-5.144zm5.143.722v-.722h.307v-.207h1.103v.772l-.041.05-.041.041-.05.041h-.324l-.373-.124h-.581zm.672-1.659h.738v.39h-.722zm.731 0h-.73v-.207h-.672v-.722h.971l.05.041.041.041.041.05v.772zm-1.403-.531h-5.144v-.722h5.144z"/><path d="m22.019 22.492h5.144c.023-.002.051-.003.078-.003.508 0 .925.39.967.887v.004.39c-.047.501-.466.89-.975.89-.022 0-.044-.001-.065-.002h.003-5.144c-.019.001-.04.002-.062.002-.509 0-.928-.389-.975-.886v-.004-.39c.043-.5.46-.89.967-.89.025 0 .049.001.073.003h-.003z"/><path d="m22.019 22.127v.722h-.307v.207h-.722v-.772l.041-.05.041-.041.05-.041h.971zm-.672 1.659h-.722v-.39h.722zm-.722 0h .722v.207h.307v.722h-.971l-.05-.041-.041-.041-.041-.05v-.772zm1.402.531h5.144v.722h-5.144zm5.144.722v-.722h.307v-.207h.73v.772l-.041.05-.041.041-.05.041h-.971zm.672-1.659h.722v.39h-.722zm.73 0h-.73v-.207h-.307v-.722h.971l.05.041.041.041.041.05v.772zm-1.402-.531h-5.144v-.722h5.144z"/><path d="m30.697 22.492h5.144c.019-.001.04-.002.062-.002.509 0 .928.389.975.886v.004.39c-.047.501-.466.89-.975.89-.022 0-.044-.001-.065-.002h.003-5.144c-.019.001-.04.002-.062.002-.509 0-.928-.389-.975-.886v-.004-.39c.047-.501.466-.89.975-.89.022 0 .044.001.065.002z"/><path d="m30.697 22.127v.722h-.307v.207h-.722v-.772l.041-.05.041-.041.05-.041h.1l-.033.249h.83zm-.672 1.659h-.722v-.39h.722zm-.721 0h .722v.207h.672v.722h-.971l-.05-.041-.041-.041-.041-.05v-.772zm1.402.531h5.144v.722h-5.152zm5.144.722v-.722h.307v-.207h.722v.772l-.041.05-.041.041-.05.041h-.266l.025-.124h-.647zm.672-1.659h.722v.39h-.738zm.721 0h-.738v-.207h-.307v-.722h.971l.05.041.041.041.041.05v.772zm-1.402-.531h-5.144v-.722h5.144z"/><path d="m39.351 22.492h5.144c.021-.002.045-.003.07-.003.508 0 .925.39.967.887v.004.39c-.047.501-.466.89-.975.89-.022 0-.044-.001-.065-.002h.003-5.144c-.019.001-.04.002-.062.002-.509 0-.928-.389-.975-.886v-.004-.39c.043-.5.46-.89.967-.89.025 0 .049.001.073.003h-.003z"/><path d="m39.351 22.127v.722h-.307v.207h-.722v-.772l.041-.05.041-.041.05-.041h.971zm-.672 1.659h-.722v-.39h.722zm-.722 0h .722v.207h.307v.722h-.606l-.05-.041-.041-.041-.041-.05v-.772zm1.402.531h5.144v.722h-5.144zm5.144.722v-.722h.299v-.207h.73v.772l-.041.05-.041.041-.05.041h-.971zm.672-1.659h.73v.39h-.73zm.73 0h-.73v-.207h-.307v-.722h.631l.05.041.041.041.041.05v.772zm-1.402-.531h-5.144v-.722h5.144z"/><path d="m4.688 18.883h5.144c.019-.001.04-.002.062-.002.509 0 .928.389.975.886v.004.39c-.047.501-.466.89-.975.89-.022 0-.044-.001-.065-.002h.003-5.144c-.019.001-.04.002-.062.002-.509 0-.928-.389-.975-.886v-.004-.39c.047-.501.466-.89.975-.89.022 0 .044.001.065.002z"/><path d="m4.688 18.518v.722h-.307v.207h-1.062v-.772l.041-.05.041-.041.05-.041h.971zm-.672 1.659h-.697v-.39h.73zm-.697-.016h.722v.207h.307v.722h-.631l-.05-.041-.041-.041-.041-.05v-.796zm1.402.531h5.144v.722h-5.177zm5.144.722v-.722h.307v-.531h.722v.772l-.041.05-.041.041-.05.041h-.971zm.672-1.66h.73v.39h-.73zm.721 0h-.722v-.207h-.307v-.722h.971l.05.041.041.041.041.05v.772zm-1.402-.531h-5.169v-.722h5.144z"/><path d="m13.358 18.883h5.144c.019-.001.04-.002.062-.002.509 0 .928.389.975.886v.004.39c-.047.501-.466.89-.975.89-.022 0-.044-.001-.065-.002h.003-5.144c-.019.001-.04.002-.062.002-.509 0-.928-.389-.975-.886v-.004-.39c.047-.501.466-.89.975-.89.022 0 .044.001.065.002z"/><path d="m13.358 18.518v.722h-.307v.207h-.73v-.772l.041-.05.041-.041.05-.041h.971zm-.673 1.659h-.73v-.39h.73zm-.73 0h .73v.207h.307v.722h-.971l-.05-.041-.041-.041-.041-.05v-.813zm1.403.531h5.144v.722h-5.144zm5.143.722v-.722h.307v-.548h1.103v.772l-.041.05-.041.041-.05.041h-1.278zm.672-1.659h.738v.39h-.722zm.731 0h-.73v-.207h-.672v-.722h.971l.05.041.041.041.041.05v.772zm-1.403-.531h-5.144v-.722h5.144z"/><path d="m22.019 18.883h5.144c.021-.002.046-.003.07-.003.509 0 .928.389.975.886v.004.39c-.047.501-.466.89-.975.89-.022 0-.044-.001-.065-.002h.003-5.144c-.019.001-.04.002-.062.002-.509 0-.928-.389-.975-.886v-.004-.39c.047-.501.466-.89.975-.89.022 0 .044.001.065.002h-.003z"/><path d="m22.019 18.518v.722h-.307v.207h-.722v-.772l.041-.05.041-.041.05-.041h.971zm-.672 1.659h-.722v-.39h.722zm-.722 0h .722v.207h.307v.722h-.971l-.05-.041-.041-.041-.041-.05v-.149l.191-.083v-.581zm1.402.531h5.144v.722h-5.144zm5.144.722v-.722h.307v-.548h.73v.772l-.041.05-.041.041-.05.041h-.971zm.672-1.659h.722v.39h-.722zm.73 0h-.73v-.207h-.307v-.722h.971l.05.041.041.041.041.05v.772zm-1.402-.531h-5.144v-.722h5.144z"/><path d="m30.697 18.883h5.144c.019-.001.04-.002.062-.002.509 0 .928.389.975.886v.004.39c-.047.501-.466.89-.975.89-.022 0-.044-.001-.065-.002h.003-5.144c-.019.001-.04.002-.062.002-.509 0-.928-.389-.975-.886v-.004-.39c.047-.501.466-.89.975-.89.022 0 .044.001.065.002z"/><path d="m30.697 18.518v.722h-.307v.207h-.722v-.772l.041-.05.041-.041.05-.041h.896zm-.672 1.659h-.722v-.39h.722zm-.721 0h .722v.207h.672v.722h-.971l-.05-.041-.041-.041-.041-.05v-.813zm1.402.531h5.144v.722h-5.152zm5.144.722v-.722h.307v-.548h.722v.772l-.041.05-.041.041-.05.041h-.971zm.672-1.659h.722v.39h-.738zm.721 0h-.738v-.207h-.307v-.722h.971l.05.041.041.041.041.05v.772zm-1.402-.531h-5.144v-.722h5.144z"/><path d="m39.351 18.883h5.144c.019-.001.04-.002.062-.002.509 0 .928.389.975.886v.004.39c-.047.501-.466.89-.975.89-.022 0-.044-.001-.065-.002h.003-5.144c-.019.001-.04.002-.062.002-.509 0-.928-.389-.975-.886v-.004-.39c.047-.501.466-.89.975-.89.022 0 .044.001.065.002z"/><path d="m39.351 18.518v.722h-.307v.207h-.722v-.622l-.158.257v-.05l.041-.05.041-.041.05-.041h.971zm-.672 1.659h-.722v-.39h.722zm-.722 0h .722v.207h.307v.722h-.606l-.05-.041-.041-.041-.041-.05v-.1l-.083-.133v-.581zm1.402.531h5.144v.722h-5.144zm5.144.722v-.722h.299v-.548h.73v.772l-.041.05-.041.041-.05.041h-.971zm.672-1.659h.73v.39h-.73zm.73 0h-.73v-.207h-.307v-.722h.631l.05.041.041.041.041.05v.83zm-1.402-.531h-5.144v-.722h5.144z"/><path d="m4.688 14.934v.722h-.274v.207h-1.095v-.481l.041-.05.041-.041.05-.041h.971zm-.672 1.659h-.697v-.39h.73zm-.722 0h .722v.207h.307v.722h-.606l-.041-.1-.041-.041-.041-.05v-.772zm1.402.531h5.144v.722h-5.152zm5.144.722v-.722h.307v-.207h.722v.772l-.041.05-.041.041v-.357h-.971zm.672-1.659h.73v.39h-.73zm.722 0h-.722v-.207h-.282v-1.045h.971l.05.041.041.041.041.05v.772zm-1.403-.531h-5.144v-.722h5.144z"/><path d="m13.358 15.266h5.144c.019-.001.04-.002.062-.002.509 0 .928.389.975.886v.004.39c-.051.497-.468.881-.974.881-.022 0-.044-.001-.066-.002h.003-5.144c-.019.001-.04.002-.062.002-.509 0-.928-.389-.975-.886v-.004-.39c.051-.497.468-.881.974-.881.022 0 .044.001.066.002z"/><path d="m13.358 14.934v.722h-.282v.207h-.73v-.772l.041-.05.041-.041.05-.041h.971zm-.673 1.659h-.73v-.39h.73zm-.73 0h .73v.207h.307v.722h-.971l.315-.1-.041-.041-.041-.05v-.772zm1.403.531h5.144v.722h-5.144zm5.143.722v-.722h.307v-.207h1.103v.772l-.041.05-.041.041-.05.041h-1.278zm.672-1.659h.738v.39h-.722zm.731 0h-.73v-.207h-.672v-1.045h.971l.05.041.041.041.041.05v.772zm-1.403-.531h-5.144v-.722h5.144z"/><path d="m22.019 14.934v.722h-.282v.207h-.722v-.772l.041-.05.041-.041.05-.041h.971zm-.672 1.659h-.722v-.39h.722zm-.722 0h .722v.207h.307v.722h-.971l.315-.1-.041-.041-.041-.05v-.772zm1.402.531h5.144v.722h-5.144zm5.144.722v-.722h.307v-.207h.73v.772l-.041.05.041-.315-.05.041h-.971zm.672-1.659h.722v.39h-.722zm.73 0h-.73v-.207h-.282v-1.045h.971l.05.041.041.041.041.05v.772zm-1.402-.531h-5.144v-.722h5.144z"/><path d="m30.697 15.266h5.144c.019-.001.04-.002.062-.002.509 0 .928.389.975.886v.004.39c-.051.498-.468.883-.974.883-.028 0-.056-.001-.083-.003h.004-5.127c-.019.001-.04.002-.062.002-.509 0-.928-.389-.975-.886v-.004-.39c.051-.497.468-.881.974-.881.022 0 .044.001.066.002h-.003z"/><path d="m30.697 14.934v.722h-.282v.207h-.722v-.772l.041-.05.041-.041.05-.041h.871zm-.672 1.659h-.722v-.39h.722zm-.721 0h .722v.207h.672v.722h-.971l-.058-.1-.041-.041-.041-.05v-.772zm1.402.531h5.144v.722h-5.152zm5.144.722v-.722h.307v-.207h.722v.772l-.041.05-.041.041-.05.041h-.971zm.672-1.659h.722v.39h-.738zm.721 0h-.738v-.207h-.282v-1.045h.971l.05.041.041.041.041.05v.772zm-1.402-.531h-5.144v-.722h5.144z"/><path d="m39.351 14.934v.722h-.282v.207h-.722v-.772l.041-.05.041-.041.05-.041h.564l-.05-.025h.34zm-.672 1.659h-.722v-.39h.722zm-.722 0h .722v.207h.307v.722h-.606l-.05-.1-.041-.041-.041-.05v-.772zm1.402.531h5.144v.722h-5.144zm5.144.722v-.722h.299v-.207h.73v.772l-.041.05-.041.041.017-.357h-.971zm.672-1.659h.73v.39h-.73zm.73 0h-.73v-.207h-.282v-1.045h.539l.05.041.041.041.041.05v.772zm-1.402-.531h-5.144v-.722h5.144z"/><path d="m4.688 11.3v.722h-.307v.207h-1.062v-.772l.041-.05.041-.041.315.249h.971zm-.672 1.659h-.697v-.39h.73zm-.722 0h .722v.207h.307v.722h-.108l-.066.216h-.44l-.05-.041-.041-.041-.041-.05v-.382l-.257-.315v-.332zm1.402.531h5.144v.722h-5.152zm5.144.722v-.722h.307v-.207h.722v.772l-.041.05-.041.041-.05.041h-.971zm.672-1.659h.73v.39h-.73zm.722 0h-.722v-.207h-.307v-.722h.871l-.29-.008.05.041.041.041.041.05v.772zm-1.403-.531h-5.144v-.722h5.144z"/><path d="m13.358 11.657h5.144c.019-.001.04-.002.062-.002.509 0 .928.389.975.886v.004.39c-.047.501-.466.89-.975.89-.022 0-.044-.001-.065-.002h.003-5.144c-.019.001-.04.002-.062.002-.509 0-.928-.389-.975-.886v-.004-.39c.047-.501.466-.89.975-.89.022 0 .044.001.065.002z"/><path d="m13.358 11.3v.722h-.307v.207h-.73v-.772l.041-.05.041-.041.05-.041-.008.29h.921zm-.673 1.659h-.73v-.39h.73zm-.73 0h .73v.207h.307v.722h-.971l-.05-.041-.041-.041-.041-.05v-.772zm1.403.531h5.144v.722h-5.144zm5.143.722v-.722h.307v-.207h1.103v.772l-.041.05-.041.041-.05.041h-.324l-.373-.083h-.581zm.672-1.659h.738v.39h-.722zm.731 0h-.73v-.207h-.672v-.722h.971l.05.041.041.041.041.05v.772zm-1.403-.531h-5.144v-.722h5.144z"/><path d="m22.019 11.3v.722h-.307v.207h-.722v-.772l.041-.05.041-.041.05-.041h.971zm-.672 1.659h-.722v-.39h.722zm-.722 0h .722v.207h.307v.722h-.407l.324.216h-.498l-.05-.041-.041-.041-.041-.05v-.772zm1.402.531h5.144v.722h-5.144zm5.144.722v-.722h.307v-.207h.73v.772l-.041.05-.041.041-.05.041h-.971zm.672-1.659h.722v.39h-.722zm.73 0h-.73v-.207h-.307v-.722h.971l.05.041.041.041.041.05v.772zm-1.402-.531h-5.144v-.722h5.144z"/><path d="m30.697 11.657h5.144c.019-.001.04-.002.062-.002.509 0 .928.389.975.886v.004.39c-.047.501-.466.89-.975.89-.022 0-.044-.001-.065-.002h.003-5.144c-.019.001-.04.002-.062.002-.509 0-.928-.389-.975-.886v-.004-.39c.047-.501.466-.89.975-.89.022 0 .044.001.065.002z"/><path d="m30.697 11.3v.722h-.307v.207h-.722v-.772l.041-.05.041-.041.05-.041h.896zm-.672 1.659h-.722v-.39h.722zm-.721 0h .722v.207h.672v.722h-.971l-.05-.041-.041-.041-.041-.05v-.772zm1.402.531h5.144v.722h-5.152zm5.144.722v-.722h.307v-.207h.722v.772l-.041.05-.041.041-.05.041h-.971zm.672-1.659h.722v.39h-.738zm.721 0h-.738v-.207h-.307v-.722h.971l.05.041.041.041.041.05v.772zm-1.402-.531h-5.144v-.722h5.144z"/><path d="m13.358 7.691v.722h-.307v.207h-.73v-.772l.041-.05.041-.041.05-.041h.971zm-.673 1.659h-.73v-.39h.73zm-.73 0h .73v.207h.307v.722h-.971l-.05-.041-.041-.041-.041-.05v-.772zm1.403.531h5.144v.722h-5.144zm5.143.722v-.722h.307v-.207h1.103v.772l-.041.05-.041.041-.05.041h-1.278zm.672-1.659h.738v.39h-.722zm.731 0h-.73v-.207h-.672v-1.045h.971l.05.041.041.041.041.05v.772zm-1.403-.531h-5.144v-.722h5.144z"/><path d="m22.019 7.691v.722h-.307v.207h-.722v-.772l.041-.05.041-.041.05-.041h.971zm-.672 1.659h-.722v-.39h.722zm-.722 0h .722v.207h.307v.722h-.971l-.05-.041-.041-.041-.041-.05v-.772zm1.402.531h5.144v.722h-5.144zm5.144.722v-.722h.307v-.207h.73v.772l-.041.05-.041.041-.05.041h-.971zm.672-1.659h.722v.39h-.722zm.73 0h-.73v-.207h-.307v-1.045h.971l.05.041.041.041.041.05v.772zm-1.402-.531h-5.144v-.722h5.144z"/><path d="m30.697 7.691v.722h-.307v.207h-.722v-.772l.041-.05.041-.041.05-.041h.896zm-.672 1.659h-.722v-.39h.722zm-.721 0h .722v.207h.672v.722h-.971l-.05-.041-.041-.041-.041-.05v-.772zm1.402.531h5.144v.722h-5.152zm5.144.722v-.722h.307v-.207h.722v.772l-.041.05-.041.041-.05.041h-.971zm.672-1.659h.722v.39h-.738zm.721 0h-.738v-.207h-.307v-1.045h.971l.05.041.041.041.041.05v.772zm-1.402-.531h-5.144v-.722h5.144z"/><path d="m13.358 4.082v.722h-.307v.207h-.73v.05-.506l.041-.05.041-.041.05-.041h.971zm-.673 1.659h-.73v-.415h.73zm-.73 0h .73v.207h.307v.722h-.871l.324-.033h-.05l-.05-.041-.041-.041-.041-.05v-.788zm1.403.531h5.144v.722h-5.144zm5.143.722v-.747h.307v-.531h1.103v.772l-.041.05-.041.041-.357.058h-.971zm.672-1.659h.738v.39h-.722zm.731 0h-.73v-.216h-.672v-1.037h.971l.05.041.041.041.041.05v.772zm-1.403-.54h-5.144v-.713h5.144z"/><path d="m30.697 4.082v.722h-.307v.207h-.722v.05-.506l.041-.05.041-.041.05-.041h.896zm-.672 1.659h-.722v-.415h.722zm-.721 0h .722v.207h.672v.722h-.971l-.05-.041-.041-.041-.041-.05v-.821zm1.393.506h5.144v.722h-5.144zm5.144.722v-.722h.307v-.531h.722v.772l-.041.05-.041.041.008.058h-.971zm.672-1.659h.722v.39h-.73zm.722 0h-.73v-.191h-.307v-1.037h.971l.05.041.041.041.041.05v.772zm-1.402-.531h-5.136v-.697h5.144z"/><path d="m13.358.465v.722h-.282v.207h-.73v.058-.506l.041-.05-.05-.066h1.02zm-.673 1.659h-.73v-.407h.73zm-.73 0h .73v.207h.307v.987h-.971l-.05-.041-.041-.041-.041-.05v-1.079zm1.403.531h5.144v.664h-5.144zm5.143.664v-.68h.307v-.531h1.103v.772l-.041.05-.041.041-.05.041h-.324l-.373.224h-.183l-.066.083zm.672-1.66h.738v.39h-.722zm.731 0h-.73v-.149h-.672v-1.045h.531l.05.116h.382l.05.041.041.041.041.05v.772zm-1.403-.473h-5.144v-.722h5.144z"/></symbol><symbol id="icon-disco" viewBox="0 0 24 32"><path d="m11.118 10.955c-5.482 0-9.927 4.444-9.927 9.927s4.444 9.927 9.927 9.927c5.479 0 9.921-4.438 9.927-9.915v-.001c0-5.485-4.443-9.932-9.926-9.938zm0 21.045c-.002 0-.004 0-.006 0-6.141 0-11.118-4.978-11.118-11.118s4.978-11.118 11.118-11.118c6.141 0 11.118 4.978 11.118 11.118 0 .004 0 .008 0 .012v-.001c-.013 6.131-4.981 11.098-11.112 11.107h-.001z"/><path d="m7.03 11.423c-.608.876-1.147 1.876-1.568 2.937l-.035.101c.928-.316 2.025-.573 3.156-.724l.091-.01c.158-1.028.356-2.027.565-2.981-.84.157-1.586.392-2.29.703l.065-.026zm-2.338 3.761l.158-.44c.499-1.384 1.126-2.581 1.891-3.675l-.033.05.034-.051h.056c.789-.357 1.704-.631 2.662-.777l.059-.008.328-.051-.079.322c-.265 1.084-.497 2.259-.678 3.428l-.056.136h-.164c-1.403.171-2.677.482-3.887.925l.12-.038z"/><path d="m4.128 22.847c-.067-.594-.105-1.283-.105-1.981 0-.786.048-1.561.142-2.322l-.009.091c1.361-.203 2.795-.35 4.275-.435q-.073 1.316-.073 2.682 0 1.22.056 2.405c-1.491-.079-2.931-.232-4.297-.435z"/><path d="m4.393 22.587c1.203.175 2.456.305 3.727.384-.028-.7-.045-1.4-.045-2.095 0-.791 0-1.587.056-2.377-1.265.079-2.513.203-3.71.378-.068.596-.107 1.288-.107 1.988 0 .01 0 .02 0 .029v-.002c0 .565 0 1.129.079 1.694zm4.331.994h-.322c-1.479-.079-2.931-.226-4.32-.44l-.22-.034v-.22c-.067-.597-.104-1.289-.104-1.991 0-.807.05-1.602.148-2.383l-.01.093v-.22l.215-.034c1.383-.209 2.823-.356 4.303-.435h.322v.322c-.045.881-.073 1.779-.073 2.665 0 .791 0 1.592.056 2.389z"/><path d="m9.549 31.288c-.998-.161-1.894-.438-2.73-.823l.065.027c-.709-1.023-1.317-2.196-1.768-3.445l-.034-.107c1.094.407 2.372.722 3.697.889l.086.009c.181 1.208.412 2.366.678 3.45z"/><path d="m7.075 30.283c.597.266 1.297.488 2.025.633l.065.011c-.215-.909-.395-1.858-.565-2.823-1.161-.155-2.199-.394-3.199-.719l.127.036c.443 1.1.957 2.046 1.563 2.924l-.032-.05zm2.858 1.339l-.429-.062c-1.019-.153-1.937-.425-2.796-.806l.069.027-.073-.034-.045-.068c-.734-1.049-1.363-2.252-1.829-3.534l-.034-.108-.209-.565.565.209c1.085.401 2.352.711 3.666.872l.084.008h.22l.034.215c.181 1.186.407 2.338.672 3.422z"/><path d="m13.338 28.132c-.152.983-.339 1.937-.565 2.823.893-.149 1.691-.391 2.443-.72l-.066.026c.573-.828 1.087-1.774 1.495-2.775l.036-.099c-.963.319-2.098.573-3.268.714l-.086.008zm-1.327 3.507l.102-.407c.271-1.084.497-2.259.678-3.428l.034-.22h.22c1.491-.158 2.855-.481 4.146-.953l-.12.038.565-.209-.209.565c-.5 1.39-1.129 2.593-1.897 3.693l.033-.051-.045.068-.073.034c-.878.405-1.897.704-2.966.847l-.055.006z"/><path d="m13.823 18.493c.04.791.056 1.592.056 2.389 0 .706 0 1.417-.045 2.112 1.367-.073 2.71-.209 4.004-.395.051-.565.079-1.129.079-1.694 0-.003 0-.007 0-.01 0-.701-.039-1.392-.115-2.073l.008.084c-1.282-.186-2.62-.316-3.987-.395zm-.593 5.11v-.316c.04-.791.056-1.598.056-2.405 0-.898 0-1.796-.073-2.682v-.322h.322c1.575.079 3.117.226 4.585.446l.215.034v.22c.086.678.135 1.462.136 2.258v.001c-.001.705-.04 1.4-.115 2.084l.008-.085v.22l-.22.034c-1.303.207-2.888.369-4.495.448l-.107.004z"/><path d="m13.338 13.631c1.256.15 2.392.404 3.481.759l-.127-.036c-.443-1.1-.957-2.046-1.563-2.924l.032.05c-.686-.304-1.485-.546-2.318-.686l-.06-.008c.215.909.401 1.863.565 2.823zm4.331 1.672l-.565-.209c-1.172-.434-2.535-.756-3.95-.908l-.076-.007h-.22l-.034-.22c-.181-1.191-.407-2.343-.678-3.428l-.102-.407.378.04c1.126.139 2.15.431 3.101.857l-.068-.027.073.034.045.068c.734 1.049 1.363 2.252 1.829 3.534l.034.108z"/><path d="m5.082 26.941c-1.364-.491-2.545-1.109-3.624-1.862l.05.033c-.388-.858-.672-1.853-.802-2.896l-.005-.051c1.084.271 2.259.503 3.456.683.16 1.516.486 2.902.965 4.216l-.039-.122z"/><path d="m1.694 24.925c.828.574 1.774 1.087 2.775 1.495l.099.036c-.319-.963-.573-2.098-.714-3.268l-.008-.086c-.983-.152-1.937-.339-2.823-.565.139.895.374 1.699.697 2.455l-.025-.066zm3.84 2.496l-.565-.209c-1.39-.5-2.593-1.129-3.693-1.897l.051.033-.068-.045-.034-.073c-.402-.882-.698-1.906-.836-2.979l-.006-.054-.051-.418.407.102c1.084.271 2.259.497 3.428.678l.22.034v.22c.158 1.491.481 2.855.953 4.146l-.038-.12z"/><path d="m13.083 27.872c-.588.065-1.269.103-1.959.103-.796 0-1.581-.05-2.351-.146l.092.009c-.205-1.29-.364-2.86-.442-4.451l-.004-.106c.881.045 1.784.073 2.694.073q1.225 0 2.417-.056c-.083 1.704-.245 3.279-.484 4.829l.032-.255z"/><path d="m9.119 27.579c.599.068 1.293.107 1.996.107.604 0 1.2-.029 1.789-.085l-.075.006c.186-1.293.322-2.637.395-4.004-1.479.062-3.01.056-4.517 0 .073 1.366.209 2.705.395 3.987zm1.982.694c-.797 0-1.581-.05-2.351-.145l.093.009h-.22l-.034-.215c-.205-1.298-.364-2.878-.442-4.479l-.004-.106v-.322h.322c.759.041 1.647.064 2.541.064s1.782-.023 2.664-.07l-.123.005h.316v.316c-.083 1.714-.244 3.299-.484 4.858l.032-.256-.034.22h-.22c-.599.068-1.294.107-1.998.107h-.001z"/><path d="m18.369 23.101c-.15 1.256-.403 2.391-.759 3.481l.036-.127c1.1-.443 2.046-.957 2.924-1.563l-.05.032c.304-.686.546-1.485.686-2.318l.008-.06c-.909.215-1.863.401-2.823.565zm-1.672 4.331l.209-.565c.434-1.171.756-2.535.908-3.95l.007-.076v-.22l.248-.034c1.191-.181 2.343-.407 3.428-.678l.407-.102-.051.418c-.14 1.126-.432 2.15-.857 3.101l.027-.068-.034.073-.068.045c-1.049.734-2.252 1.363-3.534 1.829l-.108.034z"/><path d="m4.156 18.634c-1.208.181-2.366.412-3.45.678.151-.996.419-1.893.794-2.731l-.026.066c1.039-.721 2.231-1.337 3.501-1.791l.107-.033c-.417 1.101-.742 2.389-.917 3.723l-.01.089z"/><path d="m1.694 16.839c-.266.597-.488 1.297-.633 2.025l-.011.065c.909-.215 1.858-.395 2.823-.565.155-1.161.394-2.199.719-3.199l-.036.127c-1.095.449-2.038.968-2.911 1.579l.048-.032zm-1.333 2.857l.062-.429c.155-1.024.431-1.945.818-2.807l-.027.068.034-.073.068-.045c1.049-.734 2.252-1.363 3.534-1.829l.108-.034.565-.209-.209.565c-.401 1.085-.711 2.352-.872 3.666l-.008.084v.22l-.215.034c-1.186.181-2.332.407-3.422.672z"/><path d="m9.119 14.185c-.175 1.203-.299 2.451-.378 3.71 1.485-.068 2.97-.073 4.472 0-.079-1.27-.203-2.524-.384-3.727-.514-.051-1.111-.08-1.715-.08-.703 0-1.397.039-2.079.115l.084-.008zm-.988 4.319v-.322c.079-1.462.226-2.908.435-4.303l.034-.215h.22c.688-.088 1.483-.138 2.291-.138.701 0 1.393.038 2.074.111l-.084-.007h.22l.034.22c.209 1.389.356 2.823.44 4.32v.322h-.322c-.759-.041-1.647-.065-2.541-.065s-1.782.024-2.664.07l.123-.005z"/><path d="m18.335 18.38c.971.152 1.926.339 2.823.565-.156-.792-.378-1.492-.669-2.154l.026.065c-.828-.574-1.774-1.087-2.775-1.495l-.099-.036c.289.873.528 1.911.673 2.979l.01.092zm3.529 1.333l-.407-.124c-1.084-.271-2.259-.497-3.422-.672l-.215-.034v-.22c-.17-1.397-.479-2.664-.919-3.869l.038.12-.209-.565.565.209c1.373.5 2.561 1.125 3.647 1.885l-.05-.033.068.045.034.073c.359.793.635 1.715.783 2.679l.008.06z"/><path d="m11.118 8.414c-.007 0-.015 0-.023 0-.421 0-.762.341-.762.762s.341.762.762.762c.419 0 .759-.338.762-.756v0c0-.421-.341-.762-.762-.762v0zm-.022 2.111c-.742 0-1.344-.602-1.344-1.344s.602-1.344 1.344-1.344c.742 0 1.344.602 1.344 1.344v0c0 .742-.602 1.344-1.344 1.344z"/><path d="m11.113.22h.006v7.905h-.006z"/><path d="m10.893.22v-.22h.22zm.44 0v7.905h-.44v-7.905l.22-.22zm-.22 8.126h-.22v-.22zm0-.441v0 .44l-.22-.22zm.226.221v.22h-.22zm-.441 0v-7.905h.44v7.905l-.22.22zm.22-8.126h.22v.22zm0 .44v0-.44l.22.22z"/><path d="m20.859 8.222l.531 2.349 2.349.531-2.349.531-.531 2.343-.531-2.343-2.343-.531 2.343-.531z"/><path d="m22.711 13.332l.243 1.062 1.062.243-1.062.243-.243 1.062-.243-1.062-1.062-.243 1.062-.243z"/></symbol><symbol id="icon-noise" viewBox="0 0 32 32"><path d="m16.736 10.174v1.876c1.144.164 2.121.777 2.762 1.651l.008.012q.952 1.379.952 4.04c-.004.068-.006.148-.006.228 0 .907.283 1.749.765 2.44l-.009-.014c.582.669 1.316 1.19 2.15 1.511l.037.013v.86h-5.996c-.012.476-.251.894-.613 1.151l-.005.003c-.363.31-.837.5-1.356.502h0c-.507-.008-.968-.197-1.324-.504l.003.002c-.377-.255-.626-.673-.646-1.151v-.003h-5.99v-.86c.905-.364 1.675-.893 2.306-1.555l.003-.003c.395-.641.629-1.419.629-2.25 0-.136-.006-.271-.019-.404l.001.017q0-5.009 3.722-5.679v-1.881zm9.049 14.099l-.906-.906c-.241.596-.813 1.009-1.483 1.01h-1.402l1.801 1.801c-2.133 1.645-4.844 2.636-7.786 2.636-7.079 0-12.817-5.739-12.817-12.817 0-2.944.992-5.656 2.661-7.819l-.022.03 4.409 4.409c.559-.755 1.297-1.346 2.153-1.718l.034-.013-4.692-4.692c2.226-1.917 5.146-3.084 8.338-3.084 7.076 0 12.812 5.736 12.812 12.812 0 3.199-1.173 6.125-3.112 8.37l.014-.016zm-9.788-24.273c-8.832.003-15.991 7.164-15.991 15.997 0 8.835 7.162 15.997 15.997 15.997s15.997-7.162 15.997-15.997v0c0-8.835-7.162-15.997-15.997-15.997-.002 0-.004 0-.006 0z"/></symbol><symbol id="icon-3d" viewBox="0 0 31 32"><path d="m19.407 20.799c-.987.349-2.113.244-3.144.244v-9.399c1.015 0 2.135-.111 3.1.244 1.769.66 2.329 2.612 2.329 4.331s-.41 3.881-2.29 4.547zm3.815-4.647c.004-.089.007-.194.007-.299 0-1.404-.438-2.706-1.185-3.776l.014.021c-.814-1-2.013-1.66-3.368-1.751l-.015-.001c-.737-.072-1.486-.039-2.218-.039-.582 0-1.663-.216-1.663.649v9.56c0 .482-.216 1.869.555 1.869 1.464 0 3.05.15 4.436-.288 2.595-.804 3.416-3.438 3.416-5.911zm-11.755-.072c.423-.132.792-.321 1.12-.562l-.011.007c.339-.308.598-.698.743-1.14l.005-.019c.123-.355.195-.763.195-1.189 0-.554-.121-1.079-.337-1.551l.01.023c-.865-1.763-3.327-1.736-4.857-.937-.527.189-.897.684-.897 1.266 0 .128.018.251.051.368l-.002-.009c.105.482.693-.105.882-.222.376-.25.816-.442 1.288-.549l.026-.005c.14-.039.301-.062.467-.062.768 0 1.423.481 1.68 1.159l.004.012c.069.208.109.448.109.697 0 .718-.33 1.359-.847 1.779l-.004.003c-.422.274-.939.436-1.493.436-.05 0-.1-.001-.15-.004h.007c-.128-.014-.277-.023-.427-.023s-.299.008-.445.024l.018-.002c-.46 0-.46 1.059-.116 1.231.161.04.346.062.536.062.13 0 .257-.011.381-.031l-.014.002c1.026 0 2.185.128 2.806 1.059.218.333.348.74.348 1.178 0 .843-.481 1.574-1.184 1.932l-.012.006c-1.148.505-2.529.1-3.554-.516-.2-.116-.51-.377-.604 0-.018.108-.029.231-.029.358s.011.25.031.371l-.002-.013c.05.555.505.765.976.948.584.247 1.264.391 1.977.391s1.392-.144 2.011-.404l-.034.013c1.147-.57 1.922-1.734 1.922-3.079 0-.056-.001-.112-.004-.167v.008c-.003-1.476-1.12-2.691-2.554-2.849l-.013-.001zm-1.331-1.286c.21-.039.396-.117.56-.225l-.006.004q0-.632 0-1.259h.593c-.004-.161-.03-.316-.075-.461l.003.012-.554-.044v-.554c-.135-.05-.291-.081-.454-.083h-.001c0 .194 0 .383 0 .554l-1.37-.094-.078.061c-.208.183-.456.327-.728.417l-.015.004q1.109.061 2.218.1 0 .749 0 1.497zm10.563-.677c-.197-.539-.537-.986-.974-1.309l-.008-.005c-.826.072-1.663.144-2.479.238h-.161v.238h1.22l1.797.028q-.044 2.689 0 5.384c-1.037-.033-2.074-.061-3.111-.061v.222l1.286.139q.915.094 1.835.166c0 .089 0 .177 0 .272.198-.239.361-.516.476-.817l.007-.02q.033-2.218 0-4.436zm4.63 11.096c.133-1.913.189-3.837.216-5.756 1.486.05 2.978.089 4.469.039 0 2.19.094 4.375.233 6.56zm-.77 2.739c-.771-.233-1.553-.449-2.329-.654l-.998-.255c1.076-.333 2.146-.677 3.205-1.059l3.97.682zm-4.913 1.664c-.821-.299-1.663-.555-2.479-.837l-.926-.288q2.057-.555 4.092-1.159c1.314.272 2.634.527 3.965.726zm-4.275 1.436l-4.07-1.359c.787-.161 1.575-.344 2.357-.555l1.713-.427h.05c1.331.344 2.667.677 4.015.948zm-8.944-2.994c.721-.111 1.436-.238 2.151-.372l1.819-.355q2.035.61 4.087 1.159c-1.142.349-2.279.721-3.399 1.109zm-4.115-1.365l3.965-.682c.782.277 1.569.555 2.357.787l.859.266c-1.109.283-2.218.555-3.327.92zm-1.663-3.803q.055-1.663.078-3.366c.876 0 1.752 0 2.628 0q .932 0 1.858-.044 0 .837.033 1.663c.028 1.042.067 2.085.122 3.127 0 .044 0 .555.05.948l-4.918.843c.055-.943.116-3.033.122-3.188zm.05-10.358l.615.078c.66.083 1.325.161 1.985.227s1.248.116 1.869.166c0 .349 0 .699 0 1.054 0 1.664 0 3.327 0 4.957-1.497.122-2.994.255-4.48.477q0-1.286 0-2.567 0-2.218 0-4.386zm4.674-5.762c-.044.765-.1 2.251-.105 2.362q-.067 1.697-.094 3.394c-.993 0-3.665-.089-4.486-.061q0-1.27-.05-2.534c0-.227-.078-2.9-.144-4.003zm.776-2.772l.205.055c.704.211 1.42.41 2.129.599l1.004.261c-.815.25-1.625.51-2.429.782l-.793.277-3.97-.665zm4.93-1.664l.299.105c.721.255 1.447.494 2.174.732l.926.288q-2.052.555-4.092 1.159c-1.109-.222-2.174-.433-3.266-.615l-.721-.067zm4.286-1.436l4.076 1.364h-.133c-.749.155-1.492.327-2.218.51l-1.713.427h-.05q-1.597-.416-3.211-.776l-.81-.172zm8.944 2.995c-.721.111-1.436.238-2.151.371q-.909.172-1.819.355-2.041-.582-4.081-1.126c.821-.255 1.663-.516 2.451-.787l.954-.338zm-10.014 2.157c-.754.194-1.503.394-2.251.604l-.699.205-4.691-.804q1.054-.227 2.102-.482l1.663-.416q1.941.482 3.881.893zm1.081-.272q-1.952-.482-3.926-.898 1.968-.527 3.92-1.109 1.946.588 3.915 1.109-1.963.421-3.915.904zm3.582 1.17l-3.588.615-3.571-.615q.915-.15 1.824-.316l1.752-.344c1.109.222 2.179.433 3.272.615l.316.044zm-1.769-.704l-.754-.194q1.952-.416 3.881-.893c1.109.283 2.174.554 3.272.793l.499.105-4.68.81q-1.109-.327-2.218-.615zm3.189 18.154q.067-.882.105-1.769l-.266.1c0 .555.055 1.109.094 1.663l-4.863-.837h-.039c0-.133 0-.283.028-.427h-.133c0 .155 0 .305.028.433h-.039l-4.846.837c0-.327.044-.76.055-1.109h-.205c0 .05.033.643.061 1.076l-4.885.865c.044-.771.1-2.218.105-2.346q.067-1.702.094-3.41 2.246-.083 4.491-.261c0 .294 0 .588 0 .887 0 .139 0 .277 0 .421h.039c.136-.001.268-.013.397-.035l-.014.002q0-.654.028-1.309l1.181-.1c-.001-.148-.023-.291-.064-.426l.003.011-1.109.028c0-.333 0-.66 0-.993-.147-.038-.325-.069-.506-.087l-.015-.001q0 .555 0 1.109-2.218.083-4.475.255 0-.471 0-.943 0-2.495 0-4.99l1.663.116c-.239-.106-.42-.304-.503-.548l-.002-.007-1.159-.05q0-.798-.033-1.597c-.028-1.076-.067-2.151-.122-3.227 0-.044 0-.554-.05-.932l4.891.843c-.039.555-.078 1.486-.078 1.558s0 .172 0 .261h.299q0-.371-.033-.737c0-.05-.033-.632-.055-1.065l4.852.832h.033c0 .338-.044.737-.044.776 0 .128 0 .255 0 .388l.227-.028c0-.177-.039-.721-.067-1.109h.033l4.857-.837c-.055.776-.1 1.558-.128 2.34l.322.122c-.033-.826-.072-1.664-.133-2.473l4.907-.843c-.133 1.913-.189 3.837-.216 5.756l-1.863.089q.128.255.233.555l1.625-.116q0 .51 0 1.015c0 1.663 0 3.277 0 4.913l-1.486-.183q-.078.272-.172.555l1.663.072c0 1.924.089 3.843.222 5.761zm-3.921 1.558c.981-.25 1.963-.516 2.933-.804l4.691.804c-.693.15-1.386.311-2.074.477l-1.663.416q-1.941-.482-3.881-.893zm-1.103.272q1.952.482 3.92.898-1.968.555-3.92 1.109-1.946-.588-3.915-1.109 1.963-.421 3.915-.904zm-3.532-1.17l3.532-.604 3.532.61c-.599.1-1.192.205-1.785.316l-1.752.344c-1.17-.238-2.346-.471-3.527-.66zm1.697.698l.754.194q-1.952.416-3.881.893c-1.237-.322-2.479-.632-3.726-.893l4.68-.804c.726.216 1.453.416 2.185.61zm14.932-20.449l-3.976.682-.139-.05q-1.109-.388-2.218-.743l-.865-.266c.81-.205 1.619-.421 2.429-.649l.898-.266zm-1.031 7.164q-.926 0-1.846.044c0-1.919-.094-3.837-.222-5.75l4.913-.843c-.139 2.179-.194 4.364-.216 6.549-.671 0-2.484 0-2.623 0zm2.617 7.014c-.859-.128-1.724-.222-2.59-.311q-.932-.094-1.869-.166 0-.488 0-.981c0-1.663 0-3.327 0-5.029.981-.078 1.963-.166 2.944-.277.072 0 1.054-.105 1.525-.177q0 1.303 0 2.606c0 1.442 0 2.889 0 4.336zm.704 7.131s0-.033 0-.05c0-.007.001-.014.001-.022s0-.016-.001-.023v.001c0-.007.001-.014.001-.022s0-.016-.001-.023v.001-.161l-.028-.033-.033-.028h-.25c.194-3.055.227-6.099.238-9.182q0-.688 0-1.375c0-3.211-.044-6.427-.244-9.626h.05c.196-.036.347-.194.371-.391v-.002c0-.007.001-.016.001-.025s0-.018-.001-.026v.001c.001-.009.001-.02.001-.03s0-.021-.001-.032v.001c.011-.037.017-.079.017-.123 0-.241-.188-.439-.426-.454h-.001l-14.955-4.99h-.222l-14.949 4.99c-.044.014-.083.033-.118.056l.002-.001c-.107.074-.179.191-.194.325v.002c-.001.01-.001.022-.001.033s0 .023.001.035v-.002s0 0 0 .039v.028c.027.197.177.353.369.388h.003.039c-.05.865-.111 2.712-.122 3.138v.083c0 .161 0 .316 0 .477-.055 1.841-.078 3.682-.089 5.545v0 0q0 3.493.078 6.987s0 .039 0 .072c0 .488.078 2.883.144 3.881h-.266l-.033.028v.122h-.122c0 .006-.001.013-.001.019s0 .014.001.02v-.001c0 .007-.001.014-.001.022s0 .016.001.023v-.001c-.02.045-.032.097-.032.152s.012.108.033.155l-.001-.002s0 0 0 0v0 .161l.033.039.055.039.072.033 14.921 4.99h.283l14.916-4.99.216.061.055-.039.033-.039v-.161s0 0 0 0z"/></symbol><symbol id="icon-battery" viewBox="0 0 19 32"><path d="m16.436 5.552h-14.127c-.006-.002-.013-.003-.02-.003s-.014.001-.021.003h.001c-.002.006-.004.013-.004.02s.001.014.004.021l0 0v24.111c-.002.006-.003.013-.003.02s.001.014.003.021l0 0c .006.002.013.004.02.004s.014-.001.021-.004l0 0h14.133c.006.002.013.003.02.003s.014-.001.021-.003l0 0c .002-.006.004-.013.004-.02s-.001-.014-.004-.021l0 0v-24.094c.002-.006.003-.013.003-.02s-.001-.014-.003-.021l0 0c-.006-.002-.013-.004-.02-.004s-.014.001-.021.004l0 0zm-6.625 5.99v4.132h2.574c.249 0 .45.202.45.45v0c0 0 0 0 0 0 0 .071-.017.139-.047.198l.001-.003-3.007 7.341c-.065.169-.227.287-.416.287-.245 0-.444-.199-.444-.444 0-.004 0-.007 0-.011v.001-4.132h-2.574c-.001 0-.002 0-.002 0-.245 0-.444-.199-.444-.444 0-.074.018-.143.05-.204l-.001.002 3.012-7.335c.072-.155.226-.26.405-.26.238 0 .432.186.444.421v.001zm-7.503-8.229h3.861v-2.037c.003-.699.566-1.266 1.263-1.275h3.862c.703.003 1.272.572 1.275 1.275v2.037h3.867c1.275 0 2.308 1.034 2.308 2.308v0 0 24.082c0 1.275-1.034 2.308-2.308 2.308v0h-14.127c-1.275 0-2.308-1.034-2.308-2.308v0 0-24.094c0-1.275 1.034-2.308 2.308-2.308v0 0z"/></symbol><symbol id="icon-sorround" viewBox="0 0 58 32"><path d="m44.773 24.045h-31.129v-20.896h31.129zm2.099-24.045h-35.547c-.812 0-1.469.658-1.469 1.469v0 24.297c0 .811.658 1.469 1.469 1.469v0h35.547c.812 0 1.469-.658 1.469-1.469v0-24.297c0-.811-.658-1.469-1.469-1.469z"/><path d="m35.768 30.027h-1.27v-1.469h-10.8v1.469h-1.27c-.719 0-1.301.583-1.301 1.301v0 .661h15.953v-.661c0-.719-.583-1.301-1.301-1.301v0z"/><path d="m55.142 5.164c-1.026 0-1.858-.832-1.858-1.858s.832-1.858 1.858-1.858c1.026 0 1.858.832 1.858 1.858v0c0 1.026-.832 1.858-1.858 1.858zm0 5.121c-.58 0-1.05-.47-1.05-1.05s.47-1.05 1.05-1.05c.58 0 1.05.47 1.05 1.05v0c0 .58-.47 1.05-1.05 1.05zm0 4.408c-.58 0-1.05-.47-1.05-1.05s.47-1.05 1.05-1.05c.58 0 1.05.47 1.05 1.05v0c0 .58-.47 1.05-1.05 1.05zm0-14.693c-1.684.006-3.048 1.37-3.054 3.054v28.946h6.098v-28.946c-.006-1.681-1.364-3.042-3.042-3.054h-.001z"/><path d="m3.054 5.164c-1.026 0-1.858-.832-1.858-1.858s.832-1.858 1.858-1.858c1.026 0 1.858.832 1.858 1.858v0c0 1.026-.832 1.858-1.858 1.858zm0 5.121c-.58 0-1.05-.47-1.05-1.05s.47-1.05 1.05-1.05c.58 0 1.05.47 1.05 1.05v0c0 .58-.47 1.05-1.05 1.05zm0 4.408c-.58 0-1.05-.47-1.05-1.05s.47-1.05 1.05-1.05c.58 0 1.05.47 1.05 1.05v0c0 .58-.47 1.05-1.05 1.05zm0-14.693c-1.684.006-3.048 1.37-3.054 3.054v28.946h6.098v-28.946c-.006-1.681-1.364-3.042-3.042-3.054h-.001z"/><path d="m20.886 21.347h2.204c.417 0 .756-.338.756-.756v0-4.786c0-.417-.338-.756-.756-.756v0h-2.204c-.417 0-.756.338-.756.756v4.786c0 .417.338.756.756.756z"/><path d="m34.361 15.816v4.786c0 .417.338.756.756.756v0h2.183c.417 0 .756-.338.756-.756v0-4.786c0-.417-.338-.756-.756-.756v0h-2.183c-.417 0-.756.338-.756.756z"/><path d="m22.722 12.972c0-3.53 2.862-6.392 6.392-6.392s6.392 2.862 6.392 6.392v0 1.102h1.69v-1.102c0-4.463-3.618-8.081-8.081-8.081s-8.081 3.618-8.081 8.081v1.102h1.69z"/></symbol></defs></svg>