<svg style="position: absolute; width: 0; height: 0; overflow: hidden;" version="1.1" xmlns="http://www.w3.org/2000/svg" xmlns:xlink="http://www.w3.org/1999/xlink">
<defs>
<symbol id="icon-atom" viewBox="0 0 36 32">
<title>atom</title>
<path d="M34.531 16.327c-0.288 0.505-0.716 0.902-1.232 1.144l-0.017 0.007c-2.029 1.052-4.393 1.788-6.894 2.073l-0.094 0.009c-0.49-1.159-1.045-2.343-1.633-3.527 0.604-1.192 1.151-2.376 1.633-3.535 0.816 0.131 1.567 0.278 2.278 0.441 0.248 1.248 1.334 2.175 2.637 2.175 0.688 0 1.315-0.259 1.79-0.684l-0.003 0.002c0.596 0.318 1.894 1.020 1.535 1.894zM26.367 30.302c-0.906 0.547-2.449-0.718-3.118-1.216-1.524-1.249-2.864-2.626-4.038-4.138l-0.043-0.058c0.767-1.020 1.527-2.090 2.237-3.184 1.331-0.073 2.629-0.188 3.878-0.343 1.894 4.939 2.106 8.367 1.094 8.98zM16.833 21.747q1.273 0 2.539 0-0.637 0.931-1.265 1.788c-0.424-0.571-0.816-1.167-1.273-1.788zM15.624 26.555c-0.357-0.188-0.78-0.298-1.228-0.298-1.479 0-2.678 1.199-2.678 2.678 0 0.318 0.055 0.622 0.157 0.905l-0.006-0.019c-0.596 0.351-1.788 0.971-2.294 0.171-0.207-0.416-0.328-0.907-0.328-1.426 0-0.119 0.006-0.236 0.019-0.352l-0.001 0.014c0.19-2.53 0.793-4.872 1.743-7.026l-0.054 0.136c1.249 0.155 2.555 0.269 3.878 0.343 0.718 1.094 1.469 2.163 2.245 3.184-0.49 0.612-0.98 1.175-1.453 1.698zM1.633 16.008c0-1.167 3.069-2.694 8.294-3.535 0.482 1.159 1.029 2.335 1.633 3.535-0.604 1.184-1.151 2.367-1.633 3.527-5.224-0.833-8.294-2.392-8.294-3.527zM9.306 4.457c-0.065-0.718-0.22-2.269 0.563-2.718-0.082 0.049-0.473 0.278 0 0v0c0.767-0.433 1.992 0.425 2.58 0.816-0.096 0.265-0.152 0.571-0.152 0.89 0 1.483 1.202 2.686 2.686 2.686 0.385 0 0.752-0.081 1.083-0.227l-0.017 0.007c0.343 0.392 0.686 0.816 1.037 1.233-0.816 1.020-1.535 2.090-2.237 3.184-1.339 0.065-2.637 0.188-3.894 0.343-0.78-1.813-1.354-3.918-1.622-6.117l-0.011-0.112zM18.131 8.465c0.424 0.563 0.816 1.159 1.265 1.788-0.816 0-1.698 0-2.539 0 0.433-0.629 0.816-1.233 1.273-1.788zM23.739 14.229c-0.416-0.743-0.816-1.486-1.282-2.212q1.143 0.090 2.196 0.212c-0.286 0.653-0.596 1.314-0.914 1.992zM23.078 18.922v-0.057l0.629-1.11q0.49 1.029 0.906 1.992c-0.702 0.082-1.429 0.155-2.188 0.212 0.212-0.343 0.424-0.686 0.62-1.037zM13.388 16.008c0.743-1.388 1.51-2.767 2.359-4.082q2.359-0.082 4.718 0c0.816 1.331 1.633 2.694 2.351 4.082q-1.102 2.090-2.351 4.082-2.359 0.090-4.718 0c-0.816-1.322-1.633-2.694-2.359-4.082zM11.592 12.245c0.694-0.082 1.42-0.155 2.18-0.212-0.449 0.718-0.865 1.461-1.273 2.204q-0.49-1.012-0.906-1.992zM12.498 17.771c0.408 0.743 0.816 1.478 1.273 2.204-0.759-0.057-1.478-0.131-2.18-0.212q0.416-0.963 0.906-1.992zM25.935 1.633c1.127 0 1.004 1.845 1.004 2.563-0.235 2.391-0.813 4.587-1.688 6.626l0.055-0.145c-1.249-0.155-2.555-0.278-3.886-0.343-0.718-1.086-1.469-2.163-2.237-3.184 2.8-3.535 5.363-5.518 6.751-5.518zM36.204 16c0-1.184-0.898-2.196-2.449-3.029 0.036-0.165 0.057-0.354 0.057-0.548 0-1.47-1.191-2.661-2.661-2.661-1.052 0-1.961 0.61-2.393 1.495l-0.007 0.016c-0.604-0.139-1.233-0.253-1.886-0.359 0.81-1.908 1.388-4.119 1.624-6.432l0.008-0.098c0.090-1.306 0-2.996-1.11-3.878-1.396-1.094-3.265-0.188-4.506 0.669-1.841 1.349-3.427 2.894-4.776 4.632l-0.040 0.054c-0.286-0.351-0.571-0.694-0.857-1.012 0.223-0.382 0.354-0.841 0.354-1.331 0-1.479-1.199-2.678-2.678-2.678-0.548 0-1.058 0.165-1.483 0.448l0.010-0.006c-1.127-0.816-2.718-1.682-4.082-1.094-0.806 0.393-1.385 1.145-1.532 2.041l-0.002 0.016c-0.091 0.495-0.143 1.065-0.143 1.647 0 0.756 0.088 1.492 0.254 2.197l-0.013-0.065c0.374 1.88 0.864 3.521 1.489 5.093l-0.068-0.195c-2.472 0.33-4.714 1.009-6.782 1.993l0.137-0.059c-1.224 0.612-2.669 1.624-2.669 3.151s1.453 2.531 2.661 3.151c1.929 0.925 4.167 1.604 6.52 1.922l0.117 0.013c-0.947 2.506-1.951 5.437-1.633 8.163 0.056 0.921 0.486 1.732 1.138 2.29l0.004 0.004c1.233 0.914 2.865 0.278 4.024-0.433 0.419 0.282 0.934 0.451 1.489 0.451 1.483 0 2.686-1.202 2.686-2.686 0-0.409-0.092-0.797-0.255-1.145l0.007 0.016c0.449-0.498 0.906-1.020 1.347-1.567 1.39 1.788 2.976 3.33 4.75 4.631l0.066 0.046c1.249 0.816 3.135 1.771 4.522 0.661 1.127-0.947 1.2-2.661 1.127-3.992-0.259-2.385-0.835-4.567-1.69-6.604l0.058 0.155c5.306-0.873 9.298-2.58 9.298-5.086z"></path>
<path d="M18.106 18.669c1.474 0 2.669-1.195 2.669-2.669s-1.195-2.669-2.669-2.669c-1.474 0-2.669 1.195-2.669 2.669v0c0.014 1.469 1.201 2.656 2.668 2.669h0.001z"></path>
</symbol>
<symbol id="icon-phones" viewBox="0 0 42 32">
<title>phones</title>
<path d="M31.564 14.098h-2.127c-0.738 0-1.337 0.598-1.337 1.337v0 15.228c0 0.738 0.598 1.337 1.337 1.337v0h2.12c0.738 0 1.337-0.598 1.337-1.337v0-15.228c0-0.738-0.598-1.337-1.337-1.337v0zM36.992 15.575c-0.247-8.642-7.312-15.553-15.99-15.553-8.65 0-15.696 6.866-15.987 15.445l-0.001 0.027c-2.941 1.3-4.956 4.191-4.956 7.554 0 4.228 3.186 7.712 7.288 8.181l0.038 0.004c0.022 0.002 0.048 0.003 0.074 0.003 0.445 0 0.805-0.36 0.805-0.805 0-0.001 0-0.002 0-0.004v0-14.77c-0.002-0.443-0.362-0.801-0.805-0.801-0.026 0-0.052 0.001-0.077 0.004l0.003-0c-0.162 0-0.325 0.052-0.487 0.074 0.575-7.36 6.689-13.114 14.146-13.114s13.571 5.754 14.143 13.065l0.003 0.049c-0.222-0.044-0.436-0.081-0.665-0.103-0.022-0.002-0.048-0.003-0.074-0.003-0.445 0-0.805 0.36-0.805 0.805 0 0.001 0 0.002 0 0.004v-0 14.77c0 0.001 0 0.002 0 0.003 0 0.445 0.36 0.805 0.805 0.805 0.026 0 0.052-0.001 0.077-0.004l-0.003 0c4.126-0.483 7.297-3.958 7.297-8.174 0-3.31-1.954-6.163-4.772-7.468l-0.051-0.021zM13.751 15.435v15.228c0 0.738-0.598 1.337-1.337 1.337v0h-2.127c-0.738 0-1.337-0.598-1.337-1.337v0-15.228c0-0.738 0.598-1.337 1.337-1.337h2.12c0.738 0 1.337 0.598 1.337 1.337v0z"></path>
</symbol>
<symbol id="icon-sound" viewBox="0 0 47 32">
<title>sound</title>
<path d="M1.527 0.83h-1.527v-0.274h0.456v0.274zM1.527 29.204h-1.527v-28.374h1.527zM0 29.221h1.527v0.572l0.133 0.075v0.083h0.83v1.659h-0.738l-0.091 0.224-0.116-0.050-0.216-0.116-0.108-0.066-0.124-0.075-0.1-0.075-0.091-0.083-0.075-0.091-0.083-0.091-0.083-0.1-0.075-0.1-0.091-0.108-0.066-0.108-0.066-0.075-0.058-0.116-0.058-0.158-0.050-0.124-0.041-0.124v-0.962zM2.489 30.308h43.765v1.659h-43.765zM46.245 31.967v-1.659h0.216v0.506h-0.224z"></path>
<path d="M4.688 26.101h5.144c0.019-0.001 0.040-0.002 0.062-0.002 0.509 0 0.928 0.389 0.975 0.886l0 0.004v0.39c-0.047 0.501-0.466 0.89-0.975 0.89-0.022 0-0.044-0.001-0.065-0.002l0.003 0h-5.144c-0.019 0.001-0.040 0.002-0.062 0.002-0.509 0-0.928-0.389-0.975-0.886l-0-0.004v-0.39c0.047-0.501 0.466-0.89 0.975-0.89 0.022 0 0.044 0.001 0.065 0.002l-0.003-0z"></path>
<path d="M4.688 25.719v0.722h-0.307v0.207h-1.062v-0.772l0.041-0.050 0.041-0.041 0.050-0.041h0.971zM4.016 27.379h-0.697v-0.39h0.73zM3.319 27.379h0.722v0.207h0.307v0.722h-0.631l-0.041-0.1h-0.050l-0.041-0.050v-0.78zM4.721 27.91h5.144v0.722h-5.177zM9.865 28.632v-0.722h0.307v-0.531h0.722v0.772l-0.041 0.050-0.041 0.041-0.050 0.041h-0.971zM10.537 26.972h0.73v0.407h-0.73zM11.258 26.972h-0.722v-0.207h-0.307v-1.045h0.971l0.050 0.041 0.041 0.041 0.041 0.050v0.772zM9.856 26.441h-5.169v-0.722h5.144z"></path>
<path d="M13.358 26.101h5.144c0.019-0.001 0.040-0.002 0.062-0.002 0.509 0 0.928 0.389 0.975 0.886l0 0.004v0.39c-0.047 0.501-0.466 0.89-0.975 0.89-0.022 0-0.044-0.001-0.065-0.002l0.003 0h-5.144c-0.021 0.002-0.046 0.003-0.070 0.003-0.509 0-0.928-0.389-0.975-0.886l-0-0.004v-0.39c0.047-0.501 0.466-0.89 0.975-0.89 0.022 0 0.044 0.001 0.065 0.002l-0.003-0z"></path>
<path d="M13.358 25.719v0.722h-0.307v0.207h-0.73v-0.772l0.041-0.050 0.041-0.041 0.050-0.041h0.971zM12.685 27.379h-0.73v-0.39h0.73zM11.955 27.379h0.73v0.207h0.307v0.722h-0.971l0.315-0.1h-0.050l-0.041-0.050v-0.78zM13.358 27.91h5.144v0.722h-5.144zM18.501 28.632v-0.722h0.307v-0.531h1.103v0.772l-0.041 0.050-0.041 0.041-0.050 0.041h-1.278zM19.173 26.972h0.738v0.407h-0.722zM19.904 26.972h-0.73v-0.207h-0.672v-1.045h0.971l0.050 0.041 0.041 0.041 0.041 0.050v0.772zM18.501 26.441h-5.144v-0.722h5.144z"></path>
<path d="M22.019 26.101h5.144c0.021-0.002 0.046-0.003 0.070-0.003 0.509 0 0.928 0.389 0.975 0.886l0 0.004v0.39c-0.047 0.501-0.466 0.89-0.975 0.89-0.022 0-0.044-0.001-0.065-0.002l0.003 0h-5.144c-0.021 0.002-0.046 0.003-0.070 0.003-0.509 0-0.928-0.389-0.975-0.886l-0-0.004v-0.39c0.047-0.501 0.466-0.89 0.975-0.89 0.022 0 0.044 0.001 0.065 0.002l-0.003-0z"></path>
<path d="M22.019 25.719v0.722h-0.307v0.207h-0.722v-0.39l-0.249 0.29v-0.324l0.041-0.050 0.041-0.041 0.050-0.041h0.971zM21.347 27.379h-0.722v-0.39h0.722zM20.625 27.379h0.722v0.207h0.307v0.722h-0.971l0.315-0.1h-0.041l-0.041-0.050v-0.78zM22.027 27.91h5.144v0.722h-5.144zM27.171 28.632v-0.722h0.307v-0.531h0.73v0.83l-0.050 0.041h-0.971zM27.843 26.972h0.722v0.407h-0.722zM28.573 26.972h-0.73v-0.207h-0.307v-1.045h0.971l0.050 0.041 0.041 0.041 0.041 0.050v0.772zM27.171 26.441h-5.144v-0.722h5.144z"></path>
<path d="M30.697 26.101h5.144c0.019-0.001 0.040-0.002 0.062-0.002 0.509 0 0.928 0.389 0.975 0.886l0 0.004v0.39c-0.047 0.501-0.466 0.89-0.975 0.89-0.022 0-0.044-0.001-0.065-0.002l0.003 0h-5.144c-0.024 0.002-0.051 0.003-0.079 0.003-0.51 0-0.928-0.389-0.975-0.887l-0-0.004v-0.39c0.047-0.501 0.465-0.891 0.975-0.891 0.028 0 0.055 0.001 0.082 0.003l-0.004-0z"></path>
<path d="M30.697 25.719v0.722h-0.307v0.207h-0.722v-0.772l0.041-0.050 0.041-0.041 0.050-0.041h0.896zM30.025 27.379h-0.722v-0.39h0.722zM29.304 27.379h0.722v0.207h0.672v0.722h-0.971l-0.058-0.1h-0.050l-0.041-0.050v-0.78zM30.706 27.91h5.144v0.722h-5.152zM35.85 28.632v-0.722h0.307v-0.531h0.722v0.772l-0.041 0.050-0.041 0.041-0.050 0.041h-0.971zM36.522 26.972h0.722v0.407h-0.738zM37.243 26.972h-0.738v-0.207h-0.307v-1.045h0.971l0.050 0.041 0.041 0.041 0.041 0.050v0.772zM35.841 26.441h-5.144v-0.722h5.144z"></path>
<path d="M39.351 26.101h5.144c0.019-0.001 0.040-0.002 0.062-0.002 0.509 0 0.928 0.389 0.975 0.886l0 0.004v0.39c-0.047 0.501-0.466 0.89-0.975 0.89-0.022 0-0.044-0.001-0.065-0.002l0.003 0h-5.144c-0.019 0.001-0.040 0.002-0.062 0.002-0.509 0-0.928-0.389-0.975-0.886l-0-0.004v-0.39c0.047-0.501 0.466-0.89 0.975-0.89 0.022 0 0.044 0.001 0.065 0.002l-0.003-0z"></path>
<path d="M39.351 25.719v0.722h-0.307v0.207h-0.722v-0.772l0.041-0.050 0.041-0.041 0.050-0.041h0.971zM38.679 27.379h-0.722v-0.39h0.722zM37.957 27.379h0.722v0.207h0.307v0.722h-0.606l-0.050-0.1h-0.041l-0.041-0.050v-0.78zM39.359 27.91h5.144v0.722h-5.144zM44.503 28.632v-0.722h0.299v-0.531h0.73v0.772l-0.041 0.050-0.041 0.041-0.050 0.041h-0.971zM45.175 26.972h0.73v0.407h-0.73zM45.905 26.972h-0.73v-0.207h-0.307v-1.045h0.631l0.050 0.041 0.041 0.041 0.041 0.050v0.772zM44.503 26.441h-5.144v-0.722h5.144z"></path>
<path d="M4.688 22.492h5.144c0.021-0.002 0.045-0.003 0.070-0.003 0.508 0 0.925 0.39 0.967 0.887l0 0.004v0.39c-0.047 0.501-0.466 0.89-0.975 0.89-0.022 0-0.044-0.001-0.065-0.002l0.003 0h-5.144c-0.019 0.001-0.040 0.002-0.062 0.002-0.509 0-0.928-0.389-0.975-0.886l-0-0.004v-0.39c0.043-0.5 0.46-0.89 0.967-0.89 0.025 0 0.049 0.001 0.073 0.003l-0.003-0z"></path>
<path d="M4.688 22.127v0.722h-0.307v0.207h-1.062v-0.772l0.041-0.050 0.041-0.041 0.050-0.041h0.971zM4.016 23.786h-0.697v-0.39h0.73zM3.294 23.786h0.722v0.207h0.307v0.722h-0.108l-0.066 0.174h-0.44l-0.050-0.041-0.041-0.041-0.041-0.050v-0.382l-0.257-0.315v-0.265zM4.696 24.317h5.144v0.722h-5.152zM9.84 25.039v-0.722h0.307v-0.207h0.722v0.772l-0.041 0.050-0.041 0.041-0.050 0.041h-0.971zM10.512 23.38h0.73v0.39h-0.73zM11.234 23.38h-0.722v-0.207h-0.307v-0.722h0.871l-0.29-0.050h0.050l0.050 0.041 0.041 0.041 0.041 0.050v0.772zM9.831 22.849h-5.144v-0.722h5.144z"></path>
<path d="M13.358 22.492h5.144c0.021-0.002 0.045-0.003 0.070-0.003 0.508 0 0.924 0.39 0.967 0.887l0 0.004v0.39c-0.047 0.501-0.466 0.89-0.975 0.89-0.022 0-0.044-0.001-0.065-0.002l0.003 0h-5.144c-0.019 0.001-0.040 0.002-0.062 0.002-0.509 0-0.928-0.389-0.975-0.886l-0-0.004v-0.39c0.043-0.5 0.46-0.89 0.967-0.89 0.025 0 0.049 0.001 0.073 0.003l-0.003-0z"></path>
<path d="M13.358 22.127v0.722h-0.307v0.207h-0.73v-0.772l0.041-0.050 0.041-0.041 0.050-0.041-0.008 0.249h0.871zM12.685 23.786h-0.73v-0.39h0.73zM11.955 23.786h0.73v0.207h0.307v0.722h-0.971l-0.050-0.041-0.041-0.041-0.041-0.050v-0.772zM13.358 24.317h5.144v0.722h-5.144zM18.501 25.039v-0.722h0.307v-0.207h1.103v0.772l-0.041 0.050-0.041 0.041-0.050 0.041h-0.324l-0.373-0.124h-0.581zM19.173 23.38h0.738v0.39h-0.722zM19.904 23.38h-0.73v-0.207h-0.672v-0.722h0.971l0.050 0.041 0.041 0.041 0.041 0.050v0.772zM18.501 22.849h-5.144v-0.722h5.144z"></path>
<path d="M22.019 22.492h5.144c0.023-0.002 0.051-0.003 0.078-0.003 0.508 0 0.925 0.39 0.967 0.887l0 0.004v0.39c-0.047 0.501-0.466 0.89-0.975 0.89-0.022 0-0.044-0.001-0.065-0.002l0.003 0h-5.144c-0.019 0.001-0.040 0.002-0.062 0.002-0.509 0-0.928-0.389-0.975-0.886l-0-0.004v-0.39c0.043-0.5 0.46-0.89 0.967-0.89 0.025 0 0.049 0.001 0.073 0.003l-0.003-0z"></path>
<path d="M22.019 22.127v0.722h-0.307v0.207h-0.722v-0.772l0.041-0.050 0.041-0.041 0.050-0.041h0.971zM21.347 23.786h-0.722v-0.39h0.722zM20.625 23.786h0.722v0.207h0.307v0.722h-0.971l-0.050-0.041-0.041-0.041-0.041-0.050v-0.772zM22.027 24.317h5.144v0.722h-5.144zM27.171 25.039v-0.722h0.307v-0.207h0.73v0.772l-0.041 0.050-0.041 0.041-0.050 0.041h-0.971zM27.843 23.38h0.722v0.39h-0.722zM28.573 23.38h-0.73v-0.207h-0.307v-0.722h0.971l0.050 0.041 0.041 0.041 0.041 0.050v0.772zM27.171 22.849h-5.144v-0.722h5.144z"></path>
<path d="M30.697 22.492h5.144c0.019-0.001 0.040-0.002 0.062-0.002 0.509 0 0.928 0.389 0.975 0.886l0 0.004v0.39c-0.047 0.501-0.466 0.89-0.975 0.89-0.022 0-0.044-0.001-0.065-0.002l0.003 0h-5.144c-0.019 0.001-0.040 0.002-0.062 0.002-0.509 0-0.928-0.389-0.975-0.886l-0-0.004v-0.39c0.047-0.501 0.466-0.89 0.975-0.89 0.022 0 0.044 0.001 0.065 0.002l-0.003-0z"></path>
<path d="M30.697 22.127v0.722h-0.307v0.207h-0.722v-0.772l0.041-0.050 0.041-0.041 0.050-0.041h0.1l-0.033 0.249h0.83zM30.025 23.786h-0.722v-0.39h0.722zM29.304 23.786h0.722v0.207h0.672v0.722h-0.971l-0.050-0.041-0.041-0.041-0.041-0.050v-0.772zM30.706 24.317h5.144v0.722h-5.152zM35.85 25.039v-0.722h0.307v-0.207h0.722v0.772l-0.041 0.050-0.041 0.041-0.050 0.041h-0.266l0.025-0.124h-0.647zM36.522 23.38h0.722v0.39h-0.738zM37.243 23.38h-0.738v-0.207h-0.307v-0.722h0.971l0.050 0.041 0.041 0.041 0.041 0.050v0.772zM35.841 22.849h-5.144v-0.722h5.144z"></path>
<path d="M39.351 22.492h5.144c0.021-0.002 0.045-0.003 0.070-0.003 0.508 0 0.925 0.39 0.967 0.887l0 0.004v0.39c-0.047 0.501-0.466 0.89-0.975 0.89-0.022 0-0.044-0.001-0.065-0.002l0.003 0h-5.144c-0.019 0.001-0.040 0.002-0.062 0.002-0.509 0-0.928-0.389-0.975-0.886l-0-0.004v-0.39c0.043-0.5 0.46-0.89 0.967-0.89 0.025 0 0.049 0.001 0.073 0.003l-0.003-0z"></path>
<path d="M39.351 22.127v0.722h-0.307v0.207h-0.722v-0.772l0.041-0.050 0.041-0.041 0.050-0.041h0.971zM38.679 23.786h-0.722v-0.39h0.722zM37.957 23.786h0.722v0.207h0.307v0.722h-0.606l-0.050-0.041-0.041-0.041-0.041-0.050v-0.772zM39.359 24.317h5.144v0.722h-5.144zM44.503 25.039v-0.722h0.299v-0.207h0.73v0.772l-0.041 0.050-0.041 0.041-0.050 0.041h-0.971zM45.175 23.38h0.73v0.39h-0.73zM45.905 23.38h-0.73v-0.207h-0.307v-0.722h0.631l0.050 0.041 0.041 0.041 0.041 0.050v0.772zM44.503 22.849h-5.144v-0.722h5.144z"></path>
<path d="M4.688 18.883h5.144c0.019-0.001 0.040-0.002 0.062-0.002 0.509 0 0.928 0.389 0.975 0.886l0 0.004v0.39c-0.047 0.501-0.466 0.89-0.975 0.89-0.022 0-0.044-0.001-0.065-0.002l0.003 0h-5.144c-0.019 0.001-0.040 0.002-0.062 0.002-0.509 0-0.928-0.389-0.975-0.886l-0-0.004v-0.39c0.047-0.501 0.466-0.89 0.975-0.89 0.022 0 0.044 0.001 0.065 0.002l-0.003-0z"></path>
<path d="M4.688 18.518v0.722h-0.307v0.207h-1.062v-0.772l0.041-0.050 0.041-0.041 0.050-0.041h0.971zM4.016 20.177h-0.697v-0.39h0.73zM3.319 20.161h0.722v0.207h0.307v0.722h-0.631l-0.050-0.041-0.041-0.041-0.041-0.050v-0.796zM4.721 20.692h5.144v0.722h-5.177zM9.865 21.414v-0.722h0.307v-0.531h0.722v0.772l-0.041 0.050-0.041 0.041-0.050 0.041h-0.971zM10.537 19.754h0.73v0.39h-0.73zM11.258 19.754h-0.722v-0.207h-0.307v-0.722h0.971l0.050 0.041 0.041 0.041 0.041 0.050v0.772zM9.856 19.223h-5.169v-0.722h5.144z"></path>
<path d="M13.358 18.883h5.144c0.019-0.001 0.040-0.002 0.062-0.002 0.509 0 0.928 0.389 0.975 0.886l0 0.004v0.39c-0.047 0.501-0.466 0.89-0.975 0.89-0.022 0-0.044-0.001-0.065-0.002l0.003 0h-5.144c-0.019 0.001-0.040 0.002-0.062 0.002-0.509 0-0.928-0.389-0.975-0.886l-0-0.004v-0.39c0.047-0.501 0.466-0.89 0.975-0.89 0.022 0 0.044 0.001 0.065 0.002l-0.003-0z"></path>
<path d="M13.358 18.518v0.722h-0.307v0.207h-0.73v-0.772l0.041-0.050 0.041-0.041 0.050-0.041h0.971zM12.685 20.177h-0.73v-0.39h0.73zM11.955 20.177h0.73v0.207h0.307v0.722h-0.971l-0.050-0.041-0.041-0.041-0.041-0.050v-0.813zM13.358 20.708h5.144v0.722h-5.144zM18.501 21.43v-0.722h0.307v-0.548h1.103v0.772l-0.041 0.050-0.041 0.041-0.050 0.041h-1.278zM19.173 19.771h0.738v0.39h-0.722zM19.904 19.771h-0.73v-0.207h-0.672v-0.722h0.971l0.050 0.041 0.041 0.041 0.041 0.050v0.772zM18.501 19.24h-5.144v-0.722h5.144z"></path>
<path d="M22.019 18.883h5.144c0.021-0.002 0.046-0.003 0.070-0.003 0.509 0 0.928 0.389 0.975 0.886l0 0.004v0.39c-0.047 0.501-0.466 0.89-0.975 0.89-0.022 0-0.044-0.001-0.065-0.002l0.003 0h-5.144c-0.019 0.001-0.040 0.002-0.062 0.002-0.509 0-0.928-0.389-0.975-0.886l-0-0.004v-0.39c0.047-0.501 0.466-0.89 0.975-0.89 0.022 0 0.044 0.001 0.065 0.002l-0.003-0z"></path>
<path d="M22.019 18.518v0.722h-0.307v0.207h-0.722v-0.772l0.041-0.050 0.041-0.041 0.050-0.041h0.971zM21.347 20.177h-0.722v-0.39h0.722zM20.625 20.177h0.722v0.207h0.307v0.722h-0.971l-0.050-0.041-0.041-0.041-0.041-0.050v-0.149l0.191-0.083v-0.581zM22.027 20.708h5.144v0.722h-5.144zM27.171 21.43v-0.722h0.307v-0.548h0.73v0.772l-0.041 0.050-0.041 0.041-0.050 0.041h-0.971zM27.843 19.771h0.722v0.39h-0.722zM28.573 19.771h-0.73v-0.207h-0.307v-0.722h0.971l0.050 0.041 0.041 0.041 0.041 0.050v0.772zM27.171 19.24h-5.144v-0.722h5.144z"></path>
<path d="M30.697 18.883h5.144c0.019-0.001 0.040-0.002 0.062-0.002 0.509 0 0.928 0.389 0.975 0.886l0 0.004v0.39c-0.047 0.501-0.466 0.89-0.975 0.89-0.022 0-0.044-0.001-0.065-0.002l0.003 0h-5.144c-0.019 0.001-0.040 0.002-0.062 0.002-0.509 0-0.928-0.389-0.975-0.886l-0-0.004v-0.39c0.047-0.501 0.466-0.89 0.975-0.89 0.022 0 0.044 0.001 0.065 0.002l-0.003-0z"></path>
<path d="M30.697 18.518v0.722h-0.307v0.207h-0.722v-0.772l0.041-0.050 0.041-0.041 0.050-0.041h0.896zM30.025 20.177h-0.722v-0.39h0.722zM29.304 20.177h0.722v0.207h0.672v0.722h-0.971l-0.050-0.041-0.041-0.041-0.041-0.050v-0.813zM30.706 20.708h5.144v0.722h-5.152zM35.85 21.43v-0.722h0.307v-0.548h0.722v0.772l-0.041 0.050-0.041 0.041-0.050 0.041h-0.971zM36.522 19.771h0.722v0.39h-0.738zM37.243 19.771h-0.738v-0.207h-0.307v-0.722h0.971l0.050 0.041 0.041 0.041 0.041 0.050v0.772zM35.841 19.24h-5.144v-0.722h5.144z"></path>
<path d="M39.351 18.883h5.144c0.019-0.001 0.040-0.002 0.062-0.002 0.509 0 0.928 0.389 0.975 0.886l0 0.004v0.39c-0.047 0.501-0.466 0.89-0.975 0.89-0.022 0-0.044-0.001-0.065-0.002l0.003 0h-5.144c-0.019 0.001-0.040 0.002-0.062 0.002-0.509 0-0.928-0.389-0.975-0.886l-0-0.004v-0.39c0.047-0.501 0.466-0.89 0.975-0.89 0.022 0 0.044 0.001 0.065 0.002l-0.003-0z"></path>
<path d="M39.351 18.518v0.722h-0.307v0.207h-0.722v-0.622l-0.158 0.257v-0.050l0.041-0.050 0.041-0.041 0.050-0.041h0.971zM38.679 20.177h-0.722v-0.39h0.722zM37.957 20.177h0.722v0.207h0.307v0.722h-0.606l-0.050-0.041-0.041-0.041-0.041-0.050v-0.1l-0.083-0.133v-0.581zM39.359 20.708h5.144v0.722h-5.144zM44.503 21.43v-0.722h0.299v-0.548h0.73v0.772l-0.041 0.050-0.041 0.041-0.050 0.041h-0.971zM45.175 19.771h0.73v0.39h-0.73zM45.905 19.771h-0.73v-0.207h-0.307v-0.722h0.631l0.050 0.041 0.041 0.041 0.041 0.050v0.83zM44.503 19.24h-5.144v-0.722h5.144z"></path>
<path d="M4.688 14.934v0.722h-0.274v0.207h-1.095v-0.481l0.041-0.050 0.041-0.041 0.050-0.041h0.971zM4.016 16.593h-0.697v-0.39h0.73zM3.294 16.593h0.722v0.207h0.307v0.722h-0.606l-0.041-0.1-0.041-0.041-0.041-0.050v-0.772zM4.696 17.124h5.144v0.722h-5.152zM9.84 17.846v-0.722h0.307v-0.207h0.722v0.772l-0.041 0.050-0.041 0.041v-0.357h-0.971zM10.512 16.187h0.73v0.39h-0.73zM11.234 16.187h-0.722v-0.207h-0.282v-1.045h0.971l0.050 0.041 0.041 0.041 0.041 0.050v0.772zM9.831 15.656h-5.144v-0.722h5.144z"></path>
<path d="M13.358 15.266h5.144c0.019-0.001 0.040-0.002 0.062-0.002 0.509 0 0.928 0.389 0.975 0.886l0 0.004v0.39c-0.051 0.497-0.468 0.881-0.974 0.881-0.022 0-0.044-0.001-0.066-0.002l0.003 0h-5.144c-0.019 0.001-0.040 0.002-0.062 0.002-0.509 0-0.928-0.389-0.975-0.886l-0-0.004v-0.39c0.051-0.497 0.468-0.881 0.974-0.881 0.022 0 0.044 0.001 0.066 0.002l-0.003-0z"></path>
<path d="M13.358 14.934v0.722h-0.282v0.207h-0.73v-0.772l0.041-0.050 0.041-0.041 0.050-0.041h0.971zM12.685 16.593h-0.73v-0.39h0.73zM11.955 16.593h0.73v0.207h0.307v0.722h-0.971l0.315-0.1-0.041-0.041-0.041-0.050v-0.772zM13.358 17.124h5.144v0.722h-5.144zM18.501 17.846v-0.722h0.307v-0.207h1.103v0.772l-0.041 0.050-0.041 0.041-0.050 0.041h-1.278zM19.173 16.187h0.738v0.39h-0.722zM19.904 16.187h-0.73v-0.207h-0.672v-1.045h0.971l0.050 0.041 0.041 0.041 0.041 0.050v0.772zM18.501 15.656h-5.144v-0.722h5.144z"></path>
<path d="M22.019 14.934v0.722h-0.282v0.207h-0.722v-0.772l0.041-0.050 0.041-0.041 0.050-0.041h0.971zM21.347 16.593h-0.722v-0.39h0.722zM20.625 16.593h0.722v0.207h0.307v0.722h-0.971l0.315-0.1-0.041-0.041-0.041-0.050v-0.772zM22.027 17.124h5.144v0.722h-5.144zM27.171 17.846v-0.722h0.307v-0.207h0.73v0.772l-0.041 0.050 0.041-0.315-0.050 0.041h-0.971zM27.843 16.187h0.722v0.39h-0.722zM28.573 16.187h-0.73v-0.207h-0.282v-1.045h0.971l0.050 0.041 0.041 0.041 0.041 0.050v0.772zM27.171 15.656h-5.144v-0.722h5.144z"></path>
<path d="M30.697 15.266h5.144c0.019-0.001 0.040-0.002 0.062-0.002 0.509 0 0.928 0.389 0.975 0.886l0 0.004v0.39c-0.051 0.498-0.468 0.883-0.974 0.883-0.028 0-0.056-0.001-0.083-0.003l0.004 0h-5.127c-0.019 0.001-0.040 0.002-0.062 0.002-0.509 0-0.928-0.389-0.975-0.886l-0-0.004v-0.39c0.051-0.497 0.468-0.881 0.974-0.881 0.022 0 0.044 0.001 0.066 0.002l-0.003-0z"></path>
<path d="M30.697 14.934v0.722h-0.282v0.207h-0.722v-0.772l0.041-0.050 0.041-0.041 0.050-0.041h0.871zM30.025 16.593h-0.722v-0.39h0.722zM29.304 16.593h0.722v0.207h0.672v0.722h-0.971l-0.058-0.1-0.041-0.041-0.041-0.050v-0.772zM30.706 17.124h5.144v0.722h-5.152zM35.85 17.846v-0.722h0.307v-0.207h0.722v0.772l-0.041 0.050-0.041 0.041-0.050 0.041h-0.971zM36.522 16.187h0.722v0.39h-0.738zM37.243 16.187h-0.738v-0.207h-0.282v-1.045h0.971l0.050 0.041 0.041 0.041 0.041 0.050v0.772zM35.841 15.656h-5.144v-0.722h5.144z"></path>
<path d="M39.351 14.934v0.722h-0.282v0.207h-0.722v-0.772l0.041-0.050 0.041-0.041 0.050-0.041h0.564l-0.050-0.025h0.34zM38.679 16.593h-0.722v-0.39h0.722zM37.957 16.593h0.722v0.207h0.307v0.722h-0.606l-0.050-0.1-0.041-0.041-0.041-0.050v-0.772zM39.359 17.124h5.144v0.722h-5.144zM44.503 17.846v-0.722h0.299v-0.207h0.73v0.772l-0.041 0.050-0.041 0.041 0.017-0.357h-0.971zM45.175 16.187h0.73v0.39h-0.73zM45.905 16.187h-0.73v-0.207h-0.282v-1.045h0.539l0.050 0.041 0.041 0.041 0.041 0.050v0.772zM44.503 15.656h-5.144v-0.722h5.144z"></path>
<path d="M4.688 11.3v0.722h-0.307v0.207h-1.062v-0.772l0.041-0.050 0.041-0.041 0.315 0.249h0.971zM4.016 12.959h-0.697v-0.39h0.73zM3.294 12.959h0.722v0.207h0.307v0.722h-0.108l-0.066 0.216h-0.44l-0.050-0.041-0.041-0.041-0.041-0.050v-0.382l-0.257-0.315v-0.332zM4.696 13.49h5.144v0.722h-5.152zM9.84 14.212v-0.722h0.307v-0.207h0.722v0.772l-0.041 0.050-0.041 0.041-0.050 0.041h-0.971zM10.512 12.553h0.73v0.39h-0.73zM11.234 12.553h-0.722v-0.207h-0.307v-0.722h0.871l-0.29-0.008 0.050 0.041 0.041 0.041 0.041 0.050v0.772zM9.831 12.022h-5.144v-0.722h5.144z"></path>
<path d="M13.358 11.657h5.144c0.019-0.001 0.040-0.002 0.062-0.002 0.509 0 0.928 0.389 0.975 0.886l0 0.004v0.39c-0.047 0.501-0.466 0.89-0.975 0.89-0.022 0-0.044-0.001-0.065-0.002l0.003 0h-5.144c-0.019 0.001-0.040 0.002-0.062 0.002-0.509 0-0.928-0.389-0.975-0.886l-0-0.004v-0.39c0.047-0.501 0.466-0.89 0.975-0.89 0.022 0 0.044 0.001 0.065 0.002l-0.003-0z"></path>
<path d="M13.358 11.3v0.722h-0.307v0.207h-0.73v-0.772l0.041-0.050 0.041-0.041 0.050-0.041-0.008 0.29h0.921zM12.685 12.959h-0.73v-0.39h0.73zM11.955 12.959h0.73v0.207h0.307v0.722h-0.971l-0.050-0.041-0.041-0.041-0.041-0.050v-0.772zM13.358 13.49h5.144v0.722h-5.144zM18.501 14.212v-0.722h0.307v-0.207h1.103v0.772l-0.041 0.050-0.041 0.041-0.050 0.041h-0.324l-0.373-0.083h-0.581zM19.173 12.553h0.738v0.39h-0.722zM19.904 12.553h-0.73v-0.207h-0.672v-0.722h0.971l0.050 0.041 0.041 0.041 0.041 0.050v0.772zM18.501 12.022h-5.144v-0.722h5.144z"></path>
<path d="M22.019 11.3v0.722h-0.307v0.207h-0.722v-0.772l0.041-0.050 0.041-0.041 0.050-0.041h0.971zM21.347 12.959h-0.722v-0.39h0.722zM20.625 12.959h0.722v0.207h0.307v0.722h-0.407l0.324 0.216h-0.498l-0.050-0.041-0.041-0.041-0.041-0.050v-0.772zM22.027 13.49h5.144v0.722h-5.144zM27.171 14.212v-0.722h0.307v-0.207h0.73v0.772l-0.041 0.050-0.041 0.041-0.050 0.041h-0.971zM27.843 12.553h0.722v0.39h-0.722zM28.573 12.553h-0.73v-0.207h-0.307v-0.722h0.971l0.050 0.041 0.041 0.041 0.041 0.050v0.772zM27.171 12.022h-5.144v-0.722h5.144z"></path>
<path d="M30.697 11.657h5.144c0.019-0.001 0.040-0.002 0.062-0.002 0.509 0 0.928 0.389 0.975 0.886l0 0.004v0.39c-0.047 0.501-0.466 0.89-0.975 0.89-0.022 0-0.044-0.001-0.065-0.002l0.003 0h-5.144c-0.019 0.001-0.040 0.002-0.062 0.002-0.509 0-0.928-0.389-0.975-0.886l-0-0.004v-0.39c0.047-0.501 0.466-0.89 0.975-0.89 0.022 0 0.044 0.001 0.065 0.002l-0.003-0z"></path>
<path d="M30.697 11.3v0.722h-0.307v0.207h-0.722v-0.772l0.041-0.050 0.041-0.041 0.050-0.041h0.896zM30.025 12.959h-0.722v-0.39h0.722zM29.304 12.959h0.722v0.207h0.672v0.722h-0.971l-0.050-0.041-0.041-0.041-0.041-0.050v-0.772zM30.706 13.49h5.144v0.722h-5.152zM35.85 14.212v-0.722h0.307v-0.207h0.722v0.772l-0.041 0.050-0.041 0.041-0.050 0.041h-0.971zM36.522 12.553h0.722v0.39h-0.738zM37.243 12.553h-0.738v-0.207h-0.307v-0.722h0.971l0.050 0.041 0.041 0.041 0.041 0.050v0.772zM35.841 12.022h-5.144v-0.722h5.144z"></path>
<path d="M13.358 7.691v0.722h-0.307v0.207h-0.73v-0.772l0.041-0.050 0.041-0.041 0.050-0.041h0.971zM12.685 9.35h-0.73v-0.39h0.73zM11.955 9.35h0.73v0.207h0.307v0.722h-0.971l-0.050-0.041-0.041-0.041-0.041-0.050v-0.772zM13.358 9.881h5.144v0.722h-5.144zM18.501 10.603v-0.722h0.307v-0.207h1.103v0.772l-0.041 0.050-0.041 0.041-0.050 0.041h-1.278zM19.173 8.944h0.738v0.39h-0.722zM19.904 8.944h-0.73v-0.207h-0.672v-1.045h0.971l0.050 0.041 0.041 0.041 0.041 0.050v0.772zM18.501 8.413h-5.144v-0.722h5.144z"></path>
<path d="M22.019 7.691v0.722h-0.307v0.207h-0.722v-0.772l0.041-0.050 0.041-0.041 0.050-0.041h0.971zM21.347 9.35h-0.722v-0.39h0.722zM20.625 9.35h0.722v0.207h0.307v0.722h-0.971l-0.050-0.041-0.041-0.041-0.041-0.050v-0.772zM22.027 9.881h5.144v0.722h-5.144zM27.171 10.603v-0.722h0.307v-0.207h0.73v0.772l-0.041 0.050-0.041 0.041-0.050 0.041h-0.971zM27.843 8.944h0.722v0.39h-0.722zM28.573 8.944h-0.73v-0.207h-0.307v-1.045h0.971l0.050 0.041 0.041 0.041 0.041 0.050v0.772zM27.171 8.413h-5.144v-0.722h5.144z"></path>
<path d="M30.697 7.691v0.722h-0.307v0.207h-0.722v-0.772l0.041-0.050 0.041-0.041 0.050-0.041h0.896zM30.025 9.35h-0.722v-0.39h0.722zM29.304 9.35h0.722v0.207h0.672v0.722h-0.971l-0.050-0.041-0.041-0.041-0.041-0.050v-0.772zM30.706 9.881h5.144v0.722h-5.152zM35.85 10.603v-0.722h0.307v-0.207h0.722v0.772l-0.041 0.050-0.041 0.041-0.050 0.041h-0.971zM36.522 8.944h0.722v0.39h-0.738zM37.243 8.944h-0.738v-0.207h-0.307v-1.045h0.971l0.050 0.041 0.041 0.041 0.041 0.050v0.772zM35.841 8.413h-5.144v-0.722h5.144z"></path>
<path d="M13.358 4.082v0.722h-0.307v0.207h-0.73v0.050-0.506l0.041-0.050 0.041-0.041 0.050-0.041h0.971zM12.685 5.741h-0.73v-0.415h0.73zM11.955 5.741h0.73v0.207h0.307v0.722h-0.871l0.324-0.033h-0.050l-0.050-0.041-0.041-0.041-0.041-0.050v-0.788zM13.358 6.272h5.144v0.722h-5.144zM18.501 6.994v-0.747h0.307v-0.531h1.103v0.772l-0.041 0.050-0.041 0.041-0.357 0.058h-0.971zM19.173 5.335h0.738v0.39h-0.722zM19.904 5.335h-0.73v-0.216h-0.672v-1.037h0.971l0.050 0.041 0.041 0.041 0.041 0.050v0.772zM18.501 4.795h-5.144v-0.713h5.144z"></path>
<path d="M30.697 4.082v0.722h-0.307v0.207h-0.722v0.050-0.506l0.041-0.050 0.041-0.041 0.050-0.041h0.896zM30.025 5.741h-0.722v-0.415h0.722zM29.304 5.741h0.722v0.207h0.672v0.722h-0.971l-0.050-0.041-0.041-0.041-0.041-0.050v-0.821zM30.697 6.247h5.144v0.722h-5.144zM35.841 6.969v-0.722h0.307v-0.531h0.722v0.772l-0.041 0.050-0.041 0.041 0.008 0.058h-0.971zM36.513 5.31h0.722v0.39h-0.73zM37.235 5.31h-0.73v-0.191h-0.307v-1.037h0.971l0.050 0.041 0.041 0.041 0.041 0.050v0.772zM35.833 4.779h-5.136v-0.697h5.144z"></path>
<path d="M13.358 0.465v0.722h-0.282v0.207h-0.73v0.058-0.506l0.041-0.050-0.050-0.066h1.020zM12.685 2.124h-0.73v-0.407h0.73zM11.955 2.124h0.73v0.207h0.307v0.987h-0.971l-0.050-0.041-0.041-0.041-0.041-0.050v-1.079zM13.358 2.655h5.144v0.664h-5.144zM18.501 3.319v-0.68h0.307v-0.531h1.103v0.772l-0.041 0.050-0.041 0.041-0.050 0.041h-0.324l-0.373 0.224h-0.183l-0.066 0.083h-0.332zM19.173 1.659h0.738v0.39h-0.722zM19.904 1.659h-0.73v-0.149h-0.672v-1.045h0.531l0.050 0.116h0.382l0.050 0.041 0.041 0.041 0.041 0.050v0.772zM18.501 1.186h-5.144v-0.722h5.144z"></path>
</symbol>
<symbol id="icon-disco" viewBox="0 0 24 32">
<title>disco</title>
<path d="M11.118 10.955c-5.482 0-9.927 4.444-9.927 9.927s4.444 9.927 9.927 9.927c5.479 0 9.921-4.438 9.927-9.915v-0.001c0-5.485-4.443-9.932-9.926-9.938h-0.001zM11.118 32c-0.002 0-0.004 0-0.006 0-6.141 0-11.118-4.978-11.118-11.118s4.978-11.118 11.118-11.118c6.141 0 11.118 4.978 11.118 11.118 0 0.004 0 0.008 0 0.012v-0.001c-0.013 6.131-4.981 11.098-11.112 11.107h-0.001z"></path>
<path d="M7.030 11.423c-0.608 0.876-1.147 1.876-1.568 2.937l-0.035 0.101c0.928-0.316 2.025-0.573 3.156-0.724l0.091-0.010c0.158-1.028 0.356-2.027 0.565-2.981-0.84 0.157-1.586 0.392-2.29 0.703l0.065-0.026zM4.692 15.184l0.158-0.44c0.499-1.384 1.126-2.581 1.891-3.675l-0.033 0.050 0.034-0.051h0.056c0.789-0.357 1.704-0.631 2.662-0.777l0.059-0.008 0.328-0.051-0.079 0.322c-0.265 1.084-0.497 2.259-0.678 3.428l-0.056 0.136h-0.164c-1.403 0.171-2.677 0.482-3.887 0.925l0.12-0.038z"></path>
<path d="M4.128 22.847c-0.067-0.594-0.105-1.283-0.105-1.981 0-0.786 0.048-1.561 0.142-2.322l-0.009 0.091c1.361-0.203 2.795-0.35 4.275-0.435q-0.073 1.316-0.073 2.682 0 1.22 0.056 2.405c-1.491-0.079-2.931-0.232-4.297-0.435z"></path>
<path d="M4.393 22.587c1.203 0.175 2.456 0.305 3.727 0.384-0.028-0.7-0.045-1.4-0.045-2.095 0-0.791 0-1.587 0.056-2.377-1.265 0.079-2.513 0.203-3.71 0.378-0.068 0.596-0.107 1.288-0.107 1.988 0 0.010 0 0.020 0 0.029v-0.002c0 0.565 0 1.129 0.079 1.694zM8.724 23.581h-0.322c-1.479-0.079-2.931-0.226-4.32-0.44l-0.22-0.034v-0.22c-0.067-0.597-0.104-1.289-0.104-1.991 0-0.807 0.050-1.602 0.148-2.383l-0.010 0.093v-0.22l0.215-0.034c1.383-0.209 2.823-0.356 4.303-0.435h0.322v0.322c-0.045 0.881-0.073 1.779-0.073 2.665 0 0.791 0 1.592 0.056 2.389z"></path>
<path d="M9.549 31.288c-0.998-0.161-1.894-0.438-2.73-0.823l0.065 0.027c-0.709-1.023-1.317-2.196-1.768-3.445l-0.034-0.107c1.094 0.407 2.372 0.722 3.697 0.889l0.086 0.009c0.181 1.208 0.412 2.366 0.678 3.45z"></path>
<path d="M7.075 30.283c0.597 0.266 1.297 0.488 2.025 0.633l0.065 0.011c-0.215-0.909-0.395-1.858-0.565-2.823-1.161-0.155-2.199-0.394-3.199-0.719l0.127 0.036c0.443 1.1 0.957 2.046 1.563 2.924l-0.032-0.050zM9.933 31.622l-0.429-0.062c-1.019-0.153-1.937-0.425-2.796-0.806l0.069 0.027-0.073-0.034-0.045-0.068c-0.734-1.049-1.363-2.252-1.829-3.534l-0.034-0.108-0.209-0.565 0.565 0.209c1.085 0.401 2.352 0.711 3.666 0.872l0.084 0.008h0.22l0.034 0.215c0.181 1.186 0.407 2.338 0.672 3.422z"></path>
<path d="M13.338 28.132c-0.152 0.983-0.339 1.937-0.565 2.823 0.893-0.149 1.691-0.391 2.443-0.72l-0.066 0.026c0.573-0.828 1.087-1.774 1.495-2.775l0.036-0.099c-0.963 0.319-2.098 0.573-3.268 0.714l-0.086 0.008zM12.011 31.639l0.102-0.407c0.271-1.084 0.497-2.259 0.678-3.428l0.034-0.22h0.22c1.491-0.158 2.855-0.481 4.146-0.953l-0.12 0.038 0.565-0.209-0.209 0.565c-0.5 1.39-1.129 2.593-1.897 3.693l0.033-0.051-0.045 0.068-0.073 0.034c-0.878 0.405-1.897 0.704-2.966 0.847l-0.055 0.006z"></path>
<path d="M13.823 18.493c0.040 0.791 0.056 1.592 0.056 2.389 0 0.706 0 1.417-0.045 2.112 1.367-0.073 2.71-0.209 4.004-0.395 0.051-0.565 0.079-1.129 0.079-1.694 0-0.003 0-0.007 0-0.010 0-0.701-0.039-1.392-0.115-2.073l0.008 0.084c-1.282-0.186-2.62-0.316-3.987-0.395zM13.23 23.603v-0.316c0.040-0.791 0.056-1.598 0.056-2.405 0-0.898 0-1.796-0.073-2.682v-0.322h0.322c1.575 0.079 3.117 0.226 4.585 0.446l0.215 0.034v0.22c0.086 0.678 0.135 1.462 0.136 2.258v0.001c-0.001 0.705-0.040 1.4-0.115 2.084l0.008-0.085v0.22l-0.22 0.034c-1.303 0.207-2.888 0.369-4.495 0.448l-0.107 0.004z"></path>
<path d="M13.338 13.631c1.256 0.15 2.392 0.404 3.481 0.759l-0.127-0.036c-0.443-1.1-0.957-2.046-1.563-2.924l0.032 0.050c-0.686-0.304-1.485-0.546-2.318-0.686l-0.060-0.008c0.215 0.909 0.401 1.863 0.565 2.823zM17.669 15.303l-0.565-0.209c-1.172-0.434-2.535-0.756-3.95-0.908l-0.076-0.007h-0.22l-0.034-0.22c-0.181-1.191-0.407-2.343-0.678-3.428l-0.102-0.407 0.378 0.040c1.126 0.139 2.15 0.431 3.101 0.857l-0.068-0.027 0.073 0.034 0.045 0.068c0.734 1.049 1.363 2.252 1.829 3.534l0.034 0.108z"></path>
<path d="M5.082 26.941c-1.364-0.491-2.545-1.109-3.624-1.862l0.050 0.033c-0.388-0.858-0.672-1.853-0.802-2.896l-0.005-0.051c1.084 0.271 2.259 0.503 3.456 0.683 0.16 1.516 0.486 2.902 0.965 4.216l-0.039-0.122z"></path>
<path d="M1.694 24.925c0.828 0.574 1.774 1.087 2.775 1.495l0.099 0.036c-0.319-0.963-0.573-2.098-0.714-3.268l-0.008-0.086c-0.983-0.152-1.937-0.339-2.823-0.565 0.139 0.895 0.374 1.699 0.697 2.455l-0.025-0.066zM5.534 27.421l-0.565-0.209c-1.39-0.5-2.593-1.129-3.693-1.897l0.051 0.033-0.068-0.045-0.034-0.073c-0.402-0.882-0.698-1.906-0.836-2.979l-0.006-0.054-0.051-0.418 0.407 0.102c1.084 0.271 2.259 0.497 3.428 0.678l0.22 0.034v0.22c0.158 1.491 0.481 2.855 0.953 4.146l-0.038-0.12z"></path>
<path d="M13.083 27.872c-0.588 0.065-1.269 0.103-1.959 0.103-0.796 0-1.581-0.050-2.351-0.146l0.092 0.009c-0.205-1.29-0.364-2.86-0.442-4.451l-0.004-0.106c0.881 0.045 1.784 0.073 2.694 0.073q1.225 0 2.417-0.056c-0.083 1.704-0.245 3.279-0.484 4.829l0.032-0.255z"></path>
<path d="M9.119 27.579c0.599 0.068 1.293 0.107 1.996 0.107 0.604 0 1.2-0.029 1.789-0.085l-0.075 0.006c0.186-1.293 0.322-2.637 0.395-4.004-1.479 0.062-3.010 0.056-4.517 0 0.073 1.366 0.209 2.705 0.395 3.987zM11.101 28.273c-0.797-0-1.581-0.050-2.351-0.145l0.093 0.009h-0.22l-0.034-0.215c-0.205-1.298-0.364-2.878-0.442-4.479l-0.004-0.106v-0.322h0.322c0.759 0.041 1.647 0.064 2.541 0.064s1.782-0.023 2.664-0.070l-0.123 0.005h0.316v0.316c-0.083 1.714-0.244 3.299-0.484 4.858l0.032-0.256-0.034 0.22h-0.22c-0.599 0.068-1.294 0.107-1.998 0.107h-0.001z"></path>
<path d="M18.369 23.101c-0.15 1.256-0.403 2.391-0.759 3.481l0.036-0.127c1.1-0.443 2.046-0.957 2.924-1.563l-0.050 0.032c0.304-0.686 0.546-1.485 0.686-2.318l0.008-0.060c-0.909 0.215-1.863 0.401-2.823 0.565zM16.697 27.432l0.209-0.565c0.434-1.171 0.756-2.535 0.908-3.95l0.007-0.076v-0.22l0.248-0.034c1.191-0.181 2.343-0.407 3.428-0.678l0.407-0.102-0.051 0.418c-0.14 1.126-0.432 2.15-0.857 3.101l0.027-0.068-0.034 0.073-0.068 0.045c-1.049 0.734-2.252 1.363-3.534 1.829l-0.108 0.034z"></path>
<path d="M4.156 18.634c-1.208 0.181-2.366 0.412-3.45 0.678 0.151-0.996 0.419-1.893 0.794-2.731l-0.026 0.066c1.039-0.721 2.231-1.337 3.501-1.791l0.107-0.033c-0.417 1.101-0.742 2.389-0.917 3.723l-0.010 0.089z"></path>
<path d="M1.694 16.839c-0.266 0.597-0.488 1.297-0.633 2.025l-0.011 0.065c0.909-0.215 1.858-0.395 2.823-0.565 0.155-1.161 0.394-2.199 0.719-3.199l-0.036 0.127c-1.095 0.449-2.038 0.968-2.911 1.579l0.048-0.032zM0.361 19.696l0.062-0.429c0.155-1.024 0.431-1.945 0.818-2.807l-0.027 0.068 0.034-0.073 0.068-0.045c1.049-0.734 2.252-1.363 3.534-1.829l0.108-0.034 0.565-0.209-0.209 0.565c-0.401 1.085-0.711 2.352-0.872 3.666l-0.008 0.084v0.22l-0.215 0.034c-1.186 0.181-2.332 0.407-3.422 0.672z"></path>
<path d="M9.119 14.185c-0.175 1.203-0.299 2.451-0.378 3.71 1.485-0.068 2.97-0.073 4.472 0-0.079-1.27-0.203-2.524-0.384-3.727-0.514-0.051-1.111-0.080-1.715-0.080-0.703 0-1.397 0.039-2.079 0.115l0.084-0.008zM8.131 18.504v-0.322c0.079-1.462 0.226-2.908 0.435-4.303l0.034-0.215h0.22c0.688-0.088 1.483-0.138 2.291-0.138 0.701 0 1.393 0.038 2.074 0.111l-0.084-0.007h0.22l0.034 0.22c0.209 1.389 0.356 2.823 0.44 4.32v0.322h-0.322c-0.759-0.041-1.647-0.065-2.541-0.065s-1.782 0.024-2.664 0.070l0.123-0.005z"></path>
<path d="M18.335 18.38c0.971 0.152 1.926 0.339 2.823 0.565-0.156-0.792-0.378-1.492-0.669-2.154l0.026 0.065c-0.828-0.574-1.774-1.087-2.775-1.495l-0.099-0.036c0.289 0.873 0.528 1.911 0.673 2.979l0.010 0.092zM21.864 19.713l-0.407-0.124c-1.084-0.271-2.259-0.497-3.422-0.672l-0.215-0.034v-0.22c-0.17-1.397-0.479-2.664-0.919-3.869l0.038 0.12-0.209-0.565 0.565 0.209c1.373 0.5 2.561 1.125 3.647 1.885l-0.050-0.033 0.068 0.045 0.034 0.073c0.359 0.793 0.635 1.715 0.783 2.679l0.008 0.060z"></path>
<path d="M11.118 8.414c-0.007-0-0.015-0-0.023-0-0.421 0-0.762 0.341-0.762 0.762s0.341 0.762 0.762 0.762c0.419 0 0.759-0.338 0.762-0.756v-0c0-0.421-0.341-0.762-0.762-0.762v0zM11.096 10.525c-0.742 0-1.344-0.602-1.344-1.344s0.602-1.344 1.344-1.344c0.742 0 1.344 0.602 1.344 1.344v0c0 0.742-0.602 1.344-1.344 1.344v0z"></path>
<path d="M11.113 0.22h0.006v7.905h-0.006v-7.905z"></path>
<path d="M10.893 0.22v-0.22h0.22zM11.333 0.22v7.905h-0.44v-7.905l0.22-0.22zM11.113 8.346h-0.22v-0.22zM11.113 7.905v0 0.44l-0.22-0.22zM11.339 8.126v0.22h-0.22zM10.898 8.126v-7.905h0.44v7.905l-0.22 0.22zM11.118 0h0.22v0.22zM11.118 0.44v0-0.44l0.22 0.22z"></path>
<path d="M20.859 8.222l0.531 2.349 2.349 0.531-2.349 0.531-0.531 2.343-0.531-2.343-2.343-0.531 2.343-0.531 0.531-2.349z"></path>
<path d="M22.711 13.332l0.243 1.062 1.062 0.243-1.062 0.243-0.243 1.062-0.243-1.062-1.062-0.243 1.062-0.243 0.243-1.062z"></path>
</symbol>
<symbol id="icon-noise" viewBox="0 0 32 32">
<title>noise</title>
<path d="M16.736 10.174v1.876c1.144 0.164 2.121 0.777 2.762 1.651l0.008 0.012q0.952 1.379 0.952 4.040c-0.004 0.068-0.006 0.148-0.006 0.228 0 0.907 0.283 1.749 0.765 2.44l-0.009-0.014c0.582 0.669 1.316 1.19 2.15 1.511l0.037 0.013v0.86h-5.996c-0.012 0.476-0.251 0.894-0.613 1.151l-0.005 0.003c-0.363 0.31-0.837 0.5-1.356 0.502h-0c-0.507-0.008-0.968-0.197-1.324-0.504l0.003 0.002c-0.377-0.255-0.626-0.673-0.646-1.151l-0-0.003h-5.99v-0.86c0.905-0.364 1.675-0.893 2.306-1.555l0.003-0.003c0.395-0.641 0.629-1.419 0.629-2.25 0-0.136-0.006-0.271-0.019-0.404l0.001 0.017q0-5.009 3.722-5.679v-1.881zM25.785 24.273l-0.906-0.906c-0.241 0.596-0.813 1.009-1.483 1.010h-1.402l1.801 1.801c-2.133 1.645-4.844 2.636-7.786 2.636-7.079 0-12.817-5.739-12.817-12.817 0-2.944 0.992-5.656 2.661-7.819l-0.022 0.030 4.409 4.409c0.559-0.755 1.297-1.346 2.153-1.718l0.034-0.013-4.692-4.692c2.226-1.917 5.146-3.084 8.338-3.084 7.076 0 12.812 5.736 12.812 12.812 0 3.199-1.173 6.125-3.112 8.37l0.014-0.016zM15.997 0c-8.832 0.003-15.991 7.164-15.991 15.997 0 8.835 7.162 15.997 15.997 15.997s15.997-7.162 15.997-15.997v0c0-8.835-7.162-15.997-15.997-15.997-0.002 0-0.004 0-0.006 0h0z"></path>
</symbol>
<symbol id="icon-3d" viewBox="0 0 31 32">
<title>3d</title>
<path d="M19.407 20.799c-0.987 0.349-2.113 0.244-3.144 0.244v-9.399c1.015 0 2.135-0.111 3.1 0.244 1.769 0.66 2.329 2.612 2.329 4.331s-0.41 3.881-2.29 4.547zM23.222 16.152c0.004-0.089 0.007-0.194 0.007-0.299 0-1.404-0.438-2.706-1.185-3.776l0.014 0.021c-0.814-1-2.013-1.66-3.368-1.751l-0.015-0.001c-0.737-0.072-1.486-0.039-2.218-0.039-0.582 0-1.663-0.216-1.663 0.649v9.56c0 0.482-0.216 1.869 0.555 1.869 1.464 0 3.050 0.15 4.436-0.288 2.595-0.804 3.416-3.438 3.416-5.911zM11.467 16.080c0.423-0.132 0.792-0.321 1.12-0.562l-0.011 0.007c0.339-0.308 0.598-0.698 0.743-1.14l0.005-0.019c0.123-0.355 0.195-0.763 0.195-1.189 0-0.554-0.121-1.079-0.337-1.551l0.010 0.023c-0.865-1.763-3.327-1.736-4.857-0.937-0.527 0.189-0.897 0.684-0.897 1.266 0 0.128 0.018 0.251 0.051 0.368l-0.002-0.009c0.105 0.482 0.693-0.105 0.882-0.222 0.376-0.25 0.816-0.442 1.288-0.549l0.026-0.005c0.14-0.039 0.301-0.062 0.467-0.062 0.768 0 1.423 0.481 1.68 1.159l0.004 0.012c0.069 0.208 0.109 0.448 0.109 0.697 0 0.718-0.33 1.359-0.847 1.779l-0.004 0.003c-0.422 0.274-0.939 0.436-1.493 0.436-0.050 0-0.1-0.001-0.15-0.004l0.007 0c-0.128-0.014-0.277-0.023-0.427-0.023s-0.299 0.008-0.445 0.024l0.018-0.002c-0.46 0-0.46 1.059-0.116 1.231 0.161 0.040 0.346 0.062 0.536 0.062 0.13 0 0.257-0.011 0.381-0.031l-0.014 0.002c1.026 0 2.185 0.128 2.806 1.059 0.218 0.333 0.348 0.74 0.348 1.178 0 0.843-0.481 1.574-1.184 1.932l-0.012 0.006c-1.148 0.505-2.529 0.1-3.554-0.516-0.2-0.116-0.51-0.377-0.604 0-0.018 0.108-0.029 0.231-0.029 0.358s0.011 0.25 0.031 0.371l-0.002-0.013c0.050 0.555 0.505 0.765 0.976 0.948 0.584 0.247 1.264 0.391 1.977 0.391s1.392-0.144 2.011-0.404l-0.034 0.013c1.147-0.57 1.922-1.734 1.922-3.079 0-0.056-0.001-0.112-0.004-0.167l0 0.008c-0.003-1.476-1.12-2.691-2.554-2.849l-0.013-0.001zM10.136 14.794c0.21-0.039 0.396-0.117 0.56-0.225l-0.006 0.004q0-0.632 0-1.259h0.593c-0.004-0.161-0.030-0.316-0.075-0.461l0.003 0.012-0.554-0.044v-0.554c-0.135-0.050-0.291-0.081-0.454-0.083h-0.001c0 0.194 0 0.383 0 0.554l-1.37-0.094-0.078 0.061c-0.208 0.183-0.456 0.327-0.728 0.417l-0.015 0.004q1.109 0.061 2.218 0.1 0 0.749 0 1.497zM20.699 14.117c-0.197-0.539-0.537-0.986-0.974-1.309l-0.008-0.005c-0.826 0.072-1.663 0.144-2.479 0.238h-0.161v0.238h1.22l1.797 0.028q-0.044 2.689 0 5.384c-1.037-0.033-2.074-0.061-3.111-0.061v0.222l1.286 0.139q0.915 0.094 1.835 0.166c0 0.089 0 0.177 0 0.272 0.198-0.239 0.361-0.516 0.476-0.817l0.007-0.020q0.033-2.218 0-4.436zM25.329 25.213c0.133-1.913 0.189-3.837 0.216-5.756 1.486 0.050 2.978 0.089 4.469 0.039 0 2.19 0.094 4.375 0.233 6.56zM24.559 27.952c-0.771-0.233-1.553-0.449-2.329-0.654l-0.998-0.255c1.076-0.333 2.146-0.677 3.205-1.059l3.97 0.682zM19.646 29.616c-0.821-0.299-1.663-0.555-2.479-0.837l-0.926-0.288q2.057-0.555 4.092-1.159c1.314 0.272 2.634 0.527 3.965 0.726zM15.371 31.052l-4.070-1.359c0.787-0.161 1.575-0.344 2.357-0.555l1.713-0.427h0.050c1.331 0.344 2.667 0.677 4.015 0.948zM6.427 28.058c0.721-0.111 1.436-0.238 2.151-0.372l1.819-0.355q2.035 0.61 4.087 1.159c-1.142 0.349-2.279 0.721-3.399 1.109zM2.312 26.693l3.965-0.682c0.782 0.277 1.569 0.555 2.357 0.787l0.859 0.266c-1.109 0.283-2.218 0.555-3.327 0.92zM0.649 22.89q0.055-1.663 0.078-3.366c0.876 0 1.752 0 2.628 0q0.932 0 1.858-0.044 0 0.837 0.033 1.663c0.028 1.042 0.067 2.085 0.122 3.127 0 0.044 0 0.555 0.050 0.948l-4.918 0.843c0.055-0.943 0.116-3.033 0.122-3.188zM0.699 12.532l0.615 0.078c0.66 0.083 1.325 0.161 1.985 0.227s1.248 0.116 1.869 0.166c0 0.349 0 0.699 0 1.054 0 1.664 0 3.327 0 4.957-1.497 0.122-2.994 0.255-4.48 0.477q0-1.286 0-2.567 0-2.218 0-4.386zM5.373 6.77c-0.044 0.765-0.1 2.251-0.105 2.362q-0.067 1.697-0.094 3.394c-0.993 0-3.665-0.089-4.486-0.061q0-1.27-0.050-2.534c0-0.227-0.078-2.9-0.144-4.003zM6.149 3.998l0.205 0.055c0.704 0.211 1.42 0.41 2.129 0.599l1.004 0.261c-0.815 0.25-1.625 0.51-2.429 0.782l-0.793 0.277-3.97-0.665zM11.079 2.334l0.299 0.105c0.721 0.255 1.447 0.494 2.174 0.732l0.926 0.288q-2.052 0.555-4.092 1.159c-1.109-0.222-2.174-0.433-3.266-0.615l-0.721-0.067zM15.365 0.898l4.076 1.364h-0.133c-0.749 0.155-1.492 0.327-2.218 0.51l-1.713 0.427h-0.050q-1.597-0.416-3.211-0.776l-0.81-0.172zM24.309 3.893c-0.721 0.111-1.436 0.238-2.151 0.371q-0.909 0.172-1.819 0.355-2.041-0.582-4.081-1.126c0.821-0.255 1.663-0.516 2.451-0.787l0.954-0.338zM14.295 6.050c-0.754 0.194-1.503 0.394-2.251 0.604l-0.699 0.205-4.691-0.804q1.054-0.227 2.102-0.482l1.663-0.416q1.941 0.482 3.881 0.893zM15.376 5.778q-1.952-0.482-3.926-0.898 1.968-0.527 3.92-1.109 1.946 0.588 3.915 1.109-1.963 0.421-3.915 0.904zM18.958 6.948l-3.588 0.615-3.571-0.615q0.915-0.15 1.824-0.316l1.752-0.344c1.109 0.222 2.179 0.433 3.272 0.615l0.316 0.044zM17.189 6.244l-0.754-0.194q1.952-0.416 3.881-0.893c1.109 0.283 2.174 0.554 3.272 0.793l0.499 0.105-4.68 0.81q-1.109-0.327-2.218-0.615zM20.378 24.398q0.067-0.882 0.105-1.769l-0.266 0.1c0 0.555 0.055 1.109 0.094 1.663l-4.863-0.837h-0.039c0-0.133 0-0.283 0.028-0.427h-0.133c0 0.155 0 0.305 0.028 0.433h-0.039l-4.846 0.837c0-0.327 0.044-0.76 0.055-1.109h-0.205c0 0.050 0.033 0.643 0.061 1.076l-4.885 0.865c0.044-0.771 0.1-2.218 0.105-2.346q0.067-1.702 0.094-3.41 2.246-0.083 4.491-0.261c0 0.294 0 0.588 0 0.887 0 0.139 0 0.277 0 0.421h0.039c0.136-0.001 0.268-0.013 0.397-0.035l-0.014 0.002q0-0.654 0.028-1.309l1.181-0.1c-0.001-0.148-0.023-0.291-0.064-0.426l0.003 0.011-1.109 0.028c0-0.333 0-0.66 0-0.993-0.147-0.038-0.325-0.069-0.506-0.087l-0.015-0.001q0 0.555 0 1.109-2.218 0.083-4.475 0.255 0-0.471 0-0.943 0-2.495 0-4.99l1.663 0.116c-0.239-0.106-0.42-0.304-0.503-0.548l-0.002-0.007-1.159-0.050q0-0.798-0.033-1.597c-0.028-1.076-0.067-2.151-0.122-3.227 0-0.044 0-0.554-0.050-0.932l4.891 0.843c-0.039 0.555-0.078 1.486-0.078 1.558s0 0.172 0 0.261h0.299q0-0.371-0.033-0.737c0-0.050-0.033-0.632-0.055-1.065l4.852 0.832h0.033c0 0.338-0.044 0.737-0.044 0.776 0 0.128 0 0.255 0 0.388l0.227-0.028c0-0.177-0.039-0.721-0.067-1.109h0.033l4.857-0.837c-0.055 0.776-0.1 1.558-0.128 2.34l0.322 0.122c-0.033-0.826-0.072-1.664-0.133-2.473l4.907-0.843c-0.133 1.913-0.189 3.837-0.216 5.756l-1.863 0.089q0.128 0.255 0.233 0.555l1.625-0.116q0 0.51 0 1.015c0 1.663 0 3.277 0 4.913l-1.486-0.183q-0.078 0.272-0.172 0.555l1.663 0.072c0 1.924 0.089 3.843 0.222 5.761zM16.457 25.956c0.981-0.25 1.963-0.516 2.933-0.804l4.691 0.804c-0.693 0.15-1.386 0.311-2.074 0.477l-1.663 0.416q-1.941-0.482-3.881-0.893zM15.354 26.228q1.952 0.482 3.92 0.898-1.968 0.555-3.92 1.109-1.946-0.588-3.915-1.109 1.963-0.421 3.915-0.904zM11.822 25.058l3.532-0.604 3.532 0.61c-0.599 0.1-1.192 0.205-1.785 0.316l-1.752 0.344c-1.17-0.238-2.346-0.471-3.527-0.66zM13.519 25.756l0.754 0.194q-1.952 0.416-3.881 0.893c-1.237-0.322-2.479-0.632-3.726-0.893l4.68-0.804c0.726 0.216 1.453 0.416 2.185 0.61zM28.451 5.307l-3.976 0.682-0.139-0.050q-1.109-0.388-2.218-0.743l-0.865-0.266c0.81-0.205 1.619-0.421 2.429-0.649l0.898-0.266zM27.42 12.471q-0.926 0-1.846 0.044c0-1.919-0.094-3.837-0.222-5.75l4.913-0.843c-0.139 2.179-0.194 4.364-0.216 6.549-0.671 0-2.484 0-2.623 0zM30.037 19.485c-0.859-0.128-1.724-0.222-2.59-0.311q-0.932-0.094-1.869-0.166 0-0.488 0-0.981c0-1.663 0-3.327 0-5.029 0.981-0.078 1.963-0.166 2.944-0.277 0.072 0 1.054-0.105 1.525-0.177q0 1.303 0 2.606c0 1.442 0 2.889 0 4.336zM30.741 26.616s0-0.033 0-0.050c0-0.007 0.001-0.014 0.001-0.022s-0-0.016-0.001-0.023l0 0.001c0-0.007 0.001-0.014 0.001-0.022s-0-0.016-0.001-0.023l0 0.001v-0.161l-0.028-0.033-0.033-0.028h-0.25c0.194-3.055 0.227-6.099 0.238-9.182q0-0.688 0-1.375c0-3.211-0.044-6.427-0.244-9.626h0.050c0.196-0.036 0.347-0.194 0.371-0.391l0-0.002c0-0.007 0.001-0.016 0.001-0.025s-0-0.018-0.001-0.026l0 0.001c0.001-0.009 0.001-0.020 0.001-0.030s-0-0.021-0.001-0.032l0 0.001c0.011-0.037 0.017-0.079 0.017-0.123 0-0.241-0.188-0.439-0.426-0.454l-0.001-0-14.955-4.99h-0.222l-14.949 4.99c-0.044 0.014-0.083 0.033-0.118 0.056l0.002-0.001c-0.107 0.074-0.179 0.191-0.194 0.325l-0 0.002c-0.001 0.010-0.001 0.022-0.001 0.033s0 0.023 0.001 0.035l-0-0.002s0 0 0 0.039v0.028c0.027 0.197 0.177 0.353 0.369 0.388l0.003 0h0.039c-0.050 0.865-0.111 2.712-0.122 3.138v0.083c0 0.161 0 0.316 0 0.477-0.055 1.841-0.078 3.682-0.089 5.545v0 0q0 3.493 0.078 6.987s0 0.039 0 0.072c0 0.488 0.078 2.883 0.144 3.881h-0.266l-0.033 0.028v0.122h-0.122c-0 0.006-0.001 0.013-0.001 0.019s0 0.014 0.001 0.020l-0-0.001c-0 0.007-0.001 0.014-0.001 0.022s0 0.016 0.001 0.023l-0-0.001c-0.020 0.045-0.032 0.097-0.032 0.152s0.012 0.108 0.033 0.155l-0.001-0.002s0 0 0 0v0 0.161l0.033 0.039 0.055 0.039 0.072 0.033 14.921 4.99h0.283l14.916-4.99 0.216 0.061 0.055-0.039 0.033-0.039v-0.161s0 0 0 0z"></path>
</symbol>
<symbol id="icon-battery" viewBox="0 0 19 32">
<title>battery</title>
<path d="M16.436 5.552h-14.127c-0.006-0.002-0.013-0.003-0.020-0.003s-0.014 0.001-0.021 0.003l0.001-0c-0.002 0.006-0.004 0.013-0.004 0.020s0.001 0.014 0.004 0.021l-0-0v24.111c-0.002 0.006-0.003 0.013-0.003 0.020s0.001 0.014 0.003 0.021l-0-0c0.006 0.002 0.013 0.004 0.020 0.004s0.014-0.001 0.021-0.004l-0 0h14.133c0.006 0.002 0.013 0.003 0.020 0.003s0.014-0.001 0.021-0.003l-0 0c0.002-0.006 0.004-0.013 0.004-0.020s-0.001-0.014-0.004-0.021l0 0v-24.094c0.002-0.006 0.003-0.013 0.003-0.020s-0.001-0.014-0.003-0.021l0 0c-0.006-0.002-0.013-0.004-0.020-0.004s-0.014 0.001-0.021 0.004l0-0zM9.811 11.542v4.132h2.574c0.249 0 0.45 0.202 0.45 0.45v0c0 0 0 0 0 0 0 0.071-0.017 0.139-0.047 0.198l0.001-0.003-3.007 7.341c-0.065 0.169-0.227 0.287-0.416 0.287-0.245 0-0.444-0.199-0.444-0.444 0-0.004 0-0.007 0-0.011v0.001-4.132h-2.574c-0.001 0-0.002 0-0.002 0-0.245 0-0.444-0.199-0.444-0.444 0-0.074 0.018-0.143 0.050-0.204l-0.001 0.002 3.012-7.335c0.072-0.155 0.226-0.26 0.405-0.26 0.238 0 0.432 0.186 0.444 0.421l0 0.001zM2.308 3.313h3.861v-2.037c0.003-0.699 0.566-1.266 1.263-1.275h3.862c0.703 0.003 1.272 0.572 1.275 1.275v2.037h3.867c1.275 0 2.308 1.034 2.308 2.308v0 0 24.082c0 1.275-1.034 2.308-2.308 2.308v0h-14.127c-1.275 0-2.308-1.034-2.308-2.308v0 0-24.094c0-1.275 1.034-2.308 2.308-2.308v0 0z"></path>
</symbol>
<symbol id="icon-sorround" viewBox="0 0 58 32">
<title>sorround</title>
<path d="M44.773 24.045h-31.129v-20.896h31.129zM46.872 0h-35.547c-0.812 0-1.469 0.658-1.469 1.469v0 24.297c0 0.811 0.658 1.469 1.469 1.469v0h35.547c0.812 0 1.469-0.658 1.469-1.469v0-24.297c0-0.811-0.658-1.469-1.469-1.469v0z"></path>
<path d="M35.768 30.027h-1.27v-1.469h-10.8v1.469h-1.27c-0.719 0-1.301 0.583-1.301 1.301v0 0.661h15.953v-0.661c0-0.719-0.583-1.301-1.301-1.301v0z"></path>
<path d="M55.142 5.164c-1.026 0-1.858-0.832-1.858-1.858s0.832-1.858 1.858-1.858c1.026 0 1.858 0.832 1.858 1.858v0c0 1.026-0.832 1.858-1.858 1.858v0zM55.142 10.285c-0.58 0-1.050-0.47-1.050-1.050s0.47-1.050 1.050-1.050c0.58 0 1.050 0.47 1.050 1.050v0c0 0.58-0.47 1.050-1.050 1.050v0zM55.142 14.693c-0.58 0-1.050-0.47-1.050-1.050s0.47-1.050 1.050-1.050c0.58 0 1.050 0.47 1.050 1.050v0c0 0.58-0.47 1.050-1.050 1.050v0zM55.142 0c-1.684 0.006-3.048 1.37-3.054 3.054v28.946h6.098v-28.946c-0.006-1.681-1.364-3.042-3.042-3.054h-0.001z"></path>
<path d="M3.054 5.164c-1.026 0-1.858-0.832-1.858-1.858s0.832-1.858 1.858-1.858c1.026 0 1.858 0.832 1.858 1.858v0c0 1.026-0.832 1.858-1.858 1.858v0zM3.054 10.285c-0.58 0-1.050-0.47-1.050-1.050s0.47-1.050 1.050-1.050c0.58 0 1.050 0.47 1.050 1.050v0c0 0.58-0.47 1.050-1.050 1.050v0zM3.054 14.693c-0.58 0-1.050-0.47-1.050-1.050s0.47-1.050 1.050-1.050c0.58 0 1.050 0.47 1.050 1.050v0c0 0.58-0.47 1.050-1.050 1.050v0zM3.054 0c-1.684 0.006-3.048 1.37-3.054 3.054v28.946h6.098v-28.946c-0.006-1.681-1.364-3.042-3.042-3.054h-0.001z"></path>
<path d="M20.886 21.347h2.204c0.417 0 0.756-0.338 0.756-0.756v0-4.786c0-0.417-0.338-0.756-0.756-0.756v0h-2.204c-0.417 0-0.756 0.338-0.756 0.756v4.786c0 0.417 0.338 0.756 0.756 0.756v0z"></path>
<path d="M34.361 15.816v4.786c0 0.417 0.338 0.756 0.756 0.756v0h2.183c0.417 0 0.756-0.338 0.756-0.756v0-4.786c0-0.417-0.338-0.756-0.756-0.756v0h-2.183c-0.417 0-0.756 0.338-0.756 0.756v0z"></path>
<path d="M22.722 12.972c0-3.53 2.862-6.392 6.392-6.392s6.392 2.862 6.392 6.392v0 1.102h1.69v-1.102c0-4.463-3.618-8.081-8.081-8.081s-8.081 3.618-8.081 8.081v1.102h1.69z"></path>
</symbol>
</defs>
</svg>
