<svg viewBox="0 0 300.5 264.8" xmlns="http://www.w3.org/2000/svg"><path d="m21 129.43l1 .59.66.29 8 6.9-9.23 4.58h-.59-.3l-.1-12.37zm-5 10.43l2.84-8.86.07 10.64h-.29zm-4-2.66l6-7.34-3 9.37zm39-79.2a1.39 1.39 0 0 0 -.63-.65c-.07-.44-.66 0-.66 0-.36 0-.67.3-.85.58-9.48-.22-17.12 1-17.17 2.75s6.82 3.25 15.68 3.67l-28.77 26.32-.2-.19-3.53 3-2 1.18-3.3 3.26a1.81 1.81 0 0 0  .52 2.06 1.41 1.41 0 0 0  1.77.22s1.91-1.84 2.8-2.87a19.75 19.75 0 0 0 1.34-1.7c1.4 1.55 2.58 1.1 2.58 1.1l-.15 2.5h.22l.19 28.36-1.08.29-15.55 19.95-1.21 4.44h-.07l-1 3 2.14.07.15-2.68-.19-.05 1.13-4.61 7.84-9.55 3.57 2.26-1.57 4.84-.42 5.9h-.09l-.44 3.21 2 .07-.37-3.14h-.12l.48-5.88 1.43-4.39 2.64 1.68h3.31l9.95-5.15 11.4 9.86 1.58 4.48h0l .3 1.47a2.64 2.64 0 0 0 1.91 0l-1-1.91h0l-1.83-4.75-20.54-17.65-.22-.74-.66-.88-1.1-.15h-.79l-.18-21.37 1-.05v-1l1.25-.13s1.1.44 1-.29-1 0-1 0l-1.25.12v-.27l-1.05-.1v-5.34h.22l.07-2.5s1.18.3 1.18-1.32a1.94 1.94 0 0 0 -1.18-2l-.59-1.47-.44-.42 29.43-27h .29c9.71.28 17.63-.95 17.68-2.73s-6.93-3.29-15.85-3.71" fill="#fff"/><path d="m157.4 79.36l-.26-.16v-1.63h-.57l.08-1.67h.44l-.09-1.9a2.32 2.32 0 0 0 -.74-.23v-.55a1.92 1.92 0 0 0  .91.42l-.07 2.19h.25zm-.12 21.57l-.49-.94.67-.39v1.34zm-3.08 12h-.7l-.44.2.49-1.28h-.74l-.49 1.47-.44.25.25.39-.64 1.42h.88l.54-1.37h.25l.1.64h.91l-.22 13h-1.28l-.49-.24-1.13 1 .39.36-3 2.8c0-.45 0-.9 0-1.34a2.47 2.47 0 0 0 -.24-1.17 4.35 4.35 0 0 1 -.16-1c-.06-.75-.09-1.43-.2-2.16s-.18-1.36-.23-2.08c-.22-2.19-.23-4.44-.28-6.67 0-.56 0-1.12-.06-1.68.23-6.1-3.23-11.48-8.09-15a6.12 6.12 0 0 1 -.83-1 2.94 2.94 0 0 0 -.94-.9 14.47 14.47 0 0 1 -1.28-.7 13.83 13.83 0 0 1 -2.13-1.55c4.14-3.47 3.09-6.12 2.37-7.17l8.75 2 .16.87s-.15.78 0 .93a1.46 1.46 0 0 0  .64.2v-1l .47-.67 2.84.64a2.31 2.31 0 0 0 1.49 1.23l.1 1.94a3.3 3.3 0 0 0 -.49.2l.25 1.42a2 2 0 0 1  .33-.11v.2l.29 2.94-.59-.69c-.74-1.47-1.37-.78-1.37-.78-.15.39.74 1.13.74 1.13a2.39 2.39 0 0 0  .69 1.28h-.54l.1 2.36h1.32l.29.93a1.21 1.21 0 0 0 1.52-.15l-.1-.79.39.1v1.91h.63zm5.85 25l-1.1.26s-.1-.24-.59-.24h-.1l-2-7.63v-.22l4.24 7.35zm-3.89 3.93v-1.77l1.36-.21.12.46zm-7.56 6.68l-.09-7.54 4.16 2.44h1.23v3h-.34s-1.18 1.62-5 2.06m-2-.37l.07-.09a2.64 2.64 0 0 0  .41-1l-.07 1.28zm-16.35-3.81l.58-.34c.32.53.64 1.1 1 1.71l-.44.4zm-9.21 4.21h-2.18a26.65 26.65 0 0 0 6.85-9.64l3.2 5zm-29.4 5.12l-.66-.85q.82.32 1.66.58zm36.16-15.38a1.35 1.35 0 0 0 -.09-1.27 1.49 1.49 0 0 0 -1-.85 26.24 26.24 0 0 0  1-5.35.87.87 0 0 0  .64-.53c.15-.33-.22-1.33.56-1.11.11.7.05 1.44 1 1.45.16-1-.6-1.94-.89-2.84s-.58-1.5-1.33-1.64a26.14 26.14 0 0 0 -1.94-7.56c1.63 0 3.29 0 4.93 0a16 16 0 0 1 1.19 2.28 13.61 13.61 0 0 0  .72 1.84 8.4 8.4 0 0 1  1.16 2.37 23.53 23.53 0 0 1  .22 2.8 9.4 9.4 0 0 1 -.3 2.06 28.42 28.42 0 0 0  .15 3.91 17.44 17.44 0 0 0  .53 3.46c.24 1.21-.56 2.35-.74 3.53-.09.6.1 1.28.06 1.84s-.42 1 .11 1.5l-1.08 1a38.12 38.12 0 0 0 -4.78-6.88m-.63.64a29.2 29.2 0 0 1 3.17 4.19l-.59.34-2.92-4.45.19-.1m6.9 11.37l-1.89-3 .36-.33c.51 1 1 2.13 1.53 3.35m1.61.74c-.41-1.12-1.22-2.34-2.45-4.71l1.52-1.39a2.22 2.22 0 0 0  .24.22c.45.35 1 .66 1.46 1 .86.54 1.69 1.14 2.59 1.66.68.39 1.32 1 2 1.39zm8.46-6.73a22.52 22.52 0 0 0 2.87-1.9l.51-.43-.27 4.68a.78.78 0 0 0 -.14-.4 4.28 4.28 0 0 0 -.69-.49 4.9 4.9 0 0 1 -.61-.62 2.2 2.2 0 0 0 -1.66-.84m12.16-9.3l.8 3a5.45 5.45 0 0 0 -.84.2zm-7 4.58v-.08l2.35.45.1.74h.81l.05 1.41-3.55-1.88a2.18 2.18 0 0 0  .21-.64m7.11-10h0v .07zm-3.48.54l.88-.54h.18l-.27 9.69-3.79-.47s0-1.08-.34-1.42a1.05 1.05 0 0 0 -.8-.15 13 13 0 0 1 -.23-2.42c0-.4 0-.8 0-1.2l4.15-3.71zm3.72-44.87h.16l.72-1v14.66l-1.23.63zm31.99-.25s-1.81-.73-2.69-.1l-23.86-15.5a2 2 0 0 0 0-.91l-3.49-2.49a1.87 1.87 0 0 0 -1.07.43l-3.59-2.34.09-.1-1.29-.91a1.58 1.58 0 0 0  .05-.3c.22-.13.46-.34.42-.63 15.89-3.71 15.2-4.78 15.2-4.78-1.24-.93-8.29.16-13.07 1a8.24 8.24 0 0 0 -4.63-.37c-.1-.49-.43-1.88-.75-1.84s-.1 1.39 0 2h-.3a10.08 10.08 0 0 0 -4.57 2.63c-11.32 3.17-11.58 4.36-11.58 4.36s.88 1.14 15.62-2.1a1.86 1.86 0 0 0 1.81 1.36 1.89 1.89 0 0 0  .93-.24l1.22.83.18-.2 3.82 2.47a2.31 2.31 0 0 0 0 .47l.28 2.14a1.92 1.92 0 0 0 -.92.42v-1.3h-.59l-.07 2.37-1.26.13v.34l1.18-.05c0 .06 0 .12 0 .18l-.05 1.84a1.64 1.64 0 0 0 -.65.33l.1 1.67h.29v1.72h-.64v1.29a9.28 9.28 0 0 0 -1.73.49c-10.09-.48-12.35.92-12.35.92-2.19 1.51 9.22 3.06 13.61 3.59.29.59.63 1.22.63 1.22h0l-.28 15.27-.82.42h-.62l-.48-4c .5 0 .87.12.87.12v-.39l.29-.1v-.36l-.44-.1v-.54a3.34 3.34 0 0 0 -.76-.23l.06-2.18a2.31 2.31 0 1 0 -3.27-3.16l-2.37-.48c0-.22 0-.37-.09-.38s-.23.12-.33.29l-1-.2c0-.23 0-.44-.08-.44s-.18.16-.29.36l-9.33-1.94-.13-4.69a3.87 3.87 0 0 0 1.2-2.77c0-.93-.74-.88-.74-.88v-1.44l.29-.2-.56-.56c1-4.19-1.34-6.14-3.3-7 0 0 0 0 0-.07a.38.38 0 0 0 -.32-.42.33.33 0 0 0 -.29.24c-.27-.1-.52-.18-.75-.24a3.42 3.42 0 0 0 0-.44 6.17 6.17 0 0 0 -.2-1.87 3.3 3.3 0 0 0 -.43-1c-.25-.31-.46-.34-.6-.68-.27-.64-.26-1.36-.6-2-.75-1.42-.68-2.94-1.13-4.41a15.51 15.51 0 0 0 -1.38-4c-.37-.56-.87-1-1.2-1.57a2.82 2.82 0 0 0 -1.68-1.16 12.3 12.3 0 0 0 -1.76-.71c-.21-.53.44-1.39 0-1.81s-1-.2-1.43-.09c1.95-11.91 1.35-12.23 1.35-12.23s.45-.77-.13-.83-.31.78-.31.78c-.91 1.61-2.05 12.6-2.05 12.6h0c-.26 0-.42-.31-.69-.38a.8.8 0 0 0 -1 1.07 6.93 6.93 0 0 1 -1.94-.4c-.26-.11-1.48-.65-1.13-1 .23.21.5.07.73.29.15-.34.36.05.6 0s .25-.27.49-.32.34.21.44.19c.27 0 .2-.33.21-.59.71 0 .93-.07.78-.82a1.58 1.58 0 0 0  .44.6 5.39 5.39 0 0 1 -.27-2.19c.06.11.08.08.15.14.07-.42 0-.83 0-1.23a5.88 5.88 0 0 0  .31-1.22 8.69 8.69 0 0 0 -.29-1.67c-.09-.51.12-.8.12-1.3.51-.1.18-.87.13-1.2a1.83 1.83 0 0 1  .1-1.36 1.61 1.61 0 0 1  .15.26 16.75 16.75 0 0 1 -.24-3.32c0 .07.11.23.14.32.1-1.09-.87-2.06-1.12-3.12a2.28 2.28 0 0 1  .29.12 6.57 6.57 0 0 0 -2.14-2.08c-.39-.28-.52-.72-.88-1a4.21 4.21 0 0 0 -1.54-.44 1.39 1.39 0 0 0  .52-.2 7.2 7.2 0 0 0 -2.34-.22c.13-.28.77-.54.28-.76s-1 .28-1.26.56a3.6 3.6 0 0 1 -.45-1 1.22 1.22 0 0 0 -.44.61 1.11 1.11 0 0 0 -.53-.42c-.05.42.31.72.38 1.12-.66-.3-1.47-1.34-2.25-1.21a4 4 0 0 1  .83.91 5.74 5.74 0 0 1 -1.42-.14 4.56 4.56 0 0 0 -1.57.29 6.14 6.14 0 0 0 -1.57.64 8.09 8.09 0 0 0 -1.88 1.51c-.21.24-.5.4-.71.65s-.35.64-.6.92-.59.5-.84.79a4.24 4.24 0 0 0 -.84 2c0 .28.09.69.08 1s-.17.68.09.93a.92.92 0 0 0 -.4 1c0 .49.15.45.42.84a.78.78 0 0 0  .64 1.37s0 .05 0 .09a1 1 0 0 0  .68-.17.77.77 0 0 0  .13.38 1.81 1.81 0 0 1  .54 1.72 7.82 7.82 0 0 0  0 1.23c0 .38-.19.7-.2 1.08a8.08 8.08 0 0 0  .59 2 12.74 12.74 0 0 0  .65 2 4.46 4.46 0 0 1  .44 1c0 .44-.34.35-.75.45a6.23 6.23 0 0 1 -2.21.33 9.25 9.25 0 0 0 -2.42-.2 10 10 0 0 0 -1.86.61c-.58.21-1.18.35-1.77.56a3.3 3.3 0 0 0 -1.07.8c-1 .89-2.14 1.66-3.09 2.65a7.6 7.6 0 0 1 -3.59 2.15c.12-.25.1-.41.34-.53s.46 0 .68-.11c0 0 0-.09 0-.13.4-.06 1.06-.43.92-.93h0a1.79 1.79 0 0 1  .24 0 .55.55 0 0 0  0-.67c.32.12.4-.16.67-.27a3.49 3.49 0 0 0  .93-.34 2.47 2.47 0 0 0  .66-.66 2.61 2.61 0 0 0  .34-.94c.09-.45.06-.42-.22-.83a15.58 15.58 0 0 1 -.76-1.54c6.41-12.18 6-13.36 6-13.36s.94-.67.21-1-.68.86-.68.86c-.77.62-5.06 9.31-6.5 12.25a2.46 2.46 0 0 0 -.61-.42c-.87-.4-1.17 0-2 .29a4.86 4.86 0 0 0 -1.14.39 4 4 0 0 0 -.64.84 6.88 6.88 0 0 0 -1.11 1.74c-.11.33-.09.69-.21 1a2.76 2.76 0 0 1 -.72 1.31c-.4.33-.9.51-1.28.87s-.51.6-.8.88a8.74 8.74 0 0 0 -1.34 1.53c-.36.59-.64 1.28-.93 1.9-.4.83-.72 1.7-1 2.55a7.72 7.72 0 0 0 -.25 2.4c-.07 1.4 1.33 2.6 2.6 2.95s2.84-.33 4.21-.59 2.6-1.21 3.9-1.59a23.59 23.59 0 0 0 3.87-2.18 11.77 11.77 0 0 0  3.52-2.16 4.78 4.78 0 0 1  .11 1.06 4.27 4.27 0 0 0  .3 1c .22.66.27 1.32.53 2a22.8 22.8 0 0 1 1 6v .37c-2.3-1.36-7.2-3.48-15.27-3.38-11.85.15-15.09 2.94-16.34 4.27h-.52v.79l.1.2v1.77a.65.65 0 0 0 -.64.49 8.42 8.42 0 0 0  .54 2.65c.15.25.39 0 .39 0a1.38 1.38 0 0 0  .49.54l-.34 9.23s-1.57.59-1.47 3.24a1.92 1.92 0 0 0  .49.88v1.32l-.07.74.01.85s-9.86-1.13-16 0l-.29.1-.15.64a.66.66 0 0 0 0 .84l-.2 1.77-.54.2s-.3 3.08 1.18 4.15l-1.77 20.37s-1.62.54-2.16 3.58c0 0 .15.54 1.81 1.28l-.2 1.77 4.76.54-1.52 13-4.92 2.75-1 5.5-1 .34.44.24-.44 1.77a2.82 2.82 0 0 0 2.06.24l.15-1.81.44-.2-.64-.44.59-5.1 5-2.8 1.67-13.35 4.61.49-.59 11.39.74 3-.29 5.1-.88.29.44.29-.25 2a3 3 0 0 0 1.91.1l-.15-2 .64-.34-.84-.24v-5.2l-.69-3 .74-11.34s8.29.84 16.54 1.28h.72a26.25 26.25 0 0 0  .86 4.48l-1.63.4.15.74-1.42.54s-1.08-.44-.83.44 1 0 1 0l1.18-.54.39.24-9.81 14.35s-.83-.39-1.13-.2-.25.74.49 1.33a1.72 1.72 0 0 0 1.77.15 7.33 7.33 0 0 1 -.59-1l9.37-13.61 1.68-.82a26.56 26.56 0 0 0 5.49 8.86c-.53 1.73-.54 3.26 1.94 3.67-.63 1.07-2.19.39-3.19 1-1.76 1-.89 1.86-1 3.62 1.68.82 5.21-1 6.89-1.45 1.26-.31 2.8-.55 4.19-1a .56.56 0 0 0  .38.35 1.23 1.23 0 0 1  .78.74l-1.62.54.25.34 1.67-.49c.39.29.88-.1.88-.1l1.63-.3a27.46 27.46 0 0 0 14.45-.1l.36.45-1.57.1v.34l1.47-.1a1.14 1.14 0 0 0 1.08 0l2.06-.1-.1-.34h-1.72l.06-.89c2.52-.89 4.87-1.32 7-2.88l4-.27 8.62-5 1.22 1.92-.62.55-2.08 5a .82.82 0 0 1 -.08-.12l-1.13 1.66c1.47 1.13 2.36.59 2.36.59l.15-1.67h-.13l2.29-5 2.7 3.42-1.12-.09v1.28l1.57.14c-.19.24-.44.58-.34.65a4.69 4.69 0 0 0  .83.24l1 1.13.29-.15.64.29-.2-.49.2-.39-.68-1.15c2.35.18 5.37 1.21 7 1.18a62.45 62.45 0 0 0 7.07-.74l-.69-1.52v-1.37s4-1.08 4.66-2.55c.09-.2.16-.36.23-.5l.41.06-.3 3.93-1.13.1-.29 2 1.28.1s1 .54 1.62 0l1.72.2v-1.86l-1.23-.2.1-8.2 1.42-1.42 1.68 6.28.25 5.89a2.33 2.33 0 0 0 1 0l-.15-6-1.76-6.79.24-.13 2.11-2.06v0l5.2 9 .49 3.84-.2.15v1.42a2.46 2.46 0 0 0 1.44.44v.44a6.47 6.47 0 0 0 2.16-.34l-.64-1.81-.14.06-1-4.64-1.56-2.76 2.4 3.17 1.54 3.76h-.07l.2 1.91a3.29 3.29 0 0 0 1.87 0l-.54-2a .76.76 0 0 1 -.16.12l-1.36-4.21-11.28-14.83-2.86-4.78.07-.52h-.88l.14-22.42h.69l.5.45v13.09h1.67l-.07-15.41h1.25l-.15-2.21-1.11-.06-.11-16.97c11.65.1 12-.77 11.88-1.22-.28-.92-2-2.16-11.9-3.08v-3.94h.19l-.2-2.06-.1-.34-.28-.1a1.91 1.91 0 0 0  .82-1.57 1.83 1.83 0 0 0  0-.25l2-1.23.07-.05 24 15.66-.09.34 1.49 1.75 4.27 2.75a1 1 0 0 0 1.42-.24 16.2 16.2 0 0 0  1-2.21 49.41 49.41 0 0 0 -5.02-3.3" fill="#fff"/><path d="m271.89 96.15c-.06-.35-.12-.74-.17-1.21a8.15 8.15 0 0 0 -.85-2.13c-.83-1.94-1.79-3.85-2.63-5.8l-.23-.87h11.91zm1.3 38.63a12.31 12.31 0 0 1  .4 1.77c.32.89.84.77 1.24 1.49.28.51 0 1.25.24 1.79.14.3 1 .9 1.22 1.21s.33.81.88 1.07c-.12.38-.27.8-.44 1.25l-20.06-25.28 5.73-7.22a17.52 17.52 0 0 0 1.5 2.43c3.06 3.44 4.72 8 6.37 12.25a56.52 56.52 0 0 1 1.7 6.81 12.85 12.85 0 0 0  1.23 2.42m-25.36-27.77h12.56c.35.73.73 1.51 1.12 2.26l-5.94 7.49zm-5.37-6.77l.58-.7a9.37 9.37 0 0 0 1.19-2.06c.8-2 1-3.26 2.83-4.58 1.53.09 2.94-1.8 4.48-1.48s2.56 2 3.41 3.09a18.67 18.67 0 0 1 2.42 3.5c.31.9.66 2 1 3q .12.43.25.85c.19.69.36 1.36.49 1.94a8.2 8.2 0 0 0  .42 1.2h-13.28zm20.25-48l1.07.71.41-.5.14.19a2.11 2.11 0 0 0  .19.38 8.2 8.2 0 0 1  .82 1.47 8.84 8.84 0 0 0  1.8 3.12c.2.22.41.47.61.74.94 1.27.54 2.78.24 4.19-.71 3.37-.16 6.85-.87 10.21-.09.42-.32 1.08-.52 1.7l-.54.87h-.53v-.87a27.8 27.8 0 0 1 -.39-4.08 1.5 1.5 0 0 1 -.54-.93c-1-5.28-2.76-10.51-2.08-15.93 0 0 0-.06 0-.09a1.41 1.41 0 0 1  .16-1.17m-25.69 14.84a5.91 5.91 0 0 1 -.41 2.62l-.25-.29-5.71-8.26-1.16-1.42c-.4-1 0-1.14.57-2.22a17.17 17.17 0 0 0 1-2.11l.14-.25c1.12-2.29 1.63-3.16 1.81-3.46a5.29 5.29 0 0 0 1.09.86 10.73 10.73 0 0 1  .68-1.65l.33-.36c.23 1.57.89 3 1 4.54a9.94 9.94 0 0 0  .8 3.79c1.22 2.81-.19 5.59.07 8.22m36.68 8.16v-.87q0-.49 0-1a79.72 79.72 0 0 0 1.66-10.23c.2-3.33.38-6.42-1.18-9.46a35 35 0 0 1 -1.46-3.36 11.94 11.94 0 0 1 -1.11-2.82c0-1.39 1-1.9.36-3.43-.93-2.32-2.88-4-4-6.27-1.42-2.84-2.32-6.42-5.29-8.15a20 20 0 0 0 -4.23-1.6 9.76 9.76 0 0 1 -1.19-.46 1.15 1.15 0 0 0  .12-.39 5.11 5.11 0 0 1  .64-.06 1.75 1.75 0 0 1  .88-.69c.14-.52.39-1 .55-1.45 1.15.8.65-.3 1.06-.75-.08.09 1-1.23.92-1 .24-.74-.18-1-.05-1.59s.64-.78.71-1.38c.15-1.26-.31-2 .35-3.27a15.78 15.78 0 0 0  .88-1.54c0-.76-.86-1.17-.89-1.89s.64-1 .66-1.42c0-.9-.4-.77-.67-1.55-.58-1.71-.27-1.66-1.92-2.91a18.84 18.84 0 0 1 -2.59-2.58 7.8 7.8 0 0 0 -1.27-1.29c-.45-.38-.8-.26-1.08-.87-.39.07-.95-.13-1.34-.06-.44-1.33-1.3-.52-2.14-1s-.43-1.72-1.85-1.04c-.42-.87-1.17-.71-1.84-.29h.05a1.77 1.77 0 0 1 -.39 0 2.83 2.83 0 0 1 -.47-.51 6.94 6.94 0 0 0 -2.62.39c-.74.21-1.25-.1-1.93.85a6.47 6.47 0 0 0 -4.47.44c-.46.31 0 1-.26 1.27s-.9.17-1.11.36-.69.9-.79.94-.82-.1-.91 0a11.45 11.45 0 0 0 -2.52 3.21c-.06.16.55.76.49 1.12s-.86.5-1 .88a6.85 6.85 0 0 0 -.07 2.2 1.72 1.72 0 0 0 -1.08 2.23c.31 0 .58.23.89.25a4.54 4.54 0 0 0 -.32 2c .32 0 .62.23.9.26-1.6 1.34-.44 2.2.06 3.44.27.67-.13 1 .15 1.9s.1 1.38 1.3 1.14c-.1 2.18 1.11 1.35 1.59 2.74a1.83 1.83 0 0 1  .31-.21 1.73 1.73 0 0 0  1.32.77c.08.15 0 .32.05.47s.43 0 .65.06c.47.44.47.61 1.23.21a1 1 0 0 0 0 .54c-2.13 1.25-4.1 2.91-6.85 3.12 0 1.13-1.73 1-2.5 1.66a19.24 19.24 0 0 0 -3 4.08c-1.73 2.81-2.45 6.22-4.09 9.06l.12.09c-.32.3-.6 1.06.94 2.81-1.57 3.34-3.55 7.84-3.76 9.6-.36 3 11.22 14.84 11.22 14.84s-.8-.13-.9 1.66l-.2.87h-41.11l-.68 1.05 1.07 6.32 4.66 1.76h33.44l2.77 3.49-.38.94a11.78 11.78 0 0 0 -.91 3.26c-.32 3.11-1.69 5.76-2.57 8.81a44.56 44.56 0 0 1 -4.42 10.63 7.18 7.18 0 0 0 -.88 3.78 19.5 19.5 0 0 1 -1.25 5.38c-1.06 3.16-2.1 6.27-3.25 9.41-.21.59-.79 1.16-1 1.7s.11 1.37 0 1.77c-.21.58-1 .67-1.06 1.38s.59 1 .86 1.64c1.65 3.86-7.45 14.22.88 15 2.31.23 5.93.62 6.77-1.9.75-2.25-.94-5.51-1.58-7.58.55-.26.58-.73.88-1.07s1.08-.9 1.22-1.21c.24-.55 0-1.28.24-1.79.4-.72.91-.6 1.24-1.49a12.37 12.37 0 0 1  .4-1.77 12.85 12.85 0 0 0  1.23-2.42 56.52 56.52 0 0 1  1.7-6.81c1.65-4.2 3.31-8.81 6.37-12.25 1-1.08 1.92-1.48 2.23-3 .62-2.94 1.07-4.88 3-7.36.18-.23.37-.47.57-.7l.58-.7 2.72 3.43h-1a1 1 0 1 0 0 2h2.54l8.83 11.13-25.27 31.85h-2.74a1.5 1.5 0 0 0 -1.52 1.49v2.51a1.5 1.5 0 0 0 1.52 1.49h2.6a1.5 1.5 0 0 0 1.51-1.49v-2.55a1.48 1.48 0 0 0 -.05-.39l25-31.57 20.48 25.78a7.4 7.4 0 0 0 -.45 4.44c.65 1.92 2.91 2.15 5 2v2.29a1.5 1.5 0 0 0 1.51 1.49h2.6a1.5 1.5 0 0 0 1.52-1.49v-2.55a1.47 1.47 0 0 0 -.74-1.27c2.1-3.16-3.54-10.49-2.21-13.59.28-.65.95-.85.86-1.64s-.85-.8-1.06-1.38c-.15-.4.14-1.16 0-1.77s-.74-1.11-1-1.7c-1.14-3.14-2.19-6.25-3.25-9.41a19.51 19.51 0 0 1 -1.26-5.38 7.18 7.18 0 0 0 -.88-3.78c-2-3.44-2-6.47-3.09-10.36a23.76 23.76 0 0 0 -1.1-3l9.63-12h7l2.92-1.31c.19-.53.39-1.07.63-1.62a6.46 6.46 0 0 0  .34-1.38 9.92 9.92 0 0 1  .33-1.44 7.54 7.54 0 0 1  1.1-2 7.24 7.24 0 0 0  .72-1.17c.17-.38.51-1.14 1-2z" fill="#fff"/><path d="m206.6 264.8h-2v-92.72h91.22v2h-89.22z" fill="#fff"/><path d="m291.65 173.1a4.18 4.18 0 1 0 4.18-4.18 4.18 4.18 0 0 0 -4.18 4.18"/><path d="m295.82 177.78a4.68 4.68 0 1 1 4.68-4.68 4.68 4.68 0 0 1 -4.68 4.68zm0-8.35a3.68 3.68 0 1 0 3.68 3.68 3.68 3.68 0 0 0 -3.68-3.69z" fill="#fff"/><circle cx="295.82" cy="173.1" r="4.18"/><path d="m295.82 177.78a4.68 4.68 0 1 1 4.68-4.68 4.68 4.68 0 0 1 -4.68 4.68zm0-8.35a3.68 3.68 0 1 0 3.68 3.68 3.68 3.68 0 0 0 -3.68-3.69z" fill="#fff"/><path d="m159 264.8h-2v-90.72h-89.22v-2h91.22z" fill="#fff"/><path d="m72 173.1a4.18 4.18 0 1 1 -4.18-4.18 4.18 4.18 0 0 1  4.18 4.18"/><path d="m67.78 177.78a4.68 4.68 0 1 1 4.68-4.68 4.68 4.68 0 0 1 -4.68 4.68zm0-8.35a3.68 3.68 0 1 0 3.68 3.68 3.68 3.68 0 0 0 -3.68-3.69z" fill="#fff"/><circle cx="67.78" cy="173.1" r="4.18"/><path d="m67.78 177.78a4.68 4.68 0 1 1 4.68-4.68 4.68 4.68 0 0 1 -4.68 4.68zm0-8.35a3.68 3.68 0 1 0 3.68 3.68 3.68 3.68 0 0 0 -3.68-3.69z" fill="#fff"/></svg>