<svg xmlns="http://www.w3.org/2000/svg" viewBox="0 0 300.5 264.8"><defs><style>.cls-1{fill:#fff;}</style></defs><title>top band</title><g id="Layer_2" data-name="Layer 2"><g id="Background"><path class="cls-1" d="M21,129.43l1,.59.66.29,8,6.9-9.23,4.58h-.59l-.3,0-.1-12.37Zm-5,10.43L18.84,131l.07,10.64-.29,0ZM12,137.2l6-7.34-3,9.37ZM51,58a1.39,1.39,0,0,0-.63-.65c-.07-.44-.66,0-.66,0-.36,0-.67.3-.85.58-9.48-.22-17.12,1-17.17,2.75s6.82,3.25,15.68,3.67L18.6,90.67l-.2-.19-3.53,3-2,1.18L9.57,97.92a1.81,1.81,0,0,0,.52,2.06,1.41,1.41,0,0,0,1.77.22s1.91-1.84,2.8-2.87A19.75,19.75,0,0,0,16,95.63c1.4,1.55,2.58,1.1,2.58,1.1l-.15,2.5h.22l.19,28.36-1.08.29L2.21,147.83,1,152.27l-.07,0-1,3,2.14.07.15-2.68-.19-.05L3.16,148,11,138.45l3.57,2.26L13,145.55l-.42,5.9h-.09l-.44,3.21,2,.07-.37-3.14h-.12l.48-5.88,1.43-4.39L18.11,143h3.31l9.95-5.15,11.4,9.86,1.58,4.48h0l.3,1.47a2.64,2.64,0,0,0,1.91,0l-1-1.91h0L43.73,147,23.19,129.35l-.22-.74-.66-.88-1.1-.15h-.79l-.18-21.37,1-.05v-1l1.25-.13s1.1.44,1-.29-1,0-1,0l-1.25.12v-.27l-1.05-.1,0-5.34h.22l.07-2.5s1.18.3,1.18-1.32a1.94,1.94,0,0,0-1.18-2l-.59-1.47-.44-.42,29.43-27h.29c9.71.28,17.63-.95,17.68-2.73S59.92,58.42,51,58"/><path class="cls-1" d="M157.4,79.36l-.26-.16,0-1.63h-.57l.08-1.67.44,0L157,74a2.32,2.32,0,0,0-.74-.23v-.55a1.92,1.92,0,0,0,.91.42l-.07,2.19h.25Zm-.12,21.57-.49-.94.67-.39v1.34Zm-3.08,12h-.7l-.44.2.49-1.28-.74,0-.49,1.47-.44.25.25.39-.64,1.42h.88l.54-1.37.25,0,.1.64.91,0-.22,13h-1.28l-.49-.24-1.13,1,.39.36-3,2.8c0-.45,0-.9,0-1.34a2.47,2.47,0,0,0-.24-1.17,4.35,4.35,0,0,1-.16-1c-.06-.75-.09-1.43-.2-2.16s-.18-1.36-.23-2.08c-.22-2.19-.23-4.44-.28-6.67,0-.56,0-1.12-.06-1.68.23-6.1-3.23-11.48-8.09-15a6.12,6.12,0,0,1-.83-1,2.94,2.94,0,0,0-.94-.9,14.47,14.47,0,0,1-1.28-.7A13.83,13.83,0,0,1,134,96.32c4.14-3.47,3.09-6.12,2.37-7.17l8.75,2,.16.87s-.15.78,0,.93a1.46,1.46,0,0,0,.64.2l0-1,.47-.67,2.84.64a2.31,2.31,0,0,0,1.49,1.23l.1,1.94a3.3,3.3,0,0,0-.49.2l.25,1.42a2,2,0,0,1,.33-.11V97l.29,2.94-.59-.69c-.74-1.47-1.37-.78-1.37-.78-.15.39.74,1.13.74,1.13a2.39,2.39,0,0,0,.69,1.28h-.54l.1,2.36,1.32,0,.29.93a1.21,1.21,0,0,0,1.52-.15l-.1-.79.39.1v1.91l.63,0Zm5.85,25-1.1.26s-.1-.24-.59-.24h-.1l-2-7.63v-.22l4.24,7.35Zm-3.89,3.93,0-1.77,1.36-.21.12.46Zm-7.56,6.68-.09-7.54,4.16,2.44,1.23,0v3l-.34,0s-1.18,1.62-5,2.06m-2-.37.07-.09a2.64,2.64,0,0,0,.41-1l-.07,1.28Zm-16.35-3.81.58-.34c.32.53.64,1.1,1,1.71l-.44.4ZM121,148.53h-2.18a26.65,26.65,0,0,0,6.85-9.64l3.2,5Zm-29.4,5.12-.66-.85q.82.32,1.66.58Zm36.16-15.38a1.35,1.35,0,0,0-.09-1.27,1.49,1.49,0,0,0-1-.85,26.24,26.24,0,0,0,1-5.35.87.87,0,0,0,.64-.53c.15-.33-.22-1.33.56-1.11.11.7.05,1.44,1,1.45.16-1-.6-1.94-.89-2.84s-.58-1.5-1.33-1.64a26.14,26.14,0,0,0-1.94-7.56c1.63,0,3.29,0,4.93,0a16,16,0,0,1,1.19,2.28,13.61,13.61,0,0,0,.72,1.84,8.4,8.4,0,0,1,1.16,2.37,23.53,23.53,0,0,1,.22,2.8,9.4,9.4,0,0,1-.3,2.06,28.42,28.42,0,0,0,.15,3.91,17.44,17.44,0,0,0,.53,3.46c.24,1.21-.56,2.35-.74,3.53-.09.6.1,1.28.06,1.84s-.42,1,.11,1.5l-1.08,1a38.12,38.12,0,0,0-4.78-6.88m-.63.64a29.2,29.2,0,0,1,3.17,4.19l-.59.34L126.91,139l.19-.1M134,150.27l-1.89-3,.36-.33c.51,1,1,2.13,1.53,3.35m1.61.74c-.41-1.12-1.22-2.34-2.45-4.71l1.52-1.39a2.22,2.22,0,0,0,.24.22c.45.35,1,.66,1.46,1,.86.54,1.69,1.14,2.59,1.66.68.39,1.32,1,2,1.39Zm8.46-6.73a22.52,22.52,0,0,0,2.87-1.9l.51-.43-.27,4.68a.78.78,0,0,0-.14-.4,4.28,4.28,0,0,0-.69-.49,4.9,4.9,0,0,1-.61-.62,2.2,2.2,0,0,0-1.66-.84M156.24,135l.8,3a5.45,5.45,0,0,0-.84.2Zm-7,4.58v-.08l2.35.45.1.74.81,0,.05,1.41L149,140.22a2.18,2.18,0,0,0,.21-.64m7.11-10h0l0,.07Zm-3.48.54.88-.54h.18l-.27,9.69-3.79-.47s0-1.08-.34-1.42a1.05,1.05,0,0,0-.8-.15,13,13,0,0,1-.23-2.42c0-.4,0-.8,0-1.2l4.15-3.71Zm3.72-44.87h.16l.72-1,0,14.66-1.23.63ZM87.62,55.06h0M188.55,85s-1.81-.73-2.69-.1L162,69.4a2,2,0,0,0,0-.91L158.51,66a1.87,1.87,0,0,0-1.07.43l-3.59-2.34.09-.1-1.29-.91a1.58,1.58,0,0,0,.05-.3c.22-.13.46-.34.42-.63,15.89-3.71,15.2-4.78,15.2-4.78-1.24-.93-8.29.16-13.07,1a8.24,8.24,0,0,0-4.63-.37c-.1-.49-.43-1.88-.75-1.84s-.1,1.39,0,2l-.3,0A10.08,10.08,0,0,0,145,60.79c-11.32,3.17-11.58,4.36-11.58,4.36s.88,1.14,15.62-2.1a1.86,1.86,0,0,0,1.81,1.36,1.89,1.89,0,0,0,.93-.24L153,65l.18-.2L157,67.27a2.31,2.31,0,0,0,0,.47l.28,2.14a1.92,1.92,0,0,0-.92.42V69h-.59l-.07,2.37-1.26.13,0,.34,1.18-.05c0,.06,0,.12,0,.18l-.05,1.84a1.64,1.64,0,0,0-.65.33l.1,1.67h.29v1.72h-.64v1.29a9.28,9.28,0,0,0-1.73.49c-10.09-.48-12.35.92-12.35.92-2.19,1.51,9.22,3.06,13.61,3.59.29.59.63,1.22.63,1.22h0l-.28,15.27-.82.42-.62,0-.48-4c.5,0,.87.12.87.12l0-.39.29-.1V96l-.44-.1,0-.54a3.34,3.34,0,0,0-.76-.23l.06-2.18a2.31,2.31,0,1,0-3.27-3.16l-2.37-.48c0-.22,0-.37-.09-.38s-.23.12-.33.29l-1-.2c0-.23,0-.44-.08-.44s-.18.16-.29.36L135.89,87l-.13-4.69a3.87,3.87,0,0,0,1.2-2.77c0-.93-.74-.88-.74-.88V77.22l.29-.2-.56-.56c1-4.19-1.34-6.14-3.3-7,0,0,0,0,0-.07a.38.38,0,0,0-.32-.42.33.33,0,0,0-.29.24c-.27-.1-.52-.18-.75-.24a3.42,3.42,0,0,0,0-.44,6.17,6.17,0,0,0-.2-1.87,3.3,3.3,0,0,0-.43-1c-.25-.31-.46-.34-.6-.68-.27-.64-.26-1.36-.6-2-.75-1.42-.68-2.94-1.13-4.41a15.51,15.51,0,0,0-1.38-4c-.37-.56-.87-1-1.2-1.57a2.82,2.82,0,0,0-1.68-1.16,12.3,12.3,0,0,0-1.76-.71c-.21-.53.44-1.39,0-1.81s-1-.2-1.43-.09C122.83,37.32,122.23,37,122.23,37s.45-.77-.13-.83-.31.78-.31.78c-.91,1.61-2.05,12.6-2.05,12.6h0c-.26,0-.42-.31-.69-.38a.8.8,0,0,0-1,1.07,6.93,6.93,0,0,1-1.94-.4c-.26-.11-1.48-.65-1.13-1,.23.21.5.07.73.29.15-.34.36.05.6,0s.25-.27.49-.32.34.21.44.19c.27,0,.2-.33.21-.59.71,0,.93-.07.78-.82a1.58,1.58,0,0,0,.44.6A5.39,5.39,0,0,1,118.4,46c.06.11.08.08.15.14.07-.42,0-.83,0-1.23a5.88,5.88,0,0,0,.31-1.22,8.69,8.69,0,0,0-.29-1.67c-.09-.51.12-.8.12-1.3.51-.1.18-.87.13-1.2a1.83,1.83,0,0,1,.1-1.36,1.61,1.61,0,0,1,.15.26,16.75,16.75,0,0,1-.24-3.32c0,.07.11.23.14.32.1-1.09-.87-2.06-1.12-3.12a2.28,2.28,0,0,1,.29.12A6.57,6.57,0,0,0,116,30.34c-.39-.28-.52-.72-.88-1a4.21,4.21,0,0,0-1.54-.44,1.39,1.39,0,0,0,.52-.2,7.2,7.2,0,0,0-2.34-.22c.13-.28.77-.54.28-.76s-1,.28-1.26.56a3.6,3.6,0,0,1-.45-1,1.22,1.22,0,0,0-.44.61,1.11,1.11,0,0,0-.53-.42c-.05.42.31.72.38,1.12-.66-.3-1.47-1.34-2.25-1.21a4,4,0,0,1,.83.91,5.74,5.74,0,0,1-1.42-.14,4.56,4.56,0,0,0-1.57.29,6.14,6.14,0,0,0-1.57.64,8.09,8.09,0,0,0-1.88,1.51c-.21.24-.5.4-.71.65s-.35.64-.6.92-.59.5-.84.79a4.24,4.24,0,0,0-.84,2c0,.28.09.69.08,1s-.17.68.09.93a.92.92,0,0,0-.4,1c0,.49.15.45.42.84a.78.78,0,0,0,.64,1.37s0,.05,0,.09a1,1,0,0,0,.68-.17.77.77,0,0,0,.13.38,1.81,1.81,0,0,1,.54,1.72,7.82,7.82,0,0,0,0,1.23c0,.38-.19.7-.2,1.08a8.08,8.08,0,0,0,.59,2,12.74,12.74,0,0,0,.65,2,4.46,4.46,0,0,1,.44,1c0,.44-.34.35-.75.45a6.23,6.23,0,0,1-2.21.33A9.25,9.25,0,0,0,97.17,50a10,10,0,0,0-1.86.61c-.58.21-1.18.35-1.77.56a3.3,3.3,0,0,0-1.07.8c-1,.89-2.14,1.66-3.09,2.65a7.6,7.6,0,0,1-3.59,2.15c.12-.25.1-.41.34-.53s.46,0,.68-.11c0,0,0-.09,0-.13.4-.06,1.06-.43.92-.93h0a1.79,1.79,0,0,1,.24,0,.55.55,0,0,0,0-.67c.32.12.4-.16.67-.27a3.49,3.49,0,0,0,.93-.34,2.47,2.47,0,0,0,.66-.66,2.61,2.61,0,0,0,.34-.94c.09-.45.06-.42-.22-.83a15.58,15.58,0,0,1-.76-1.54c6.41-12.18,6-13.36,6-13.36s.94-.67.21-1-.68.86-.68.86c-.77.62-5.06,9.31-6.5,12.25a2.46,2.46,0,0,0-.61-.42c-.87-.4-1.17,0-2,.29a4.86,4.86,0,0,0-1.14.39,4,4,0,0,0-.64.84,6.88,6.88,0,0,0-1.11,1.74c-.11.33-.09.69-.21,1a2.76,2.76,0,0,1-.72,1.31c-.4.33-.9.51-1.28.87s-.51.6-.8.88A8.74,8.74,0,0,0,78.77,57c-.36.59-.64,1.28-.93,1.9-.4.83-.72,1.7-1,2.55a7.72,7.72,0,0,0-.25,2.4c-.07,1.4,1.33,2.6,2.6,2.95s2.84-.33,4.21-.59S86,65,87.3,64.62a23.59,23.59,0,0,0,3.87-2.18,11.77,11.77,0,0,0,3.52-2.16,4.78,4.78,0,0,1,.11,1.06,4.27,4.27,0,0,0,.3,1c.22.66.27,1.32.53,2a22.8,22.8,0,0,1,1,6l0,.37c-2.3-1.36-7.2-3.48-15.27-3.38-11.85.15-15.09,2.94-16.34,4.27l-.52,0v.79l.1.2,0,1.77a.65.65,0,0,0-.64.49,8.42,8.42,0,0,0,.54,2.65c.15.25.39,0,.39,0a1.38,1.38,0,0,0,.49.54l-.34,9.23s-1.57.59-1.47,3.24a1.92,1.92,0,0,0,.49.88l0,1.32-.07.74L64,94.3s-9.86-1.13-16,0l-.29.1-.15.64a.66.66,0,0,0,0,.84l-.2,1.77-.54.2S46.52,100.93,48,102l-1.77,20.37s-1.62.54-2.16,3.58c0,0,.15.54,1.81,1.28L45.68,129l4.76.54-1.52,13L44,145.29l-1,5.5-1,.34.44.24L42,153.14a2.82,2.82,0,0,0,2.06.24l.15-1.81.44-.2-.64-.44.59-5.1,5-2.8,1.67-13.35,4.61.49-.59,11.39.74,3-.29,5.1-.88.29.44.29-.25,2a3,3,0,0,0,1.91.1l-.15-2,.64-.34-.84-.24v-5.2l-.69-3,.74-11.34s8.29.84,16.54,1.28l.72,0a26.25,26.25,0,0,0,.86,4.48l-1.63.4.15.74-1.42.54s-1.08-.44-.83.44,1,0,1,0l1.18-.54.39.24-9.81,14.35s-.83-.39-1.13-.2-.25.74.49,1.33a1.72,1.72,0,0,0,1.77.15,7.33,7.33,0,0,1-.59-1l9.37-13.61L75.4,138a26.56,26.56,0,0,0,5.49,8.86c-.53,1.73-.54,3.26,1.94,3.67-.63,1.07-2.19.39-3.19,1-1.76,1-.89,1.86-1,3.62,1.68.82,5.21-1,6.89-1.45,1.26-.31,2.8-.55,4.19-1a.56.56,0,0,0,.38.35,1.23,1.23,0,0,1,.78.74l-1.62.54.25.34,1.67-.49c.39.29.88-.1.88-.1l1.63-.3a27.46,27.46,0,0,0,14.45-.1l.36.45-1.57.1,0,.34,1.47-.1a1.14,1.14,0,0,0,1.08,0l2.06-.1-.1-.34h-1.72l.06-.89c2.52-.89,4.87-1.32,7-2.88l4-.27,8.62-5,1.22,1.92-.62.55-2.08,5a.82.82,0,0,1-.08-.12L126.71,154c1.47,1.13,2.36.59,2.36.59l.15-1.67h-.13l2.29-5,2.7,3.42-1.12-.09,0,1.28,1.57.14c-.19.24-.44.58-.34.65a4.69,4.69,0,0,0,.83.24l1,1.13.29-.15.64.29-.2-.49.2-.39-.68-1.15c2.35.18,5.37,1.21,7,1.18a62.45,62.45,0,0,0,7.07-.74l-.69-1.52v-1.37s4-1.08,4.66-2.55c.09-.2.16-.36.23-.5l.41.06-.3,3.93-1.13.1-.29,2,1.28.1s1,.54,1.62,0l1.72.2v-1.86l-1.23-.2.1-8.2,1.42-1.42,1.68,6.28.25,5.89a2.33,2.33,0,0,0,1,0l-.15-6-1.76-6.79.24-.13,2.11-2.06v0l5.2,9,.49,3.84-.2.15,0,1.42a2.46,2.46,0,0,0,1.44.44l0,.44a6.47,6.47,0,0,0,2.16-.34l-.64-1.81-.14.06-1-4.64L167.26,145l2.4,3.17,1.54,3.76-.07,0,.2,1.91a3.29,3.29,0,0,0,1.87,0l-.54-2a.76.76,0,0,1-.16.12l-1.36-4.21-11.28-14.83L157,128.14l.07-.52h-.88l.14-22.42.69,0,.5.45,0,13.09,1.67,0-.07-15.41h1.25l-.15-2.21-1.11-.06L159,84.09c11.65.1,12-.77,11.88-1.22-.28-.92-2-2.16-11.9-3.08l0-3.94h.19l-.2-2.06-.1-.34-.28-.1a1.91,1.91,0,0,0,.82-1.57,1.83,1.83,0,0,0,0-.25l2-1.23.07-.05,24,15.66-.09.34L186.88,88l4.27,2.75a1,1,0,0,0,1.42-.24,16.2,16.2,0,0,0,1-2.21A49.41,49.41,0,0,0,188.55,85"/><path class="cls-1" d="M271.89,96.15c-.06-.35-.12-.74-.17-1.21a8.15,8.15,0,0,0-.85-2.13c-.83-1.94-1.79-3.85-2.63-5.8l-.23-.87h11.91Zm1.3,38.63a12.31,12.31,0,0,1,.4,1.77c.32.89.84.77,1.24,1.49.28.51,0,1.25.24,1.79.14.3,1,.9,1.22,1.21s.33.81.88,1.07c-.12.38-.27.8-.44,1.25l-20.06-25.28,5.73-7.22a17.52,17.52,0,0,0,1.5,2.43c3.06,3.44,4.72,8,6.37,12.25a56.52,56.52,0,0,1,1.7,6.81,12.85,12.85,0,0,0,1.23,2.42M247.84,107H260.4c.35.73.73,1.51,1.12,2.26l-5.94,7.49Zm-5.37-6.77.58-.7a9.37,9.37,0,0,0,1.19-2.06c.8-2,1-3.26,2.83-4.58,1.53.09,2.94-1.8,4.48-1.48s2.56,2,3.41,3.09A18.67,18.67,0,0,1,257.38,98c.31.9.66,2,1,3q.12.43.25.85c.19.69.36,1.36.49,1.94a8.2,8.2,0,0,0,.42,1.2H246.26Zm20.25-48,1.07.71.41-.5.14.19a2.11,2.11,0,0,0,.19.38,8.2,8.2,0,0,1,.82,1.47,8.84,8.84,0,0,0,1.8,3.12c.2.22.41.47.61.74.94,1.27.54,2.78.24,4.19-.71,3.37-.16,6.85-.87,10.21-.09.42-.32,1.08-.52,1.7l-.54.87h-.53v-.87a27.8,27.8,0,0,1-.39-4.08,1.5,1.5,0,0,1-.54-.93c-1-5.28-2.76-10.51-2.08-15.93,0,0,0-.06,0-.09a1.41,1.41,0,0,1,.16-1.17M237,67.08a5.91,5.91,0,0,1-.41,2.62l-.25-.29-5.71-8.26-1.16-1.42c-.4-1,0-1.14.57-2.22a17.17,17.17,0,0,0,1-2.11l.14-.25c1.12-2.29,1.63-3.16,1.81-3.46a5.29,5.29,0,0,0,1.09.86,10.73,10.73,0,0,1,.68-1.65l.33-.36c.23,1.57.89,3,1,4.54a9.94,9.94,0,0,0,.8,3.79c1.22,2.81-.19,5.59.07,8.22m36.68,8.16v-.87q0-.49,0-1a79.72,79.72,0,0,0,1.66-10.23c.2-3.33.38-6.42-1.18-9.46a35,35,0,0,1-1.46-3.36,11.94,11.94,0,0,1-1.11-2.82c0-1.39,1-1.9.36-3.43-.93-2.32-2.88-4-4-6.27-1.42-2.84-2.32-6.42-5.29-8.15a20,20,0,0,0-4.23-1.6,9.76,9.76,0,0,1-1.19-.46,1.15,1.15,0,0,0,.12-.39,5.11,5.11,0,0,1,.64-.06,1.75,1.75,0,0,1,.88-.69c.14-.52.39-1,.55-1.45,1.15.8.65-.3,1.06-.75-.08.09,1-1.23.92-1,.24-.74-.18-1-.05-1.59s.64-.78.71-1.38c.15-1.26-.31-2,.35-3.27a15.78,15.78,0,0,0,.88-1.54c0-.76-.86-1.17-.89-1.89s.64-1,.66-1.42c0-.9-.4-.77-.67-1.55-.58-1.71-.27-1.66-1.92-2.91a18.84,18.84,0,0,1-2.59-2.58,7.8,7.8,0,0,0-1.27-1.29c-.45-.38-.8-.26-1.08-.87-.39.07-.95-.13-1.34-.06-.44-1.33-1.3-.52-2.14-1S251.59.19,250.17.87C249.75,0,249,.16,248.33.58l.05,0a1.77,1.77,0,0,1-.39,0,2.83,2.83,0,0,1-.47-.51,6.94,6.94,0,0,0-2.62.39c-.74.21-1.25-.1-1.93.85a6.47,6.47,0,0,0-4.47.44c-.46.31,0,1-.26,1.27s-.9.17-1.11.36-.69.9-.79.94-.82-.1-.91,0a11.45,11.45,0,0,0-2.52,3.21c-.06.16.55.76.49,1.12s-.86.5-1,.88a6.85,6.85,0,0,0-.07,2.2,1.72,1.72,0,0,0-1.08,2.23c.31,0,.58.23.89.25a4.54,4.54,0,0,0-.32,2c.32,0,.62.23.9.26-1.6,1.34-.44,2.2.06,3.44.27.67-.13,1,.15,1.9s.1,1.38,1.3,1.14c-.1,2.18,1.11,1.35,1.59,2.74a1.83,1.83,0,0,1,.31-.21,1.73,1.73,0,0,0,1.32.77c.08.15,0,.32.05.47s.43,0,.65.06c.47.44.47.61,1.23.21a1,1,0,0,0,0,.54c-2.13,1.25-4.1,2.91-6.85,3.12,0,1.13-1.73,1-2.5,1.66a19.24,19.24,0,0,0-3,4.08c-1.73,2.81-2.45,6.22-4.09,9.06l.12.09c-.32.3-.6,1.06.94,2.81-1.57,3.34-3.55,7.84-3.76,9.6-.36,3,11.22,14.84,11.22,14.84s-.8-.13-.9,1.66l-.2.87H189.25l-.68,1.05,1.07,6.32,4.66,1.76h33.44l2.77,3.49-.38.94a11.78,11.78,0,0,0-.91,3.26c-.32,3.11-1.69,5.76-2.57,8.81a44.56,44.56,0,0,1-4.42,10.63,7.18,7.18,0,0,0-.88,3.78,19.5,19.5,0,0,1-1.25,5.38c-1.06,3.16-2.1,6.27-3.25,9.41-.21.59-.79,1.16-1,1.7s.11,1.37,0,1.77c-.21.58-1,.67-1.06,1.38s.59,1,.86,1.64c1.65,3.86-7.45,14.22.88,15,2.31.23,5.93.62,6.77-1.9.75-2.25-.94-5.51-1.58-7.58.55-.26.58-.73.88-1.07s1.08-.9,1.22-1.21c.24-.55,0-1.28.24-1.79.4-.72.91-.6,1.24-1.49a12.37,12.37,0,0,1,.4-1.77,12.85,12.85,0,0,0,1.23-2.42,56.52,56.52,0,0,1,1.7-6.81c1.65-4.2,3.31-8.81,6.37-12.25,1-1.08,1.92-1.48,2.23-3,.62-2.94,1.07-4.88,3-7.36.18-.23.37-.47.57-.7l.58-.7,2.72,3.43h-1a1,1,0,1,0,0,2h2.54l8.83,11.13-25.27,31.85h-2.74a1.5,1.5,0,0,0-1.52,1.49V154a1.5,1.5,0,0,0,1.52,1.49h2.6a1.5,1.5,0,0,0,1.51-1.49v-2.55a1.48,1.48,0,0,0-.05-.39l25-31.57L276,145.27a7.4,7.4,0,0,0-.45,4.44c.65,1.92,2.91,2.15,5,2V154a1.5,1.5,0,0,0,1.51,1.49h2.6a1.5,1.5,0,0,0,1.52-1.49v-2.55a1.47,1.47,0,0,0-.74-1.27c2.1-3.16-3.54-10.49-2.21-13.59.28-.65.95-.85.86-1.64s-.85-.8-1.06-1.38c-.15-.4.14-1.16,0-1.77s-.74-1.11-1-1.7c-1.14-3.14-2.19-6.25-3.25-9.41a19.51,19.51,0,0,1-1.26-5.38,7.18,7.18,0,0,0-.88-3.78c-2-3.44-2-6.47-3.09-10.36a23.76,23.76,0,0,0-1.1-3l9.63-12h7L292,84.86c.19-.53.39-1.07.63-1.62a6.46,6.46,0,0,0,.34-1.38,9.92,9.92,0,0,1,.33-1.44,7.54,7.54,0,0,1,1.1-2,7.24,7.24,0,0,0,.72-1.17c.17-.38.51-1.14,1-2Z"/><polygon class="cls-1" points="206.6 264.8 204.6 264.8 204.6 172.08 295.82 172.08 295.82 174.08 206.6 174.08 206.6 264.8"/><path d="M291.65,173.1a4.18,4.18,0,1,0,4.18-4.18,4.18,4.18,0,0,0-4.18,4.18"/><path class="cls-1" d="M295.82,177.78a4.68,4.68,0,1,1,4.68-4.68A4.68,4.68,0,0,1,295.82,177.78Zm0-8.35a3.68,3.68,0,1,0,3.68,3.68A3.68,3.68,0,0,0,295.82,169.42Z"/><circle cx="295.82" cy="173.1" r="4.18"/><path class="cls-1" d="M295.82,177.78a4.68,4.68,0,1,1,4.68-4.68A4.68,4.68,0,0,1,295.82,177.78Zm0-8.35a3.68,3.68,0,1,0,3.68,3.68A3.68,3.68,0,0,0,295.82,169.42Z"/><polygon class="cls-1" points="159 264.8 157 264.8 157 174.08 67.78 174.08 67.78 172.08 159 172.08 159 264.8"/><path d="M72,173.1a4.18,4.18,0,1,1-4.18-4.18A4.18,4.18,0,0,1,72,173.1"/><path class="cls-1" d="M67.78,177.78a4.68,4.68,0,1,1,4.68-4.68A4.68,4.68,0,0,1,67.78,177.78Zm0-8.35a3.68,3.68,0,1,0,3.68,3.68A3.68,3.68,0,0,0,67.78,169.42Z"/><circle cx="67.78" cy="173.1" r="4.18"/><path class="cls-1" d="M67.78,177.78a4.68,4.68,0,1,1,4.68-4.68A4.68,4.68,0,0,1,67.78,177.78Zm0-8.35a3.68,3.68,0,1,0,3.68,3.68A3.68,3.68,0,0,0,67.78,169.42Z"/></g></g></svg>